<svg width="60" height="60" viewBox="0 0 60 60" fill="none" xmlns="http://www.w3.org/2000/svg">
<g opacity="0.8">
<path d="M5.45382 5.62514C4.95689 5.61853 4.48256 5.83916 4.15808 6.22785C3.83359 6.61655 3.69215 7.13352 3.77171 7.6401L10.9123 52.4033C11.0959 53.534 12.0392 54.3653 13.1495 54.3748H47.4056C48.2389 54.3859 48.9545 53.7653 49.0877 52.9157L56.2283 7.64878C56.3078 7.14221 56.1664 6.62524 55.8419 6.23654C55.5174 5.84784 55.0431 5.62721 54.5462 5.63383L5.45382 5.62514ZM35.5215 37.9773H24.5878L21.6273 22.0053H38.1708L35.5215 37.9773Z" fill="#2684FF"/>
<path fill-rule="evenodd" clip-rule="evenodd" d="M53.9576 22.0039H38.171L35.5216 37.9759H24.5879L11.6777 53.8002C12.0869 54.1656 12.6086 54.3688 13.1496 54.3734H47.4142C48.2475 54.3845 48.963 53.7638 49.0963 52.9143L53.9576 22.0039Z" fill="url(#paint0_linear_1_4718)"/>
</g>
<defs>
<linearGradient id="paint0_linear_1_4718" x1="57.6077" y1="26.4768" x2="38.58" y2="52.6394" gradientUnits="userSpaceOnUse">
<stop offset="0.18" stop-color="#0052CC"/>
<stop offset="1" stop-color="#2684FF"/>
</linearGradient>
</defs>
</svg>
