<svg width="566" height="604" viewBox="0 0 566 604" fill="none" xmlns="http://www.w3.org/2000/svg">
<g filter="url(#filter0_d_1_4465)">
<path d="M92 110C92 101.163 99.1634 94 108 94H458C466.837 94 474 101.163 474 110V514H92V110Z" fill="white"/>
</g>
<path d="M120.526 463H116.571L122.597 445.545H127.352L133.369 463H129.415L125.043 449.534H124.906L120.526 463ZM120.278 456.139H129.619V459.02H120.278V456.139ZM139.273 445.545V463H135.642V445.545H139.273ZM146.052 445.545V463H142.421V445.545H146.052ZM164.532 450.565C164.464 449.878 164.171 449.344 163.654 448.963C163.137 448.582 162.435 448.392 161.549 448.392C160.947 448.392 160.438 448.477 160.023 448.648C159.608 448.812 159.29 449.043 159.069 449.338C158.853 449.634 158.745 449.969 158.745 450.344C158.733 450.656 158.799 450.929 158.941 451.162C159.089 451.395 159.29 451.597 159.546 451.767C159.802 451.932 160.097 452.077 160.432 452.202C160.768 452.321 161.125 452.423 161.506 452.509L163.074 452.884C163.836 453.054 164.535 453.281 165.171 453.565C165.807 453.849 166.358 454.199 166.824 454.614C167.29 455.028 167.651 455.517 167.907 456.08C168.168 456.642 168.302 457.287 168.307 458.014C168.302 459.082 168.029 460.009 167.489 460.793C166.955 461.571 166.182 462.176 165.171 462.608C164.165 463.034 162.952 463.247 161.532 463.247C160.123 463.247 158.895 463.031 157.85 462.599C156.81 462.168 155.998 461.528 155.412 460.682C154.833 459.83 154.529 458.776 154.5 457.52H158.072C158.111 458.105 158.279 458.594 158.574 458.986C158.875 459.372 159.276 459.665 159.776 459.864C160.282 460.057 160.853 460.153 161.489 460.153C162.114 460.153 162.657 460.062 163.117 459.881C163.583 459.699 163.944 459.446 164.199 459.122C164.455 458.798 164.583 458.426 164.583 458.006C164.583 457.614 164.466 457.284 164.233 457.017C164.006 456.75 163.671 456.523 163.228 456.335C162.79 456.148 162.253 455.977 161.617 455.824L159.716 455.347C158.245 454.989 157.083 454.429 156.231 453.668C155.378 452.906 154.955 451.881 154.961 450.591C154.955 449.534 155.236 448.611 155.804 447.821C156.378 447.031 157.165 446.415 158.165 445.972C159.165 445.528 160.302 445.307 161.574 445.307C162.87 445.307 164 445.528 164.966 445.972C165.938 446.415 166.694 447.031 167.233 447.821C167.773 448.611 168.052 449.526 168.069 450.565H164.532ZM170.961 467.909V449.909H174.541V452.108H174.703C174.862 451.756 175.092 451.398 175.393 451.034C175.7 450.665 176.098 450.358 176.586 450.114C177.081 449.864 177.694 449.739 178.427 449.739C179.382 449.739 180.263 449.989 181.069 450.489C181.876 450.983 182.521 451.73 183.004 452.73C183.487 453.724 183.728 454.972 183.728 456.472C183.728 457.932 183.493 459.165 183.021 460.17C182.555 461.17 181.919 461.929 181.112 462.446C180.311 462.957 179.413 463.213 178.419 463.213C177.714 463.213 177.115 463.097 176.62 462.864C176.132 462.631 175.731 462.338 175.419 461.986C175.106 461.628 174.868 461.267 174.703 460.903H174.592V467.909H170.961ZM174.515 456.455C174.515 457.233 174.623 457.912 174.839 458.491C175.055 459.071 175.368 459.523 175.777 459.847C176.186 460.165 176.683 460.324 177.268 460.324C177.859 460.324 178.359 460.162 178.768 459.838C179.177 459.509 179.487 459.054 179.697 458.474C179.913 457.889 180.021 457.216 180.021 456.455C180.021 455.699 179.916 455.034 179.706 454.46C179.495 453.886 179.186 453.437 178.777 453.114C178.368 452.79 177.865 452.628 177.268 452.628C176.677 452.628 176.177 452.784 175.768 453.097C175.365 453.409 175.055 453.852 174.839 454.426C174.623 455 174.515 455.676 174.515 456.455ZM192.355 463.256C191.008 463.256 189.849 462.983 188.878 462.438C187.912 461.886 187.167 461.108 186.645 460.102C186.122 459.091 185.86 457.895 185.86 456.514C185.86 455.168 186.122 453.986 186.645 452.969C187.167 451.952 187.903 451.159 188.852 450.591C189.806 450.023 190.926 449.739 192.21 449.739C193.074 449.739 193.878 449.878 194.622 450.156C195.372 450.429 196.025 450.841 196.582 451.392C197.145 451.943 197.582 452.636 197.895 453.472C198.207 454.301 198.363 455.273 198.363 456.386V457.384H187.309V455.134H194.946C194.946 454.611 194.832 454.148 194.605 453.744C194.378 453.341 194.062 453.026 193.659 452.798C193.261 452.565 192.798 452.449 192.27 452.449C191.718 452.449 191.23 452.577 190.804 452.832C190.383 453.082 190.054 453.42 189.815 453.847C189.576 454.267 189.454 454.736 189.449 455.253V457.392C189.449 458.04 189.568 458.599 189.806 459.071C190.051 459.543 190.395 459.906 190.838 460.162C191.281 460.418 191.806 460.545 192.414 460.545C192.818 460.545 193.187 460.489 193.522 460.375C193.858 460.261 194.145 460.091 194.383 459.864C194.622 459.636 194.804 459.358 194.929 459.028L198.287 459.25C198.116 460.057 197.767 460.761 197.238 461.364C196.716 461.96 196.039 462.426 195.21 462.761C194.386 463.091 193.434 463.256 192.355 463.256ZM204.603 455.432V463H200.973V449.909H204.433V452.219H204.586C204.876 451.457 205.362 450.855 206.044 450.412C206.725 449.963 207.552 449.739 208.524 449.739C209.433 449.739 210.225 449.938 210.902 450.335C211.578 450.733 212.103 451.301 212.478 452.04C212.853 452.773 213.041 453.648 213.041 454.665V463H209.41V455.312C209.416 454.511 209.211 453.886 208.796 453.438C208.382 452.983 207.811 452.756 207.083 452.756C206.595 452.756 206.163 452.861 205.788 453.071C205.419 453.281 205.129 453.588 204.919 453.991C204.714 454.389 204.609 454.869 204.603 455.432ZM220.966 463.213C219.972 463.213 219.071 462.957 218.264 462.446C217.463 461.929 216.827 461.17 216.355 460.17C215.889 459.165 215.657 457.932 215.657 456.472C215.657 454.972 215.898 453.724 216.381 452.73C216.864 451.73 217.506 450.983 218.307 450.489C219.114 449.989 219.997 449.739 220.958 449.739C221.691 449.739 222.301 449.864 222.79 450.114C223.284 450.358 223.682 450.665 223.983 451.034C224.29 451.398 224.523 451.756 224.682 452.108H224.793V445.545H228.415V463H224.835V460.903H224.682C224.512 461.267 224.27 461.628 223.958 461.986C223.651 462.338 223.25 462.631 222.756 462.864C222.267 463.097 221.671 463.213 220.966 463.213ZM222.117 460.324C222.702 460.324 223.196 460.165 223.6 459.847C224.009 459.523 224.321 459.071 224.537 458.491C224.759 457.912 224.87 457.233 224.87 456.455C224.87 455.676 224.762 455 224.546 454.426C224.33 453.852 224.017 453.409 223.608 453.097C223.199 452.784 222.702 452.628 222.117 452.628C221.52 452.628 221.017 452.79 220.608 453.114C220.199 453.437 219.889 453.886 219.679 454.46C219.469 455.034 219.364 455.699 219.364 456.455C219.364 457.216 219.469 457.889 219.679 458.474C219.895 459.054 220.205 459.509 220.608 459.838C221.017 460.162 221.52 460.324 222.117 460.324Z" fill="#363B64"/>
<g filter="url(#filter1_d_1_4465)">
<path d="M117 491C117 485.477 121.477 481 127 481H262C267.523 481 272 485.477 272 491V514H117V491Z" fill="white"/>
</g>
<g filter="url(#filter2_d_1_4465)">
<path d="M288 491C288 485.477 292.477 481 298 481H433C438.523 481 443 485.477 443 491V514H288V491Z" fill="white"/>
</g>
<path d="M123.524 413.169C122.739 413.166 122.067 412.959 121.511 412.548C120.954 412.137 120.528 411.538 120.233 410.753C119.938 409.967 119.79 409.021 119.79 407.914C119.79 406.81 119.938 405.867 120.233 405.085C120.531 404.303 120.959 403.706 121.516 403.295C122.076 402.884 122.745 402.679 123.524 402.679C124.303 402.679 124.971 402.886 125.528 403.3C126.085 403.711 126.51 404.308 126.805 405.09C127.104 405.869 127.253 406.81 127.253 407.914C127.253 409.024 127.105 409.972 126.81 410.758C126.515 411.54 126.089 412.138 125.533 412.553C124.976 412.964 124.306 413.169 123.524 413.169ZM123.524 411.842C124.214 411.842 124.752 411.505 125.14 410.832C125.531 410.16 125.727 409.187 125.727 407.914C125.727 407.069 125.637 406.355 125.458 405.771C125.282 405.185 125.029 404.741 124.697 404.439C124.369 404.134 123.978 403.982 123.524 403.982C122.838 403.982 122.299 404.32 121.908 404.996C121.517 405.672 121.32 406.645 121.317 407.914C121.317 408.763 121.405 409.48 121.58 410.067C121.759 410.65 122.013 411.093 122.341 411.394C122.669 411.692 123.063 411.842 123.524 411.842ZM132.542 402.654C132.996 402.657 133.444 402.74 133.884 402.903C134.325 403.065 134.723 403.332 135.078 403.703C135.436 404.071 135.721 404.568 135.933 405.195C136.148 405.821 136.258 406.603 136.261 407.541C136.258 408.433 136.166 409.227 135.987 409.923C135.812 410.615 135.557 411.2 135.222 411.678C134.887 412.155 134.483 412.518 134.009 412.766C133.538 413.015 133.006 413.139 132.413 413.139C131.806 413.139 131.268 413.02 130.797 412.781C130.326 412.543 129.944 412.213 129.649 411.792C129.354 411.368 129.17 410.88 129.097 410.33H130.613C130.713 410.768 130.915 411.122 131.22 411.394C131.528 411.663 131.926 411.797 132.413 411.797C133.159 411.797 133.74 411.472 134.158 410.822C134.576 410.17 134.786 409.258 134.789 408.088H134.71C134.537 408.373 134.322 408.618 134.063 408.824C133.808 409.029 133.522 409.188 133.203 409.301C132.885 409.414 132.545 409.47 132.184 409.47C131.598 409.47 131.062 409.326 130.578 409.038C130.098 408.749 129.715 408.353 129.43 407.849C129.148 407.346 129.007 406.769 129.007 406.119C129.007 405.47 129.153 404.883 129.445 404.359C129.74 403.832 130.151 403.416 130.678 403.112C131.208 402.803 131.83 402.651 132.542 402.654ZM132.547 403.947C132.159 403.947 131.81 404.043 131.498 404.235C131.19 404.427 130.946 404.686 130.767 405.011C130.588 405.335 130.499 405.698 130.499 406.099C130.499 406.494 130.585 406.852 130.757 407.173C130.933 407.495 131.172 407.75 131.473 407.939C131.778 408.125 132.126 408.217 132.517 408.217C132.809 408.217 133.081 408.161 133.333 408.048C133.585 407.936 133.803 407.78 133.989 407.581C134.178 407.379 134.325 407.15 134.431 406.895C134.541 406.636 134.595 406.366 134.595 406.085C134.595 405.703 134.506 405.35 134.327 405.026C134.151 404.701 133.909 404.441 133.601 404.245C133.293 404.046 132.942 403.947 132.547 403.947ZM139.196 411.737C138.924 411.737 138.691 411.641 138.495 411.449C138.3 411.253 138.202 411.018 138.202 410.743C138.202 410.471 138.3 410.239 138.495 410.047C138.691 409.851 138.924 409.754 139.196 409.754C139.468 409.754 139.702 409.851 139.897 410.047C140.093 410.239 140.191 410.471 140.191 410.743C140.191 410.925 140.144 411.093 140.051 411.245C139.962 411.394 139.843 411.513 139.693 411.603C139.544 411.692 139.378 411.737 139.196 411.737ZM139.196 406.636C138.924 406.636 138.691 406.54 138.495 406.348C138.3 406.152 138.202 405.917 138.202 405.642C138.202 405.37 138.3 405.138 138.495 404.946C138.691 404.75 138.924 404.653 139.196 404.653C139.468 404.653 139.702 404.75 139.897 404.946C140.093 405.138 140.191 405.37 140.191 405.642C140.191 405.824 140.144 405.992 140.051 406.144C139.962 406.293 139.843 406.413 139.693 406.502C139.544 406.592 139.378 406.636 139.196 406.636ZM145.846 413.169C145.061 413.166 144.39 412.959 143.833 412.548C143.276 412.137 142.85 411.538 142.555 410.753C142.26 409.967 142.113 409.021 142.113 407.914C142.113 406.81 142.26 405.867 142.555 405.085C142.854 404.303 143.281 403.706 143.838 403.295C144.398 402.884 145.068 402.679 145.846 402.679C146.625 402.679 147.293 402.886 147.85 403.3C148.407 403.711 148.833 404.308 149.128 405.09C149.426 405.869 149.575 406.81 149.575 407.914C149.575 409.024 149.428 409.972 149.133 410.758C148.838 411.54 148.412 412.138 147.855 412.553C147.298 412.964 146.629 413.169 145.846 413.169ZM145.846 411.842C146.536 411.842 147.074 411.505 147.462 410.832C147.853 410.16 148.049 409.187 148.049 407.914C148.049 407.069 147.959 406.355 147.78 405.771C147.605 405.185 147.351 404.741 147.02 404.439C146.692 404.134 146.301 403.982 145.846 403.982C145.16 403.982 144.622 404.32 144.231 404.996C143.84 405.672 143.642 406.645 143.639 407.914C143.639 408.763 143.727 409.48 143.903 410.067C144.082 410.65 144.335 411.093 144.663 411.394C144.991 411.692 145.386 411.842 145.846 411.842ZM155.024 413.169C154.238 413.166 153.567 412.959 153.01 412.548C152.453 412.137 152.027 411.538 151.732 410.753C151.437 409.967 151.29 409.021 151.29 407.914C151.29 406.81 151.437 405.867 151.732 405.085C152.031 404.303 152.458 403.706 153.015 403.295C153.575 402.884 154.245 402.679 155.024 402.679C155.802 402.679 156.47 402.886 157.027 403.3C157.584 403.711 158.01 404.308 158.305 405.09C158.603 405.869 158.752 406.81 158.752 407.914C158.752 409.024 158.605 409.972 158.31 410.758C158.015 411.54 157.589 412.138 157.032 412.553C156.475 412.964 155.806 413.169 155.024 413.169ZM155.024 411.842C155.713 411.842 156.252 411.505 156.639 410.832C157.03 410.16 157.226 409.187 157.226 407.914C157.226 407.069 157.137 406.355 156.958 405.771C156.782 405.185 156.528 404.741 156.197 404.439C155.869 404.134 155.478 403.982 155.024 403.982C154.338 403.982 153.799 404.32 153.408 404.996C153.017 405.672 152.82 406.645 152.816 407.914C152.816 408.763 152.904 409.48 153.08 410.067C153.259 410.65 153.512 411.093 153.84 411.394C154.168 411.692 154.563 411.842 155.024 411.842Z" fill="#ADAFBD"/>
<path d="M292.842 402.818V413H291.301V404.359H291.241L288.805 405.95V404.479L291.346 402.818H292.842ZM299.177 413.139C298.464 413.139 297.835 413.017 297.288 412.771C296.744 412.526 296.318 412.188 296.01 411.757C295.702 411.326 295.549 410.836 295.553 410.286C295.549 409.855 295.637 409.459 295.816 409.097C295.998 408.733 296.245 408.429 296.557 408.188C296.868 407.942 297.216 407.786 297.601 407.72V407.661C297.094 407.538 296.688 407.266 296.383 406.845C296.078 406.424 295.927 405.94 295.93 405.393C295.927 404.873 296.065 404.409 296.343 404.001C296.625 403.59 297.011 403.267 297.502 403.032C297.992 402.797 298.551 402.679 299.177 402.679C299.797 402.679 300.35 402.798 300.837 403.037C301.328 403.272 301.714 403.595 301.996 404.006C302.278 404.414 302.42 404.876 302.423 405.393C302.42 405.94 302.264 406.424 301.956 406.845C301.648 407.266 301.247 407.538 300.753 407.661V407.72C301.134 407.786 301.477 407.942 301.782 408.188C302.09 408.429 302.336 408.733 302.518 409.097C302.703 409.459 302.798 409.855 302.801 410.286C302.798 410.836 302.642 411.326 302.334 411.757C302.026 412.188 301.598 412.526 301.051 412.771C300.508 413.017 299.883 413.139 299.177 413.139ZM299.177 411.881C299.598 411.881 299.962 411.812 300.271 411.673C300.579 411.53 300.818 411.333 300.987 411.081C301.156 410.826 301.242 410.527 301.245 410.186C301.242 409.831 301.149 409.518 300.967 409.246C300.788 408.975 300.544 408.761 300.236 408.605C299.928 408.449 299.575 408.371 299.177 408.371C298.776 408.371 298.42 408.449 298.108 408.605C297.796 408.761 297.551 408.975 297.372 409.246C297.193 409.518 297.105 409.831 297.109 410.186C297.105 410.527 297.187 410.826 297.352 411.081C297.521 411.333 297.762 411.53 298.073 411.673C298.385 411.812 298.753 411.881 299.177 411.881ZM299.177 407.143C299.515 407.143 299.815 407.076 300.077 406.94C300.339 406.804 300.544 406.615 300.693 406.373C300.846 406.131 300.924 405.848 300.927 405.523C300.924 405.205 300.847 404.926 300.698 404.688C300.552 404.449 300.349 404.265 300.087 404.136C299.825 404.003 299.522 403.937 299.177 403.937C298.826 403.937 298.517 404.003 298.252 404.136C297.99 404.265 297.787 404.449 297.641 404.688C297.495 404.926 297.424 405.205 297.427 405.523C297.424 405.848 297.497 406.131 297.646 406.373C297.795 406.615 298 406.804 298.262 406.94C298.527 407.076 298.832 407.143 299.177 407.143ZM305.722 411.737C305.45 411.737 305.216 411.641 305.021 411.449C304.825 411.253 304.727 411.018 304.727 410.743C304.727 410.471 304.825 410.239 305.021 410.047C305.216 409.851 305.45 409.754 305.722 409.754C305.993 409.754 306.227 409.851 306.423 410.047C306.618 410.239 306.716 410.471 306.716 410.743C306.716 410.925 306.67 411.093 306.577 411.245C306.487 411.394 306.368 411.513 306.219 411.603C306.07 411.692 305.904 411.737 305.722 411.737ZM305.722 406.636C305.45 406.636 305.216 406.54 305.021 406.348C304.825 406.152 304.727 405.917 304.727 405.642C304.727 405.37 304.825 405.138 305.021 404.946C305.216 404.75 305.45 404.653 305.722 404.653C305.993 404.653 306.227 404.75 306.423 404.946C306.618 405.138 306.716 405.37 306.716 405.642C306.716 405.824 306.67 405.992 306.577 406.144C306.487 406.293 306.368 406.413 306.219 406.502C306.07 406.592 305.904 406.636 305.722 406.636ZM312.372 413.169C311.586 413.166 310.915 412.959 310.358 412.548C309.802 412.137 309.376 411.538 309.081 410.753C308.786 409.967 308.638 409.021 308.638 407.914C308.638 406.81 308.786 405.867 309.081 405.085C309.379 404.303 309.807 403.706 310.363 403.295C310.923 402.884 311.593 402.679 312.372 402.679C313.151 402.679 313.819 402.886 314.375 403.3C314.932 403.711 315.358 404.308 315.653 405.09C315.951 405.869 316.101 406.81 316.101 407.914C316.101 409.024 315.953 409.972 315.658 410.758C315.363 411.54 314.937 412.138 314.38 412.553C313.824 412.964 313.154 413.169 312.372 413.169ZM312.372 411.842C313.061 411.842 313.6 411.505 313.988 410.832C314.379 410.16 314.574 409.187 314.574 407.914C314.574 407.069 314.485 406.355 314.306 405.771C314.13 405.185 313.877 404.741 313.545 404.439C313.217 404.134 312.826 403.982 312.372 403.982C311.686 403.982 311.147 404.32 310.756 404.996C310.365 405.672 310.168 406.645 310.164 407.914C310.164 408.763 310.252 409.48 310.428 410.067C310.607 410.65 310.861 411.093 311.189 411.394C311.517 411.692 311.911 411.842 312.372 411.842ZM321.549 413.169C320.763 413.166 320.092 412.959 319.535 412.548C318.979 412.137 318.553 411.538 318.258 410.753C317.963 409.967 317.815 409.021 317.815 407.914C317.815 406.81 317.963 405.867 318.258 405.085C318.556 404.303 318.984 403.706 319.54 403.295C320.101 402.884 320.77 402.679 321.549 402.679C322.328 402.679 322.996 402.886 323.553 403.3C324.109 403.711 324.535 404.308 324.83 405.09C325.129 405.869 325.278 406.81 325.278 407.914C325.278 409.024 325.13 409.972 324.835 410.758C324.54 411.54 324.114 412.138 323.558 412.553C323.001 412.964 322.331 413.169 321.549 413.169ZM321.549 411.842C322.238 411.842 322.777 411.505 323.165 410.832C323.556 410.16 323.751 409.187 323.751 407.914C323.751 407.069 323.662 406.355 323.483 405.771C323.307 405.185 323.054 404.741 322.722 404.439C322.394 404.134 322.003 403.982 321.549 403.982C320.863 403.982 320.324 404.32 319.933 404.996C319.542 405.672 319.345 406.645 319.342 407.914C319.342 408.763 319.429 409.48 319.605 410.067C319.784 410.65 320.038 411.093 320.366 411.394C320.694 411.692 321.088 411.842 321.549 411.842Z" fill="#ADAFBD"/>
<path d="M181.842 402.818V413H180.301V404.359H180.241L177.805 405.95V404.479L180.346 402.818H181.842ZM184.737 413V411.886L188.182 408.317C188.55 407.929 188.853 407.589 189.092 407.298C189.334 407.003 189.514 406.723 189.634 406.457C189.753 406.192 189.813 405.911 189.813 405.612C189.813 405.274 189.733 404.982 189.574 404.737C189.415 404.489 189.198 404.298 188.923 404.165C188.648 404.03 188.338 403.962 187.993 403.962C187.628 403.962 187.31 404.036 187.038 404.185C186.767 404.335 186.558 404.545 186.412 404.817C186.266 405.089 186.193 405.407 186.193 405.771H184.727C184.727 405.152 184.869 404.61 185.154 404.146C185.439 403.682 185.83 403.322 186.327 403.067C186.825 402.808 187.39 402.679 188.023 402.679C188.662 402.679 189.226 402.807 189.713 403.062C190.204 403.314 190.586 403.658 190.862 404.096C191.137 404.53 191.274 405.021 191.274 405.567C191.274 405.945 191.203 406.315 191.06 406.676C190.921 407.037 190.678 407.44 190.33 407.884C189.982 408.325 189.498 408.86 188.878 409.49L186.854 411.608V411.683H191.438V413H184.737ZM194.462 411.737C194.19 411.737 193.956 411.641 193.761 411.449C193.565 411.253 193.467 411.018 193.467 410.743C193.467 410.471 193.565 410.239 193.761 410.047C193.956 409.851 194.19 409.754 194.462 409.754C194.734 409.754 194.967 409.851 195.163 410.047C195.358 410.239 195.456 410.471 195.456 410.743C195.456 410.925 195.41 411.093 195.317 411.245C195.227 411.394 195.108 411.513 194.959 411.603C194.81 411.692 194.644 411.737 194.462 411.737ZM194.462 406.636C194.19 406.636 193.956 406.54 193.761 406.348C193.565 406.152 193.467 405.917 193.467 405.642C193.467 405.37 193.565 405.138 193.761 404.946C193.956 404.75 194.19 404.653 194.462 404.653C194.734 404.653 194.967 404.75 195.163 404.946C195.358 405.138 195.456 405.37 195.456 405.642C195.456 405.824 195.41 405.992 195.317 406.144C195.227 406.293 195.108 406.413 194.959 406.502C194.81 406.592 194.644 406.636 194.462 406.636ZM201.112 413.169C200.327 413.166 199.655 412.959 199.099 412.548C198.542 412.137 198.116 411.538 197.821 410.753C197.526 409.967 197.378 409.021 197.378 407.914C197.378 406.81 197.526 405.867 197.821 405.085C198.119 404.303 198.547 403.706 199.104 403.295C199.664 402.884 200.333 402.679 201.112 402.679C201.891 402.679 202.559 402.886 203.116 403.3C203.672 403.711 204.098 404.308 204.393 405.09C204.692 405.869 204.841 406.81 204.841 407.914C204.841 409.024 204.693 409.972 204.398 410.758C204.103 411.54 203.677 412.138 203.121 412.553C202.564 412.964 201.894 413.169 201.112 413.169ZM201.112 411.842C201.802 411.842 202.34 411.505 202.728 410.832C203.119 410.16 203.315 409.187 203.315 407.914C203.315 407.069 203.225 406.355 203.046 405.771C202.87 405.185 202.617 404.741 202.285 404.439C201.957 404.134 201.566 403.982 201.112 403.982C200.426 403.982 199.887 404.32 199.496 404.996C199.105 405.672 198.908 406.645 198.905 407.914C198.905 408.763 198.993 409.48 199.168 410.067C199.347 410.65 199.601 411.093 199.929 411.394C200.257 411.692 200.651 411.842 201.112 411.842ZM210.289 413.169C209.504 413.166 208.833 412.959 208.276 412.548C207.719 412.137 207.293 411.538 206.998 410.753C206.703 409.967 206.556 409.021 206.556 407.914C206.556 406.81 206.703 405.867 206.998 405.085C207.296 404.303 207.724 403.706 208.281 403.295C208.841 402.884 209.51 402.679 210.289 402.679C211.068 402.679 211.736 402.886 212.293 403.3C212.85 403.711 213.275 404.308 213.57 405.09C213.869 405.869 214.018 406.81 214.018 407.914C214.018 409.024 213.87 409.972 213.575 410.758C213.28 411.54 212.855 412.138 212.298 412.553C211.741 412.964 211.071 413.169 210.289 413.169ZM210.289 411.842C210.979 411.842 211.517 411.505 211.905 410.832C212.296 410.16 212.492 409.187 212.492 407.914C212.492 407.069 212.402 406.355 212.223 405.771C212.048 405.185 211.794 404.741 211.463 404.439C211.134 404.134 210.743 403.982 210.289 403.982C209.603 403.982 209.065 404.32 208.673 404.996C208.282 405.672 208.085 406.645 208.082 407.914C208.082 408.763 208.17 409.48 208.345 410.067C208.524 410.65 208.778 411.093 209.106 411.394C209.434 411.692 209.829 411.842 210.289 411.842Z" fill="#ADAFBD"/>
<path d="M345.979 413V411.886L349.425 408.317C349.793 407.929 350.096 407.589 350.335 407.298C350.576 407.003 350.757 406.723 350.876 406.457C350.996 406.192 351.055 405.911 351.055 405.612C351.055 405.274 350.976 404.982 350.817 404.737C350.658 404.489 350.441 404.298 350.165 404.165C349.89 404.03 349.58 403.962 349.236 403.962C348.871 403.962 348.553 404.036 348.281 404.185C348.009 404.335 347.801 404.545 347.655 404.817C347.509 405.089 347.436 405.407 347.436 405.771H345.969C345.969 405.152 346.112 404.61 346.397 404.146C346.682 403.682 347.073 403.322 347.57 403.067C348.067 402.808 348.633 402.679 349.266 402.679C349.905 402.679 350.469 402.807 350.956 403.062C351.446 403.314 351.829 403.658 352.104 404.096C352.379 404.53 352.517 405.021 352.517 405.567C352.517 405.945 352.446 406.315 352.303 406.676C352.164 407.037 351.92 407.44 351.572 407.884C351.224 408.325 350.741 408.86 350.121 409.49L348.097 411.608V411.683H352.681V413H345.979ZM358.568 402.818V413H357.027V404.359H356.967L354.531 405.95V404.479L357.072 402.818H358.568ZM362.462 411.737C362.19 411.737 361.956 411.641 361.761 411.449C361.565 411.253 361.467 411.018 361.467 410.743C361.467 410.471 361.565 410.239 361.761 410.047C361.956 409.851 362.19 409.754 362.462 409.754C362.734 409.754 362.967 409.851 363.163 410.047C363.358 410.239 363.456 410.471 363.456 410.743C363.456 410.925 363.41 411.093 363.317 411.245C363.227 411.394 363.108 411.513 362.959 411.603C362.81 411.692 362.644 411.737 362.462 411.737ZM362.462 406.636C362.19 406.636 361.956 406.54 361.761 406.348C361.565 406.152 361.467 405.917 361.467 405.642C361.467 405.37 361.565 405.138 361.761 404.946C361.956 404.75 362.19 404.653 362.462 404.653C362.734 404.653 362.967 404.75 363.163 404.946C363.358 405.138 363.456 405.37 363.456 405.642C363.456 405.824 363.41 405.992 363.317 406.144C363.227 406.293 363.108 406.413 362.959 406.502C362.81 406.592 362.644 406.636 362.462 406.636ZM369.112 413.169C368.327 413.166 367.655 412.959 367.099 412.548C366.542 412.137 366.116 411.538 365.821 410.753C365.526 409.967 365.378 409.021 365.378 407.914C365.378 406.81 365.526 405.867 365.821 405.085C366.119 404.303 366.547 403.706 367.104 403.295C367.664 402.884 368.333 402.679 369.112 402.679C369.891 402.679 370.559 402.886 371.116 403.3C371.672 403.711 372.098 404.308 372.393 405.09C372.692 405.869 372.841 406.81 372.841 407.914C372.841 409.024 372.693 409.972 372.398 410.758C372.103 411.54 371.677 412.138 371.121 412.553C370.564 412.964 369.894 413.169 369.112 413.169ZM369.112 411.842C369.802 411.842 370.34 411.505 370.728 410.832C371.119 410.16 371.315 409.187 371.315 407.914C371.315 407.069 371.225 406.355 371.046 405.771C370.87 405.185 370.617 404.741 370.285 404.439C369.957 404.134 369.566 403.982 369.112 403.982C368.426 403.982 367.887 404.32 367.496 404.996C367.105 405.672 366.908 406.645 366.905 407.914C366.905 408.763 366.993 409.48 367.168 410.067C367.347 410.65 367.601 411.093 367.929 411.394C368.257 411.692 368.651 411.842 369.112 411.842ZM378.289 413.169C377.504 413.166 376.833 412.959 376.276 412.548C375.719 412.137 375.293 411.538 374.998 410.753C374.703 409.967 374.556 409.021 374.556 407.914C374.556 406.81 374.703 405.867 374.998 405.085C375.296 404.303 375.724 403.706 376.281 403.295C376.841 402.884 377.51 402.679 378.289 402.679C379.068 402.679 379.736 402.886 380.293 403.3C380.85 403.711 381.275 404.308 381.57 405.09C381.869 405.869 382.018 406.81 382.018 407.914C382.018 409.024 381.87 409.972 381.575 410.758C381.28 411.54 380.855 412.138 380.298 412.553C379.741 412.964 379.071 413.169 378.289 413.169ZM378.289 411.842C378.979 411.842 379.517 411.505 379.905 410.832C380.296 410.16 380.492 409.187 380.492 407.914C380.492 407.069 380.402 406.355 380.223 405.771C380.048 405.185 379.794 404.741 379.463 404.439C379.134 404.134 378.743 403.982 378.289 403.982C377.603 403.982 377.065 404.32 376.673 404.996C376.282 405.672 376.085 406.645 376.082 407.914C376.082 408.763 376.17 409.48 376.345 410.067C376.524 410.65 376.778 411.093 377.106 411.394C377.434 411.692 377.829 411.842 378.289 411.842Z" fill="#ADAFBD"/>
<path d="M237.842 402.818V413H236.301V404.359H236.241L233.805 405.95V404.479L236.346 402.818H237.842ZM244.097 413.139C243.474 413.139 242.914 413.02 242.417 412.781C241.923 412.539 241.529 412.208 241.234 411.787C240.939 411.366 240.781 410.885 240.761 410.345H242.253C242.289 410.783 242.483 411.142 242.835 411.424C243.186 411.706 243.607 411.847 244.097 411.847C244.488 411.847 244.835 411.757 245.136 411.578C245.441 411.396 245.68 411.146 245.852 410.827C246.028 410.509 246.116 410.146 246.116 409.739C246.116 409.324 246.026 408.955 245.847 408.63C245.668 408.305 245.421 408.05 245.107 407.864C244.795 407.679 244.437 407.584 244.033 407.581C243.725 407.581 243.415 407.634 243.103 407.74C242.792 407.846 242.54 407.985 242.347 408.158L240.94 407.949L241.512 402.818H247.11V404.136H242.79L242.467 406.984H242.526C242.725 406.792 242.989 406.631 243.317 406.502C243.648 406.373 244.003 406.308 244.381 406.308C245.001 406.308 245.552 406.456 246.036 406.751C246.524 407.046 246.906 407.448 247.185 407.959C247.466 408.466 247.606 409.049 247.602 409.709C247.606 410.368 247.457 410.957 247.155 411.474C246.857 411.991 246.442 412.398 245.912 412.697C245.385 412.992 244.78 413.139 244.097 413.139ZM250.558 411.737C250.286 411.737 250.052 411.641 249.857 411.449C249.661 411.253 249.563 411.018 249.563 410.743C249.563 410.471 249.661 410.239 249.857 410.047C250.052 409.851 250.286 409.754 250.558 409.754C250.829 409.754 251.063 409.851 251.259 410.047C251.454 410.239 251.552 410.471 251.552 410.743C251.552 410.925 251.505 411.093 251.413 411.245C251.323 411.394 251.204 411.513 251.055 411.603C250.906 411.692 250.74 411.737 250.558 411.737ZM250.558 406.636C250.286 406.636 250.052 406.54 249.857 406.348C249.661 406.152 249.563 405.917 249.563 405.642C249.563 405.37 249.661 405.138 249.857 404.946C250.052 404.75 250.286 404.653 250.558 404.653C250.829 404.653 251.063 404.75 251.259 404.946C251.454 405.138 251.552 405.37 251.552 405.642C251.552 405.824 251.505 405.992 251.413 406.144C251.323 406.293 251.204 406.413 251.055 406.502C250.906 406.592 250.74 406.636 250.558 406.636ZM257.208 413.169C256.422 413.166 255.751 412.959 255.194 412.548C254.638 412.137 254.212 411.538 253.917 410.753C253.622 409.967 253.474 409.021 253.474 407.914C253.474 406.81 253.622 405.867 253.917 405.085C254.215 404.303 254.642 403.706 255.199 403.295C255.759 402.884 256.429 402.679 257.208 402.679C257.987 402.679 258.655 402.886 259.211 403.3C259.768 403.711 260.194 404.308 260.489 405.09C260.787 405.869 260.937 406.81 260.937 407.914C260.937 409.024 260.789 409.972 260.494 410.758C260.199 411.54 259.773 412.138 259.216 412.553C258.66 412.964 257.99 413.169 257.208 413.169ZM257.208 411.842C257.897 411.842 258.436 411.505 258.824 410.832C259.215 410.16 259.41 409.187 259.41 407.914C259.41 407.069 259.321 406.355 259.142 405.771C258.966 405.185 258.713 404.741 258.381 404.439C258.053 404.134 257.662 403.982 257.208 403.982C256.522 403.982 255.983 404.32 255.592 404.996C255.201 405.672 255.004 406.645 255 407.914C255 408.763 255.088 409.48 255.264 410.067C255.443 410.65 255.696 411.093 256.025 411.394C256.353 411.692 256.747 411.842 257.208 411.842ZM266.385 413.169C265.599 413.166 264.928 412.959 264.371 412.548C263.815 412.137 263.389 411.538 263.094 410.753C262.799 409.967 262.651 409.021 262.651 407.914C262.651 406.81 262.799 405.867 263.094 405.085C263.392 404.303 263.82 403.706 264.376 403.295C264.937 402.884 265.606 402.679 266.385 402.679C267.164 402.679 267.832 402.886 268.388 403.3C268.945 403.711 269.371 404.308 269.666 405.09C269.964 405.869 270.114 406.81 270.114 407.914C270.114 409.024 269.966 409.972 269.671 410.758C269.376 411.54 268.95 412.138 268.393 412.553C267.837 412.964 267.167 413.169 266.385 413.169ZM266.385 411.842C267.074 411.842 267.613 411.505 268.001 410.832C268.392 410.16 268.587 409.187 268.587 407.914C268.587 407.069 268.498 406.355 268.319 405.771C268.143 405.185 267.89 404.741 267.558 404.439C267.23 404.134 266.839 403.982 266.385 403.982C265.699 403.982 265.16 404.32 264.769 404.996C264.378 405.672 264.181 406.645 264.178 407.914C264.178 408.763 264.265 409.48 264.441 410.067C264.62 410.65 264.874 411.093 265.202 411.394C265.53 411.692 265.924 411.842 266.385 411.842Z" fill="#ADAFBD"/>
<path d="M403.524 413.169C402.739 413.166 402.067 412.959 401.511 412.548C400.954 412.137 400.528 411.538 400.233 410.753C399.938 409.967 399.79 409.021 399.79 407.914C399.79 406.81 399.938 405.867 400.233 405.085C400.531 404.303 400.959 403.706 401.516 403.295C402.076 402.884 402.745 402.679 403.524 402.679C404.303 402.679 404.971 402.886 405.528 403.3C406.085 403.711 406.51 404.308 406.805 405.09C407.104 405.869 407.253 406.81 407.253 407.914C407.253 409.024 407.105 409.972 406.81 410.758C406.515 411.54 406.089 412.138 405.533 412.553C404.976 412.964 404.306 413.169 403.524 413.169ZM403.524 411.842C404.214 411.842 404.752 411.505 405.14 410.832C405.531 410.16 405.727 409.187 405.727 407.914C405.727 407.069 405.637 406.355 405.458 405.771C405.282 405.185 405.029 404.741 404.697 404.439C404.369 404.134 403.978 403.982 403.524 403.982C402.838 403.982 402.299 404.32 401.908 404.996C401.517 405.672 401.32 406.645 401.317 407.914C401.317 408.763 401.405 409.48 401.58 410.067C401.759 410.65 402.013 411.093 402.341 411.394C402.669 411.692 403.063 411.842 403.524 411.842ZM412.701 413.169C411.916 413.166 411.245 412.959 410.688 412.548C410.131 412.137 409.705 411.538 409.41 410.753C409.115 409.967 408.968 409.021 408.968 407.914C408.968 406.81 409.115 405.867 409.41 405.085C409.708 404.303 410.136 403.706 410.693 403.295C411.253 402.884 411.922 402.679 412.701 402.679C413.48 402.679 414.148 402.886 414.705 403.3C415.262 403.711 415.688 404.308 415.983 405.09C416.281 405.869 416.43 406.81 416.43 407.914C416.43 409.024 416.282 409.972 415.987 410.758C415.692 411.54 415.267 412.138 414.71 412.553C414.153 412.964 413.483 413.169 412.701 413.169ZM412.701 411.842C413.391 411.842 413.929 411.505 414.317 410.832C414.708 410.16 414.904 409.187 414.904 407.914C414.904 407.069 414.814 406.355 414.635 405.771C414.46 405.185 414.206 404.741 413.875 404.439C413.546 404.134 413.155 403.982 412.701 403.982C412.015 403.982 411.477 404.32 411.085 404.996C410.694 405.672 410.497 406.645 410.494 407.914C410.494 408.763 410.582 409.48 410.757 410.067C410.936 410.65 411.19 411.093 411.518 411.394C411.846 411.692 412.241 411.842 412.701 411.842ZM419.333 411.737C419.061 411.737 418.827 411.641 418.632 411.449C418.436 411.253 418.339 411.018 418.339 410.743C418.339 410.471 418.436 410.239 418.632 410.047C418.827 409.851 419.061 409.754 419.333 409.754C419.605 409.754 419.838 409.851 420.034 410.047C420.229 410.239 420.327 410.471 420.327 410.743C420.327 410.925 420.281 411.093 420.188 411.245C420.099 411.394 419.979 411.513 419.83 411.603C419.681 411.692 419.515 411.737 419.333 411.737ZM419.333 406.636C419.061 406.636 418.827 406.54 418.632 406.348C418.436 406.152 418.339 405.917 418.339 405.642C418.339 405.37 418.436 405.138 418.632 404.946C418.827 404.75 419.061 404.653 419.333 404.653C419.605 404.653 419.838 404.75 420.034 404.946C420.229 405.138 420.327 405.37 420.327 405.642C420.327 405.824 420.281 405.992 420.188 406.144C420.099 406.293 419.979 406.413 419.83 406.502C419.681 406.592 419.515 406.636 419.333 406.636ZM425.983 413.169C425.198 413.166 424.527 412.959 423.97 412.548C423.413 412.137 422.987 411.538 422.692 410.753C422.397 409.967 422.25 409.021 422.25 407.914C422.25 406.81 422.397 405.867 422.692 405.085C422.99 404.303 423.418 403.706 423.975 403.295C424.535 402.884 425.204 402.679 425.983 402.679C426.762 402.679 427.43 402.886 427.987 403.3C428.544 403.711 428.969 404.308 429.264 405.09C429.563 405.869 429.712 406.81 429.712 407.914C429.712 409.024 429.564 409.972 429.269 410.758C428.974 411.54 428.549 412.138 427.992 412.553C427.435 412.964 426.765 413.169 425.983 413.169ZM425.983 411.842C426.673 411.842 427.211 411.505 427.599 410.832C427.99 410.16 428.186 409.187 428.186 407.914C428.186 407.069 428.096 406.355 427.917 405.771C427.741 405.185 427.488 404.741 427.157 404.439C426.828 404.134 426.437 403.982 425.983 403.982C425.297 403.982 424.759 404.32 424.367 404.996C423.976 405.672 423.779 406.645 423.776 407.914C423.776 408.763 423.864 409.48 424.039 410.067C424.218 410.65 424.472 411.093 424.8 411.394C425.128 411.692 425.523 411.842 425.983 411.842ZM435.16 413.169C434.375 413.166 433.704 412.959 433.147 412.548C432.59 412.137 432.164 411.538 431.869 410.753C431.574 409.967 431.427 409.021 431.427 407.914C431.427 406.81 431.574 405.867 431.869 405.085C432.167 404.303 432.595 403.706 433.152 403.295C433.712 402.884 434.381 402.679 435.16 402.679C435.939 402.679 436.607 402.886 437.164 403.3C437.721 403.711 438.147 404.308 438.442 405.09C438.74 405.869 438.889 406.81 438.889 407.914C438.889 409.024 438.742 409.972 438.447 410.758C438.152 411.54 437.726 412.138 437.169 412.553C436.612 412.964 435.943 413.169 435.16 413.169ZM435.16 411.842C435.85 411.842 436.388 411.505 436.776 410.832C437.167 410.16 437.363 409.187 437.363 407.914C437.363 407.069 437.273 406.355 437.094 405.771C436.919 405.185 436.665 404.741 436.334 404.439C436.005 404.134 435.614 403.982 435.16 403.982C434.474 403.982 433.936 404.32 433.545 404.996C433.153 405.672 432.956 406.645 432.953 407.914C432.953 408.763 433.041 409.48 433.216 410.067C433.395 410.65 433.649 411.093 433.977 411.394C434.305 411.692 434.7 411.842 435.16 411.842Z" fill="#ADAFBD"/>
<rect opacity="0.04" x="340" y="211" width="48" height="176" fill="url(#paint0_linear_1_4465)"/>
<path opacity="0.04" d="M116 211H164V387H116V211Z" fill="url(#paint1_linear_1_4465)"/>
<rect opacity="0.04" x="172" y="211" width="48" height="176" fill="url(#paint2_linear_1_4465)"/>
<line x1="228" y1="385" x2="276" y2="385" stroke="url(#paint3_linear_1_4465)" stroke-width="4"/>
<rect opacity="0.16" x="228" y="211" width="48" height="176" fill="url(#paint4_linear_1_4465)"/>
<rect opacity="0.04" x="284" y="211" width="48" height="176" fill="url(#paint5_linear_1_4465)"/>
<path opacity="0.04" d="M396 211H444V387H396V211Z" fill="url(#paint6_linear_1_4465)"/>
<path d="M117 312.128C130.727 268.99 164.792 199.636 191.23 267.33C224.277 351.949 259.867 224.523 295.456 283.259C331.046 341.994 344.265 329.052 363.585 303.169C382.905 277.286 408.326 261.357 426.629 296.2C441.272 324.075 447.644 324.406 449 321.088" stroke="url(#paint7_linear_1_4465)" stroke-linecap="round"/>
<path opacity="0.1" d="M125 312.128C138.727 268.99 172.792 199.636 199.23 267.33C232.277 351.949 267.867 224.523 303.456 283.259C339.046 341.994 352.265 329.052 371.585 303.169C390.905 277.286 416.326 261.357 434.629 296.2C449.272 324.075 455.644 324.406 457 321.088" stroke="url(#paint8_linear_1_4465)" stroke-linecap="round"/>
<circle cx="252" cy="276" r="5" fill="url(#paint9_linear_1_4465)"/>
<g filter="url(#filter3_d_1_4465)">
<rect x="212" y="227" width="80" height="32" rx="16" fill="white"/>
</g>
<path d="M230.849 237.818L233.286 243.307L232.167 243.938L229.199 237.818H230.849ZM232.51 243.292L234.936 237.818H236.587L233.619 243.938L232.51 243.292ZM233.648 242.646V248H232.117V242.646H233.648ZM235.806 242.869V243.874H229.91V242.869H235.806ZM235.806 244.838V245.842H229.91V244.838H235.806ZM241.762 237.818V248H240.22V239.359H240.161L237.725 240.95V239.479L240.265 237.818H241.762ZM248.017 248.139C247.394 248.139 246.833 248.02 246.336 247.781C245.842 247.539 245.448 247.208 245.153 246.787C244.858 246.366 244.701 245.885 244.681 245.345H246.172C246.209 245.783 246.403 246.142 246.754 246.424C247.105 246.706 247.526 246.847 248.017 246.847C248.408 246.847 248.754 246.757 249.056 246.578C249.361 246.396 249.599 246.146 249.772 245.827C249.947 245.509 250.035 245.146 250.035 244.739C250.035 244.324 249.946 243.955 249.767 243.63C249.588 243.305 249.341 243.05 249.026 242.864C248.714 242.679 248.356 242.584 247.952 242.581C247.644 242.581 247.334 242.634 247.022 242.74C246.711 242.846 246.459 242.985 246.267 243.158L244.86 242.949L245.431 237.818H251.029V239.136H246.709L246.386 241.984H246.446C246.645 241.792 246.908 241.631 247.236 241.502C247.568 241.373 247.922 241.308 248.3 241.308C248.92 241.308 249.472 241.456 249.956 241.751C250.443 242.046 250.826 242.448 251.104 242.959C251.386 243.466 251.525 244.049 251.522 244.709C251.525 245.368 251.376 245.957 251.074 246.474C250.776 246.991 250.362 247.398 249.831 247.697C249.304 247.992 248.699 248.139 248.017 248.139ZM254.121 248.094C253.85 248.094 253.616 247.998 253.42 247.806C253.225 247.611 253.127 247.375 253.127 247.1C253.127 246.828 253.225 246.596 253.42 246.404C253.616 246.209 253.85 246.111 254.121 246.111C254.393 246.111 254.627 246.209 254.822 246.404C255.018 246.596 255.116 246.828 255.116 247.1C255.116 247.282 255.069 247.45 254.976 247.602C254.887 247.751 254.768 247.871 254.619 247.96C254.469 248.05 254.304 248.094 254.121 248.094ZM257.227 248V246.886L260.672 243.317C261.04 242.929 261.343 242.589 261.582 242.298C261.824 242.003 262.005 241.723 262.124 241.457C262.243 241.192 262.303 240.911 262.303 240.612C262.303 240.274 262.223 239.982 262.064 239.737C261.905 239.489 261.688 239.298 261.413 239.165C261.138 239.03 260.828 238.962 260.483 238.962C260.119 238.962 259.801 239.036 259.529 239.185C259.257 239.335 259.048 239.545 258.902 239.817C258.756 240.089 258.684 240.407 258.684 240.771H257.217C257.217 240.152 257.359 239.61 257.645 239.146C257.93 238.682 258.321 238.322 258.818 238.067C259.315 237.808 259.88 237.679 260.513 237.679C261.153 237.679 261.716 237.807 262.203 238.062C262.694 238.314 263.077 238.658 263.352 239.096C263.627 239.53 263.765 240.021 263.765 240.567C263.765 240.945 263.693 241.315 263.551 241.676C263.412 242.037 263.168 242.44 262.82 242.884C262.472 243.325 261.988 243.86 261.368 244.49L259.345 246.608V246.683H263.929V248H257.227ZM269.498 248.139C268.815 248.139 268.205 248.022 267.668 247.786C267.134 247.551 266.712 247.224 266.4 246.807C266.092 246.386 265.926 245.899 265.903 245.345H267.464C267.484 245.647 267.585 245.909 267.767 246.131C267.953 246.349 268.195 246.518 268.493 246.638C268.792 246.757 269.123 246.817 269.488 246.817C269.889 246.817 270.243 246.747 270.552 246.608C270.863 246.469 271.107 246.275 271.282 246.026C271.458 245.774 271.546 245.484 271.546 245.156C271.546 244.815 271.458 244.515 271.282 244.256C271.11 243.995 270.856 243.789 270.522 243.64C270.19 243.491 269.789 243.416 269.319 243.416H268.459V242.163H269.319C269.696 242.163 270.028 242.095 270.313 241.96C270.601 241.824 270.827 241.635 270.989 241.393C271.151 241.147 271.233 240.861 271.233 240.533C271.233 240.218 271.161 239.944 271.019 239.712C270.88 239.477 270.681 239.293 270.422 239.161C270.167 239.028 269.865 238.962 269.517 238.962C269.186 238.962 268.876 239.023 268.588 239.146C268.303 239.265 268.071 239.437 267.892 239.663C267.713 239.885 267.617 240.152 267.603 240.463H266.117C266.133 239.913 266.296 239.429 266.604 239.011C266.916 238.594 267.327 238.267 267.837 238.032C268.347 237.797 268.914 237.679 269.537 237.679C270.19 237.679 270.754 237.807 271.228 238.062C271.705 238.314 272.073 238.65 272.331 239.071C272.593 239.492 272.722 239.953 272.719 240.453C272.722 241.023 272.563 241.507 272.242 241.905C271.924 242.303 271.499 242.569 270.969 242.705V242.785C271.645 242.888 272.169 243.156 272.54 243.59C272.915 244.024 273.1 244.563 273.097 245.206C273.1 245.766 272.945 246.268 272.63 246.712C272.318 247.156 271.892 247.506 271.352 247.761C270.812 248.013 270.194 248.139 269.498 248.139Z" fill="#ADAFBD"/>
<rect x="444" y="310" width="19" height="22" fill="white"/>
<g opacity="0.24" filter="url(#filter4_f_1_4465)">
<rect x="132" y="175" width="48" height="24" rx="12" fill="url(#paint10_linear_1_4465)"/>
</g>
<g filter="url(#filter5_d_1_4465)">
<rect x="116" y="163" width="80" height="32" rx="16" fill="url(#paint11_linear_1_4465)"/>
</g>
<path d="M146.415 184H143.119V173.818H146.519C147.517 173.818 148.374 174.022 149.089 174.43C149.805 174.834 150.354 175.416 150.735 176.175C151.12 176.93 151.312 177.837 151.312 178.894C151.312 179.955 151.118 180.866 150.73 181.629C150.346 182.391 149.789 182.978 149.06 183.388C148.33 183.796 147.449 184 146.415 184ZM144.655 182.658H146.33C147.106 182.658 147.75 182.512 148.264 182.22C148.778 181.925 149.162 181.499 149.418 180.942C149.673 180.382 149.8 179.7 149.8 178.894C149.8 178.095 149.673 177.418 149.418 176.861C149.166 176.304 148.79 175.881 148.289 175.593C147.789 175.305 147.167 175.161 146.425 175.161H144.655V182.658ZM155.465 184.169C154.981 184.169 154.544 184.08 154.153 183.901C153.762 183.718 153.452 183.455 153.223 183.11C152.998 182.765 152.885 182.343 152.885 181.842C152.885 181.411 152.968 181.057 153.133 180.778C153.299 180.5 153.523 180.28 153.805 180.117C154.086 179.955 154.401 179.832 154.749 179.749C155.097 179.666 155.452 179.603 155.813 179.56C156.271 179.507 156.642 179.464 156.927 179.431C157.212 179.395 157.419 179.337 157.548 179.257C157.677 179.178 157.742 179.048 157.742 178.869V178.835C157.742 178.4 157.619 178.064 157.374 177.825C157.132 177.587 156.771 177.467 156.29 177.467C155.79 177.467 155.396 177.578 155.107 177.8C154.822 178.019 154.625 178.263 154.516 178.531L153.119 178.213C153.284 177.749 153.526 177.375 153.844 177.089C154.166 176.801 154.535 176.592 154.953 176.463C155.371 176.33 155.81 176.264 156.271 176.264C156.575 176.264 156.899 176.301 157.24 176.374C157.585 176.443 157.906 176.572 158.204 176.761C158.506 176.95 158.753 177.22 158.945 177.572C159.137 177.92 159.234 178.372 159.234 178.929V184H157.782V182.956H157.722C157.626 183.148 157.482 183.337 157.29 183.523C157.097 183.708 156.851 183.862 156.549 183.985C156.247 184.108 155.886 184.169 155.465 184.169ZM155.788 182.976C156.199 182.976 156.551 182.895 156.842 182.732C157.137 182.57 157.361 182.358 157.513 182.096C157.669 181.831 157.747 181.547 157.747 181.246V180.261C157.694 180.314 157.591 180.364 157.439 180.411C157.29 180.454 157.119 180.492 156.927 180.525C156.735 180.555 156.547 180.583 156.365 180.609C156.183 180.633 156.03 180.652 155.908 180.669C155.619 180.705 155.356 180.767 155.117 180.853C154.882 180.939 154.693 181.063 154.55 181.226C154.411 181.385 154.342 181.597 154.342 181.862C154.342 182.23 154.477 182.509 154.749 182.697C155.021 182.883 155.367 182.976 155.788 182.976ZM162.02 186.844C161.798 186.844 161.595 186.826 161.413 186.789C161.231 186.756 161.095 186.719 161.005 186.68L161.363 185.462C161.771 185.574 162.113 185.583 162.388 185.487C162.666 185.394 162.9 185.1 163.089 184.607L163.273 184.099L160.479 176.364H162.069L164.003 182.29H164.083L166.017 176.364L167.623 176.379L164.466 185.019C164.32 185.414 164.134 185.747 163.909 186.018C163.684 186.29 163.415 186.496 163.104 186.635C162.792 186.774 162.431 186.844 162.02 186.844Z" fill="white"/>
<rect x="208" y="163" width="80" height="32" rx="16" fill="#FBFBFB"/>
<path d="M232.112 184L229.288 173.818H230.904L232.888 181.703H232.982L235.045 173.818H236.646L238.71 181.708H238.804L240.783 173.818H242.403L239.575 184H238.028L235.886 176.374H235.806L233.663 184H232.112ZM246.364 184.154C245.612 184.154 244.964 183.993 244.42 183.672C243.88 183.347 243.462 182.891 243.167 182.305C242.876 181.715 242.73 181.024 242.73 180.232C242.73 179.449 242.876 178.76 243.167 178.163C243.462 177.567 243.873 177.101 244.4 176.766C244.931 176.432 245.55 176.264 246.26 176.264C246.691 176.264 247.108 176.335 247.513 176.478C247.917 176.621 248.28 176.844 248.601 177.149C248.923 177.454 249.176 177.85 249.362 178.337C249.548 178.821 249.64 179.41 249.64 180.102V180.629H243.57V179.516H248.184C248.184 179.125 248.104 178.778 247.945 178.477C247.786 178.172 247.562 177.931 247.274 177.756C246.989 177.58 246.654 177.492 246.27 177.492C245.852 177.492 245.487 177.595 245.176 177.8C244.868 178.003 244.629 178.268 244.46 178.596C244.294 178.921 244.211 179.274 244.211 179.655V180.525C244.211 181.035 244.301 181.469 244.48 181.827C244.662 182.185 244.916 182.459 245.24 182.648C245.565 182.833 245.945 182.926 246.379 182.926C246.661 182.926 246.918 182.886 247.15 182.807C247.382 182.724 247.582 182.601 247.751 182.439C247.92 182.277 248.049 182.076 248.139 181.837L249.546 182.091C249.433 182.505 249.231 182.868 248.939 183.18C248.651 183.488 248.288 183.728 247.851 183.901C247.416 184.07 246.921 184.154 246.364 184.154ZM254.721 184.154C253.969 184.154 253.321 183.993 252.777 183.672C252.237 183.347 251.819 182.891 251.524 182.305C251.232 181.715 251.087 181.024 251.087 180.232C251.087 179.449 251.232 178.76 251.524 178.163C251.819 177.567 252.23 177.101 252.757 176.766C253.287 176.432 253.907 176.264 254.616 176.264C255.047 176.264 255.465 176.335 255.869 176.478C256.274 176.621 256.637 176.844 256.958 177.149C257.28 177.454 257.533 177.85 257.719 178.337C257.904 178.821 257.997 179.41 257.997 180.102V180.629H251.927V179.516H256.54C256.54 179.125 256.461 178.778 256.302 178.477C256.143 178.172 255.919 177.931 255.631 177.756C255.346 177.58 255.011 177.492 254.626 177.492C254.209 177.492 253.844 177.595 253.533 177.8C253.224 178.003 252.986 178.268 252.817 178.596C252.651 178.921 252.568 179.274 252.568 179.655V180.525C252.568 181.035 252.658 181.469 252.837 181.827C253.019 182.185 253.272 182.459 253.597 182.648C253.922 182.833 254.302 182.926 254.736 182.926C255.018 182.926 255.274 182.886 255.506 182.807C255.738 182.724 255.939 182.601 256.108 182.439C256.277 182.277 256.406 182.076 256.496 181.837L257.903 182.091C257.79 182.505 257.588 182.868 257.296 183.18C257.008 183.488 256.645 183.728 256.207 183.901C255.773 184.07 255.278 184.154 254.721 184.154ZM261.154 181.41L261.144 179.595H261.402L264.445 176.364H266.225L262.755 180.043H262.521L261.154 181.41ZM259.786 184V173.818H261.273V184H259.786ZM264.609 184L261.875 180.371L262.899 179.332L266.433 184H264.609Z" fill="#ADAFBD"/>
<rect x="300" y="163" width="80" height="32" rx="16" fill="#FBFBFB"/>
<path d="M319.119 173.818H320.983L324.224 181.733H324.344L327.585 173.818H329.45V184H327.988V176.632H327.893L324.891 183.985H323.678L320.675 176.627H320.58V184H319.119V173.818ZM334.92 184.154C334.204 184.154 333.58 183.99 333.046 183.662C332.512 183.334 332.098 182.875 331.803 182.285C331.508 181.695 331.361 181.005 331.361 180.217C331.361 179.424 331.508 178.732 331.803 178.138C332.098 177.545 332.512 177.085 333.046 176.756C333.58 176.428 334.204 176.264 334.92 176.264C335.636 176.264 336.261 176.428 336.795 176.756C337.328 177.085 337.743 177.545 338.038 178.138C338.333 178.732 338.48 179.424 338.48 180.217C338.48 181.005 338.333 181.695 338.038 182.285C337.743 182.875 337.328 183.334 336.795 183.662C336.261 183.99 335.636 184.154 334.92 184.154ZM334.925 182.906C335.389 182.906 335.774 182.784 336.079 182.538C336.384 182.293 336.609 181.967 336.755 181.559C336.904 181.151 336.979 180.702 336.979 180.212C336.979 179.724 336.904 179.277 336.755 178.869C336.609 178.458 336.384 178.129 336.079 177.88C335.774 177.631 335.389 177.507 334.925 177.507C334.458 177.507 334.07 177.631 333.762 177.88C333.457 178.129 333.23 178.458 333.081 178.869C332.935 179.277 332.862 179.724 332.862 180.212C332.862 180.702 332.935 181.151 333.081 181.559C333.23 181.967 333.457 182.293 333.762 182.538C334.07 182.784 334.458 182.906 334.925 182.906ZM341.766 179.466V184H340.279V176.364H341.706V177.607H341.801C341.976 177.202 342.251 176.877 342.626 176.632C343.004 176.387 343.479 176.264 344.053 176.264C344.573 176.264 345.029 176.374 345.42 176.592C345.811 176.808 346.114 177.129 346.33 177.557C346.545 177.984 346.653 178.513 346.653 179.143V184H345.166V179.322C345.166 178.768 345.022 178.336 344.734 178.024C344.445 177.709 344.049 177.552 343.546 177.552C343.201 177.552 342.894 177.626 342.626 177.776C342.361 177.925 342.15 178.143 341.994 178.432C341.842 178.717 341.766 179.062 341.766 179.466ZM352.351 176.364V177.557H348.18V176.364H352.351ZM349.299 174.534H350.785V181.758C350.785 182.046 350.828 182.263 350.914 182.409C351 182.552 351.112 182.649 351.247 182.702C351.387 182.752 351.537 182.777 351.7 182.777C351.819 182.777 351.924 182.769 352.013 182.752C352.103 182.736 352.172 182.722 352.222 182.712L352.49 183.94C352.404 183.973 352.282 184.007 352.122 184.04C351.963 184.076 351.764 184.096 351.526 184.099C351.135 184.106 350.77 184.036 350.432 183.891C350.094 183.745 349.821 183.519 349.612 183.214C349.403 182.91 349.299 182.527 349.299 182.066V174.534ZM355.786 179.466V184H354.3V173.818H355.766V177.607H355.861C356.04 177.196 356.313 176.869 356.681 176.627C357.049 176.385 357.529 176.264 358.123 176.264C358.646 176.264 359.104 176.372 359.495 176.587C359.889 176.803 360.194 177.124 360.41 177.552C360.628 177.976 360.738 178.506 360.738 179.143V184H359.251V179.322C359.251 178.762 359.107 178.327 358.819 178.019C358.53 177.708 358.129 177.552 357.616 177.552C357.264 177.552 356.949 177.626 356.671 177.776C356.396 177.925 356.179 178.143 356.02 178.432C355.864 178.717 355.786 179.062 355.786 179.466Z" fill="#ADAFBD"/>
<rect x="392" y="163" width="80" height="32" rx="16" fill="#FBFBFB"/>
<path d="M416.333 173.818H418.078L420.738 178.447H420.847L423.507 173.818H425.252L421.558 180.003V184H420.027V180.003L416.333 173.818ZM428.77 184.154C428.018 184.154 427.37 183.993 426.826 183.672C426.286 183.347 425.869 182.891 425.574 182.305C425.282 181.715 425.136 181.024 425.136 180.232C425.136 179.449 425.282 178.76 425.574 178.163C425.869 177.567 426.28 177.101 426.807 176.766C427.337 176.432 427.957 176.264 428.666 176.264C429.097 176.264 429.514 176.335 429.919 176.478C430.323 176.621 430.686 176.844 431.008 177.149C431.329 177.454 431.583 177.85 431.768 178.337C431.954 178.821 432.047 179.41 432.047 180.102V180.629H425.976V179.516H430.59C430.59 179.125 430.51 178.778 430.351 178.477C430.192 178.172 429.968 177.931 429.68 177.756C429.395 177.58 429.06 177.492 428.676 177.492C428.258 177.492 427.894 177.595 427.582 177.8C427.274 178.003 427.035 178.268 426.866 178.596C426.7 178.921 426.618 179.274 426.618 179.655V180.525C426.618 181.035 426.707 181.469 426.886 181.827C427.068 182.185 427.322 182.459 427.647 182.648C427.972 182.833 428.351 182.926 428.785 182.926C429.067 182.926 429.324 182.886 429.556 182.807C429.788 182.724 429.988 182.601 430.157 182.439C430.326 182.277 430.456 182.076 430.545 181.837L431.952 182.091C431.839 182.505 431.637 182.868 431.346 183.18C431.057 183.488 430.694 183.728 430.257 183.901C429.823 184.07 429.327 184.154 428.77 184.154ZM436.058 184.169C435.574 184.169 435.137 184.08 434.746 183.901C434.355 183.718 434.045 183.455 433.816 183.11C433.591 182.765 433.478 182.343 433.478 181.842C433.478 181.411 433.561 181.057 433.727 180.778C433.892 180.5 434.116 180.28 434.398 180.117C434.679 179.955 434.994 179.832 435.342 179.749C435.69 179.666 436.045 179.603 436.406 179.56C436.864 179.507 437.235 179.464 437.52 179.431C437.805 179.395 438.012 179.337 438.141 179.257C438.271 179.178 438.335 179.048 438.335 178.869V178.835C438.335 178.4 438.213 178.064 437.967 177.825C437.725 177.587 437.364 177.467 436.884 177.467C436.383 177.467 435.989 177.578 435.7 177.8C435.415 178.019 435.218 178.263 435.109 178.531L433.712 178.213C433.877 177.749 434.119 177.375 434.437 177.089C434.759 176.801 435.129 176.592 435.546 176.463C435.964 176.33 436.403 176.264 436.864 176.264C437.169 176.264 437.492 176.301 437.833 176.374C438.178 176.443 438.499 176.572 438.798 176.761C439.099 176.95 439.346 177.22 439.538 177.572C439.731 177.92 439.827 178.372 439.827 178.929V184H438.375V182.956H438.315C438.219 183.148 438.075 183.337 437.883 183.523C437.691 183.708 437.444 183.862 437.142 183.985C436.84 184.108 436.479 184.169 436.058 184.169ZM436.381 182.976C436.792 182.976 437.144 182.895 437.435 182.732C437.73 182.57 437.954 182.358 438.107 182.096C438.262 181.831 438.34 181.547 438.34 181.246V180.261C438.287 180.314 438.184 180.364 438.032 180.411C437.883 180.454 437.712 180.492 437.52 180.525C437.328 180.555 437.14 180.583 436.958 180.609C436.776 180.633 436.623 180.652 436.501 180.669C436.212 180.705 435.949 180.767 435.71 180.853C435.475 180.939 435.286 181.063 435.143 181.226C435.004 181.385 434.935 181.597 434.935 181.862C434.935 182.23 435.071 182.509 435.342 182.697C435.614 182.883 435.96 182.976 436.381 182.976ZM441.947 184V176.364H443.383V177.577H443.463C443.602 177.166 443.847 176.843 444.199 176.607C444.553 176.369 444.954 176.249 445.402 176.249C445.495 176.249 445.604 176.253 445.73 176.259C445.859 176.266 445.96 176.274 446.033 176.284V177.706C445.974 177.689 445.868 177.671 445.715 177.651C445.563 177.628 445.41 177.616 445.258 177.616C444.906 177.616 444.593 177.691 444.318 177.84C444.046 177.986 443.831 178.19 443.672 178.452C443.513 178.71 443.433 179.005 443.433 179.337V184H441.947Z" fill="#ADAFBD"/>
<rect x="392" y="151" width="75" height="56" fill="url(#paint12_linear_1_4465)"/>
<path d="M120.526 141H116.571L122.597 123.545H127.352L133.369 141H129.415L125.043 127.534H124.906L120.526 141ZM120.278 134.139H129.619V137.02H120.278V134.139ZM139.273 123.545V141H135.642V123.545H139.273ZM146.052 123.545V141H142.421V123.545H146.052ZM164.532 128.565C164.464 127.878 164.171 127.344 163.654 126.963C163.137 126.582 162.435 126.392 161.549 126.392C160.947 126.392 160.438 126.477 160.023 126.648C159.608 126.812 159.29 127.043 159.069 127.338C158.853 127.634 158.745 127.969 158.745 128.344C158.733 128.656 158.799 128.929 158.941 129.162C159.089 129.395 159.29 129.597 159.546 129.767C159.802 129.932 160.097 130.077 160.432 130.202C160.768 130.321 161.125 130.423 161.506 130.509L163.074 130.884C163.836 131.054 164.535 131.281 165.171 131.565C165.807 131.849 166.358 132.199 166.824 132.614C167.29 133.028 167.651 133.517 167.907 134.08C168.168 134.642 168.302 135.287 168.307 136.014C168.302 137.082 168.029 138.009 167.489 138.793C166.955 139.571 166.182 140.176 165.171 140.608C164.165 141.034 162.952 141.247 161.532 141.247C160.123 141.247 158.895 141.031 157.85 140.599C156.81 140.168 155.998 139.528 155.412 138.682C154.833 137.83 154.529 136.776 154.5 135.52H158.072C158.111 136.105 158.279 136.594 158.574 136.986C158.875 137.372 159.276 137.665 159.776 137.864C160.282 138.057 160.853 138.153 161.489 138.153C162.114 138.153 162.657 138.062 163.117 137.881C163.583 137.699 163.944 137.446 164.199 137.122C164.455 136.798 164.583 136.426 164.583 136.006C164.583 135.614 164.466 135.284 164.233 135.017C164.006 134.75 163.671 134.523 163.228 134.335C162.79 134.148 162.253 133.977 161.617 133.824L159.716 133.347C158.245 132.989 157.083 132.429 156.231 131.668C155.378 130.906 154.955 129.881 154.961 128.591C154.955 127.534 155.236 126.611 155.804 125.821C156.378 125.031 157.165 124.415 158.165 123.972C159.165 123.528 160.302 123.307 161.574 123.307C162.87 123.307 164 123.528 164.966 123.972C165.938 124.415 166.694 125.031 167.233 125.821C167.773 126.611 168.052 127.526 168.069 128.565H164.532ZM177.924 127.909V130.636H170.041V127.909H177.924ZM171.831 124.773H175.461V136.977C175.461 137.312 175.513 137.574 175.615 137.761C175.717 137.943 175.859 138.071 176.041 138.145C176.228 138.219 176.444 138.256 176.689 138.256C176.859 138.256 177.03 138.241 177.2 138.213C177.37 138.179 177.501 138.153 177.592 138.136L178.163 140.838C177.981 140.895 177.726 140.96 177.396 141.034C177.066 141.114 176.666 141.162 176.194 141.179C175.319 141.213 174.552 141.097 173.893 140.83C173.24 140.562 172.731 140.148 172.368 139.585C172.004 139.023 171.825 138.312 171.831 137.455V124.773ZM184.262 141.247C183.427 141.247 182.683 141.102 182.029 140.812C181.376 140.517 180.859 140.082 180.478 139.509C180.103 138.929 179.916 138.207 179.916 137.344C179.916 136.616 180.049 136.006 180.316 135.511C180.583 135.017 180.947 134.619 181.407 134.318C181.868 134.017 182.39 133.79 182.976 133.636C183.566 133.483 184.186 133.375 184.833 133.312C185.595 133.233 186.208 133.159 186.674 133.091C187.14 133.017 187.478 132.909 187.689 132.767C187.899 132.625 188.004 132.415 188.004 132.136V132.085C188.004 131.545 187.833 131.128 187.493 130.832C187.157 130.537 186.68 130.389 186.061 130.389C185.407 130.389 184.887 130.534 184.501 130.824C184.115 131.108 183.859 131.466 183.734 131.898L180.376 131.625C180.547 130.83 180.882 130.142 181.382 129.562C181.882 128.977 182.527 128.528 183.316 128.216C184.112 127.898 185.032 127.739 186.078 127.739C186.805 127.739 187.501 127.824 188.166 127.994C188.836 128.165 189.43 128.429 189.947 128.787C190.47 129.145 190.882 129.605 191.183 130.168C191.484 130.724 191.635 131.392 191.635 132.17V141H188.191V139.185H188.089C187.879 139.594 187.598 139.955 187.245 140.267C186.893 140.574 186.47 140.815 185.976 140.991C185.481 141.162 184.91 141.247 184.262 141.247ZM185.302 138.741C185.836 138.741 186.308 138.636 186.717 138.426C187.126 138.21 187.447 137.92 187.68 137.557C187.913 137.193 188.029 136.781 188.029 136.321V134.932C187.916 135.006 187.76 135.074 187.561 135.136C187.368 135.193 187.149 135.247 186.904 135.298C186.66 135.344 186.416 135.386 186.172 135.426C185.927 135.46 185.706 135.491 185.507 135.52C185.081 135.582 184.708 135.682 184.39 135.818C184.072 135.955 183.825 136.139 183.649 136.372C183.473 136.599 183.385 136.884 183.385 137.224C183.385 137.719 183.564 138.097 183.922 138.358C184.285 138.614 184.745 138.741 185.302 138.741ZM201.654 127.909V130.636H193.771V127.909H201.654ZM195.561 124.773H199.191V136.977C199.191 137.312 199.243 137.574 199.345 137.761C199.447 137.943 199.589 138.071 199.771 138.145C199.958 138.219 200.174 138.256 200.419 138.256C200.589 138.256 200.76 138.241 200.93 138.213C201.1 138.179 201.231 138.153 201.322 138.136L201.893 140.838C201.711 140.895 201.456 140.96 201.126 141.034C200.796 141.114 200.396 141.162 199.924 141.179C199.049 141.213 198.282 141.097 197.623 140.83C196.97 140.562 196.461 140.148 196.098 139.585C195.734 139.023 195.555 138.312 195.561 137.455V124.773ZM204.259 141V127.909H207.89V141H204.259ZM206.092 126.222C205.552 126.222 205.089 126.043 204.703 125.685C204.316 125.321 204.123 124.886 204.123 124.381C204.123 123.881 204.316 123.452 204.703 123.094C205.089 122.73 205.549 122.548 206.083 122.548C206.629 122.548 207.092 122.73 207.473 123.094C207.859 123.452 208.052 123.881 208.052 124.381C208.052 124.886 207.859 125.321 207.473 125.685C207.092 126.043 206.632 126.222 206.092 126.222ZM221.931 131.642L218.607 131.847C218.55 131.562 218.428 131.307 218.24 131.08C218.053 130.847 217.806 130.662 217.499 130.526C217.198 130.384 216.837 130.312 216.416 130.312C215.854 130.312 215.379 130.432 214.993 130.67C214.607 130.903 214.414 131.216 214.414 131.608C214.414 131.92 214.539 132.185 214.789 132.401C215.039 132.616 215.468 132.79 216.075 132.92L218.445 133.398C219.718 133.659 220.666 134.08 221.291 134.659C221.916 135.239 222.229 136 222.229 136.943C222.229 137.801 221.976 138.554 221.47 139.202C220.97 139.849 220.283 140.355 219.408 140.719C218.539 141.077 217.536 141.256 216.399 141.256C214.666 141.256 213.286 140.895 212.257 140.173C211.235 139.446 210.635 138.457 210.459 137.207L214.03 137.02C214.138 137.548 214.399 137.952 214.814 138.23C215.229 138.503 215.76 138.639 216.408 138.639C217.044 138.639 217.556 138.517 217.942 138.273C218.334 138.023 218.533 137.702 218.539 137.31C218.533 136.98 218.394 136.71 218.121 136.5C217.848 136.284 217.428 136.119 216.86 136.006L214.593 135.554C213.314 135.298 212.362 134.855 211.737 134.224C211.118 133.594 210.808 132.79 210.808 131.812C210.808 130.972 211.036 130.247 211.49 129.639C211.95 129.031 212.595 128.562 213.425 128.233C214.26 127.903 215.237 127.739 216.357 127.739C218.01 127.739 219.311 128.088 220.26 128.787C221.215 129.486 221.772 130.437 221.931 131.642ZM231.718 127.909V130.636H223.835V127.909H231.718ZM225.624 124.773H229.255V136.977C229.255 137.312 229.306 137.574 229.409 137.761C229.511 137.943 229.653 138.071 229.835 138.145C230.022 138.219 230.238 138.256 230.482 138.256C230.653 138.256 230.823 138.241 230.994 138.213C231.164 138.179 231.295 138.153 231.386 138.136L231.957 140.838C231.775 140.895 231.519 140.96 231.19 141.034C230.86 141.114 230.46 141.162 229.988 141.179C229.113 141.213 228.346 141.097 227.687 140.83C227.034 140.562 226.525 140.148 226.161 139.585C225.798 139.023 225.619 138.312 225.624 137.455V124.773ZM234.323 141V127.909H237.954V141H234.323ZM236.156 126.222C235.616 126.222 235.153 126.043 234.766 125.685C234.38 125.321 234.187 124.886 234.187 124.381C234.187 123.881 234.38 123.452 234.766 123.094C235.153 122.73 235.613 122.548 236.147 122.548C236.693 122.548 237.156 122.73 237.536 123.094C237.923 123.452 238.116 123.881 238.116 124.381C238.116 124.886 237.923 125.321 237.536 125.685C237.156 126.043 236.695 126.222 236.156 126.222ZM247.017 141.256C245.676 141.256 244.523 140.972 243.557 140.403C242.597 139.83 241.858 139.034 241.341 138.017C240.83 137 240.574 135.83 240.574 134.506C240.574 133.165 240.832 131.989 241.349 130.977C241.872 129.96 242.614 129.168 243.574 128.599C244.534 128.026 245.676 127.739 247 127.739C248.142 127.739 249.142 127.946 250 128.361C250.858 128.776 251.537 129.358 252.037 130.108C252.537 130.858 252.813 131.739 252.864 132.75H249.438C249.341 132.097 249.085 131.571 248.67 131.173C248.261 130.77 247.724 130.568 247.06 130.568C246.497 130.568 246.006 130.722 245.585 131.028C245.17 131.33 244.847 131.77 244.614 132.349C244.381 132.929 244.264 133.631 244.264 134.455C244.264 135.29 244.378 136 244.605 136.585C244.838 137.17 245.165 137.616 245.585 137.923C246.006 138.23 246.497 138.384 247.06 138.384C247.474 138.384 247.847 138.298 248.176 138.128C248.511 137.957 248.787 137.71 249.003 137.386C249.224 137.057 249.369 136.662 249.438 136.202H252.864C252.807 137.202 252.534 138.082 252.045 138.844C251.563 139.599 250.895 140.19 250.043 140.616C249.19 141.043 248.182 141.256 247.017 141.256Z" fill="#363B64"/>
<line x1="254" y1="108" x2="282" y2="108" stroke="#EAEAEC" stroke-width="4" stroke-linecap="round"/>
<rect x="230" y="271" width="327" height="208" rx="16" fill="url(#paint13_linear_1_4465)"/>
<mask id="mask0_1_4465" style="mask-type:alpha" maskUnits="userSpaceOnUse" x="230" y="271" width="327" height="208">
<rect x="230" y="271" width="327" height="208" rx="16" fill="url(#paint14_linear_1_4465)"/>
</mask>
<g mask="url(#mask0_1_4465)">
<ellipse opacity="0.04" cx="368.5" cy="460.5" rx="212.5" ry="85.5" fill="white"/>
<ellipse opacity="0.04" cx="300.5" cy="464.5" rx="167.5" ry="129.5" fill="white"/>
</g>
<path d="M263.233 409V398.818H266.793C267.502 398.818 268.087 398.941 268.548 399.186C269.008 399.428 269.351 399.754 269.577 400.165C269.802 400.573 269.915 401.026 269.915 401.523C269.915 401.96 269.837 402.321 269.681 402.607C269.529 402.892 269.326 403.117 269.075 403.283C268.826 403.448 268.556 403.571 268.264 403.651V403.75C268.576 403.77 268.889 403.879 269.204 404.078C269.519 404.277 269.782 404.562 269.994 404.933C270.206 405.304 270.312 405.759 270.312 406.295C270.312 406.806 270.196 407.265 269.964 407.673C269.732 408.08 269.366 408.403 268.866 408.642C268.365 408.881 267.714 409 266.912 409H263.233ZM264.466 407.906H266.912C267.717 407.906 268.289 407.75 268.627 407.439C268.969 407.124 269.139 406.743 269.139 406.295C269.139 405.951 269.051 405.633 268.876 405.341C268.7 405.046 268.45 404.811 268.125 404.635C267.8 404.456 267.416 404.366 266.972 404.366H264.466V407.906ZM264.466 403.293H266.753C267.124 403.293 267.459 403.22 267.757 403.074C268.059 402.928 268.297 402.723 268.473 402.457C268.652 402.192 268.741 401.881 268.741 401.523C268.741 401.075 268.586 400.696 268.274 400.384C267.963 400.069 267.469 399.912 266.793 399.912H264.466V403.293ZM274.566 409.179C274.083 409.179 273.643 409.088 273.249 408.906C272.855 408.72 272.541 408.453 272.309 408.105C272.077 407.754 271.961 407.33 271.961 406.832C271.961 406.395 272.048 406.04 272.22 405.768C272.392 405.493 272.623 405.278 272.911 405.122C273.199 404.966 273.517 404.85 273.865 404.774C274.217 404.695 274.57 404.632 274.924 404.585C275.388 404.526 275.765 404.481 276.053 404.451C276.345 404.418 276.557 404.363 276.689 404.287C276.825 404.211 276.893 404.078 276.893 403.889V403.849C276.893 403.359 276.759 402.978 276.49 402.706C276.225 402.434 275.823 402.298 275.282 402.298C274.722 402.298 274.283 402.421 273.965 402.666C273.647 402.911 273.423 403.173 273.294 403.452L272.18 403.054C272.379 402.59 272.644 402.229 272.976 401.97C273.31 401.708 273.675 401.526 274.069 401.423C274.467 401.317 274.858 401.264 275.243 401.264C275.488 401.264 275.77 401.294 276.088 401.354C276.409 401.41 276.719 401.528 277.017 401.707C277.319 401.886 277.569 402.156 277.768 402.517C277.967 402.878 278.066 403.362 278.066 403.969V409H276.893V407.966H276.834C276.754 408.132 276.621 408.309 276.436 408.498C276.25 408.687 276.003 408.848 275.695 408.98C275.387 409.113 275.011 409.179 274.566 409.179ZM274.745 408.125C275.209 408.125 275.601 408.034 275.919 407.852C276.24 407.669 276.482 407.434 276.645 407.146C276.81 406.857 276.893 406.554 276.893 406.236V405.162C276.843 405.222 276.734 405.276 276.565 405.326C276.399 405.372 276.207 405.414 275.988 405.45C275.773 405.483 275.562 405.513 275.357 405.54C275.155 405.563 274.991 405.583 274.865 405.599C274.56 405.639 274.275 405.704 274.01 405.793C273.748 405.879 273.536 406.01 273.373 406.186C273.214 406.358 273.135 406.594 273.135 406.892C273.135 407.3 273.285 407.608 273.587 407.817C273.892 408.022 274.278 408.125 274.745 408.125ZM281.521 398.818V409H280.348V398.818H281.521ZM286.057 409.179C285.574 409.179 285.134 409.088 284.74 408.906C284.346 408.72 284.032 408.453 283.8 408.105C283.568 407.754 283.452 407.33 283.452 406.832C283.452 406.395 283.538 406.04 283.711 405.768C283.883 405.493 284.114 405.278 284.402 405.122C284.69 404.966 285.008 404.85 285.356 404.774C285.708 404.695 286.061 404.632 286.415 404.585C286.879 404.526 287.256 404.481 287.544 404.451C287.836 404.418 288.048 404.363 288.18 404.287C288.316 404.211 288.384 404.078 288.384 403.889V403.849C288.384 403.359 288.25 402.978 287.981 402.706C287.716 402.434 287.314 402.298 286.773 402.298C286.213 402.298 285.774 402.421 285.456 402.666C285.138 402.911 284.914 403.173 284.785 403.452L283.671 403.054C283.87 402.59 284.135 402.229 284.467 401.97C284.801 401.708 285.166 401.526 285.56 401.423C285.958 401.317 286.349 401.264 286.734 401.264C286.979 401.264 287.261 401.294 287.579 401.354C287.9 401.41 288.21 401.528 288.508 401.707C288.81 401.886 289.06 402.156 289.259 402.517C289.458 402.878 289.557 403.362 289.557 403.969V409H288.384V407.966H288.324C288.245 408.132 288.112 408.309 287.927 408.498C287.741 408.687 287.494 408.848 287.186 408.98C286.878 409.113 286.502 409.179 286.057 409.179ZM286.236 408.125C286.7 408.125 287.092 408.034 287.41 407.852C287.731 407.669 287.973 407.434 288.136 407.146C288.301 406.857 288.384 406.554 288.384 406.236V405.162C288.334 405.222 288.225 405.276 288.056 405.326C287.89 405.372 287.698 405.414 287.479 405.45C287.264 405.483 287.053 405.513 286.848 405.54C286.646 405.563 286.482 405.583 286.356 405.599C286.051 405.639 285.766 405.704 285.501 405.793C285.239 405.879 285.027 406.01 284.864 406.186C284.705 406.358 284.626 406.594 284.626 406.892C284.626 407.3 284.776 407.608 285.078 407.817C285.383 408.022 285.769 408.125 286.236 408.125ZM293.012 404.406V409H291.839V401.364H292.972V402.557H293.072C293.251 402.169 293.523 401.857 293.887 401.622C294.252 401.384 294.722 401.264 295.299 401.264C295.816 401.264 296.269 401.37 296.656 401.582C297.044 401.791 297.346 402.109 297.561 402.537C297.777 402.961 297.884 403.498 297.884 404.148V409H296.711V404.227C296.711 403.627 296.555 403.16 296.244 402.825C295.932 402.487 295.505 402.318 294.961 402.318C294.587 402.318 294.252 402.399 293.957 402.562C293.665 402.724 293.435 402.961 293.266 403.273C293.097 403.584 293.012 403.962 293.012 404.406ZM303.271 409.159C302.555 409.159 301.938 408.99 301.421 408.652C300.904 408.314 300.506 407.848 300.228 407.255C299.95 406.662 299.81 405.984 299.81 405.222C299.81 404.446 299.953 403.762 300.238 403.168C300.526 402.572 300.927 402.106 301.441 401.771C301.958 401.433 302.561 401.264 303.251 401.264C303.788 401.264 304.272 401.364 304.702 401.562C305.133 401.761 305.486 402.04 305.761 402.398C306.037 402.756 306.207 403.173 306.274 403.651H305.1C305.011 403.303 304.812 402.994 304.504 402.726C304.199 402.454 303.788 402.318 303.271 402.318C302.813 402.318 302.412 402.437 302.068 402.676C301.726 402.911 301.459 403.245 301.267 403.675C301.078 404.103 300.984 404.605 300.984 405.182C300.984 405.772 301.077 406.286 301.262 406.723C301.451 407.161 301.716 407.5 302.058 407.742C302.402 407.984 302.807 408.105 303.271 408.105C303.576 408.105 303.852 408.052 304.101 407.946C304.35 407.84 304.56 407.688 304.732 407.489C304.905 407.29 305.027 407.051 305.1 406.773H306.274C306.207 407.223 306.043 407.629 305.781 407.991C305.523 408.349 305.18 408.634 304.752 408.846C304.328 409.055 303.834 409.159 303.271 409.159ZM311.33 409.159C310.595 409.159 309.96 408.997 309.426 408.672C308.896 408.344 308.487 407.886 308.198 407.3C307.913 406.71 307.771 406.024 307.771 405.241C307.771 404.459 307.913 403.77 308.198 403.173C308.487 402.573 308.888 402.106 309.401 401.771C309.918 401.433 310.522 401.264 311.211 401.264C311.609 401.264 312.002 401.33 312.389 401.463C312.777 401.596 313.13 401.811 313.448 402.109C313.766 402.404 314.02 402.795 314.209 403.283C314.398 403.77 314.492 404.37 314.492 405.082V405.58H308.606V404.565H313.299C313.299 404.134 313.213 403.75 313.041 403.412C312.872 403.074 312.63 402.807 312.315 402.612C312.003 402.416 311.635 402.318 311.211 402.318C310.744 402.318 310.339 402.434 309.998 402.666C309.66 402.895 309.4 403.193 309.217 403.561C309.035 403.929 308.944 404.323 308.944 404.744V405.42C308.944 405.997 309.043 406.486 309.242 406.887C309.445 407.285 309.725 407.588 310.083 407.797C310.44 408.002 310.856 408.105 311.33 408.105C311.639 408.105 311.917 408.062 312.166 407.976C312.418 407.886 312.635 407.754 312.817 407.578C312.999 407.399 313.14 407.177 313.24 406.912L314.373 407.23C314.254 407.615 314.053 407.953 313.771 408.244C313.49 408.533 313.142 408.758 312.727 408.92C312.313 409.08 311.847 409.159 311.33 409.159Z" fill="white"/>
<path d="M264.736 424.909L267.657 431.736L266.001 432.848L262.256 424.909H264.736ZM266.519 431.697L269.421 424.909H271.901L268.149 432.848L266.519 431.697ZM268.226 431.109V438H265.874V431.109H268.226ZM270.911 431.327V432.765H263.061V431.327H270.911ZM270.911 433.858V435.296H263.061V433.858H270.911Z" fill="white"/>
<path d="M287.42 447.318C285.784 447.318 284.33 447.038 283.057 446.477C281.792 445.917 280.792 445.136 280.057 444.136C279.322 443.136 278.932 441.981 278.886 440.67H283.159C283.197 441.299 283.405 441.848 283.784 442.318C284.163 442.78 284.667 443.14 285.295 443.398C285.924 443.655 286.629 443.784 287.409 443.784C288.242 443.784 288.981 443.64 289.625 443.352C290.269 443.057 290.773 442.648 291.136 442.125C291.5 441.602 291.678 441 291.67 440.318C291.678 439.614 291.496 438.992 291.125 438.455C290.754 437.917 290.216 437.496 289.511 437.193C288.814 436.89 287.973 436.739 286.989 436.739H284.932V433.489H286.989C287.799 433.489 288.508 433.348 289.114 433.068C289.727 432.788 290.208 432.394 290.557 431.886C290.905 431.371 291.076 430.777 291.068 430.102C291.076 429.443 290.928 428.871 290.625 428.386C290.33 427.894 289.909 427.511 289.364 427.239C288.826 426.966 288.193 426.83 287.466 426.83C286.754 426.83 286.095 426.958 285.489 427.216C284.883 427.473 284.394 427.841 284.023 428.318C283.652 428.788 283.455 429.348 283.432 430H279.375C279.405 428.697 279.78 427.553 280.5 426.568C281.227 425.576 282.197 424.803 283.409 424.25C284.621 423.689 285.981 423.409 287.489 423.409C289.042 423.409 290.39 423.701 291.534 424.284C292.686 424.86 293.576 425.636 294.205 426.614C294.833 427.591 295.148 428.67 295.148 429.852C295.155 431.163 294.769 432.261 293.989 433.148C293.216 434.034 292.201 434.614 290.943 434.886V435.068C292.58 435.295 293.833 435.902 294.705 436.886C295.583 437.864 296.019 439.08 296.011 440.534C296.011 441.837 295.64 443.004 294.898 444.034C294.163 445.057 293.148 445.86 291.852 446.443C290.564 447.027 289.087 447.318 287.42 447.318ZM308.584 447.318C306.948 447.318 305.493 447.038 304.221 446.477C302.955 445.917 301.955 445.136 301.221 444.136C300.486 443.136 300.096 441.981 300.05 440.67H304.323C304.361 441.299 304.569 441.848 304.948 442.318C305.327 442.78 305.83 443.14 306.459 443.398C307.088 443.655 307.793 443.784 308.573 443.784C309.406 443.784 310.145 443.64 310.789 443.352C311.433 443.057 311.936 442.648 312.3 442.125C312.664 441.602 312.842 441 312.834 440.318C312.842 439.614 312.66 438.992 312.289 438.455C311.918 437.917 311.38 437.496 310.675 437.193C309.978 436.89 309.137 436.739 308.152 436.739H306.096V433.489H308.152C308.963 433.489 309.671 433.348 310.277 433.068C310.891 432.788 311.372 432.394 311.721 431.886C312.069 431.371 312.24 430.777 312.232 430.102C312.24 429.443 312.092 428.871 311.789 428.386C311.493 427.894 311.073 427.511 310.527 427.239C309.99 426.966 309.357 426.83 308.63 426.83C307.918 426.83 307.258 426.958 306.652 427.216C306.046 427.473 305.558 427.841 305.186 428.318C304.815 428.788 304.618 429.348 304.596 430H300.539C300.569 428.697 300.944 427.553 301.664 426.568C302.391 425.576 303.361 424.803 304.573 424.25C305.785 423.689 307.145 423.409 308.652 423.409C310.205 423.409 311.554 423.701 312.698 424.284C313.849 424.86 314.74 425.636 315.368 426.614C315.997 427.591 316.311 428.67 316.311 429.852C316.319 431.163 315.933 432.261 315.152 433.148C314.38 434.034 313.365 434.614 312.107 434.886V435.068C313.743 435.295 314.997 435.902 315.868 436.886C316.747 437.864 317.183 439.08 317.175 440.534C317.175 441.837 316.804 443.004 316.061 444.034C315.327 445.057 314.311 445.86 313.016 446.443C311.728 447.027 310.251 447.318 308.584 447.318ZM329.668 447.318C327.979 447.318 326.479 447.034 325.168 446.466C323.865 445.898 322.843 445.121 322.1 444.136C321.365 443.144 321.002 442.019 321.009 440.761C321.002 439.784 321.214 438.886 321.646 438.068C322.077 437.25 322.661 436.568 323.396 436.023C324.138 435.47 324.964 435.117 325.873 434.966V434.807C324.676 434.542 323.706 433.932 322.964 432.977C322.229 432.015 321.865 430.905 321.873 429.648C321.865 428.451 322.199 427.383 322.873 426.443C323.547 425.504 324.471 424.765 325.646 424.227C326.82 423.682 328.161 423.409 329.668 423.409C331.161 423.409 332.49 423.682 333.657 424.227C334.831 424.765 335.756 425.504 336.43 426.443C337.112 427.383 337.452 428.451 337.452 429.648C337.452 430.905 337.077 432.015 336.327 432.977C335.585 433.932 334.627 434.542 333.452 434.807V434.966C334.362 435.117 335.18 435.47 335.907 436.023C336.642 436.568 337.225 437.25 337.657 438.068C338.096 438.886 338.316 439.784 338.316 440.761C338.316 442.019 337.945 443.144 337.202 444.136C336.46 445.121 335.437 445.898 334.134 446.466C332.839 447.034 331.35 447.318 329.668 447.318ZM329.668 444.068C330.54 444.068 331.297 443.92 331.941 443.625C332.585 443.322 333.085 442.898 333.441 442.352C333.797 441.807 333.979 441.178 333.987 440.466C333.979 439.723 333.786 439.068 333.407 438.5C333.036 437.924 332.524 437.473 331.873 437.148C331.229 436.822 330.494 436.659 329.668 436.659C328.835 436.659 328.093 436.822 327.441 437.148C326.79 437.473 326.274 437.924 325.896 438.5C325.524 439.068 325.343 439.723 325.35 440.466C325.343 441.178 325.517 441.807 325.873 442.352C326.229 442.89 326.729 443.311 327.373 443.614C328.024 443.917 328.79 444.068 329.668 444.068ZM329.668 433.466C330.381 433.466 331.009 433.322 331.555 433.034C332.108 432.746 332.543 432.345 332.862 431.83C333.18 431.314 333.343 430.72 333.35 430.045C333.343 429.379 333.184 428.795 332.873 428.295C332.562 427.788 332.131 427.398 331.577 427.125C331.024 426.845 330.388 426.705 329.668 426.705C328.934 426.705 328.286 426.845 327.725 427.125C327.172 427.398 326.74 427.788 326.43 428.295C326.127 428.795 325.979 429.379 325.987 430.045C325.979 430.72 326.131 431.314 326.441 431.83C326.759 432.337 327.195 432.739 327.748 433.034C328.309 433.322 328.949 433.466 329.668 433.466ZM344.264 447.25C343.575 447.25 342.984 447.008 342.491 446.523C341.999 446.038 341.756 445.447 341.764 444.75C341.756 444.068 341.999 443.485 342.491 443C342.984 442.515 343.575 442.273 344.264 442.273C344.931 442.273 345.51 442.515 346.003 443C346.503 443.485 346.756 444.068 346.764 444.75C346.756 445.212 346.635 445.633 346.4 446.011C346.173 446.39 345.87 446.693 345.491 446.92C345.12 447.14 344.711 447.25 344.264 447.25ZM358.857 447.318C357.22 447.318 355.766 447.038 354.493 446.477C353.228 445.917 352.228 445.136 351.493 444.136C350.758 443.136 350.368 441.981 350.323 440.67H354.595C354.633 441.299 354.842 441.848 355.22 442.318C355.599 442.78 356.103 443.14 356.732 443.398C357.36 443.655 358.065 443.784 358.845 443.784C359.679 443.784 360.417 443.64 361.061 443.352C361.705 443.057 362.209 442.648 362.573 442.125C362.936 441.602 363.114 441 363.107 440.318C363.114 439.614 362.932 438.992 362.561 438.455C362.19 437.917 361.652 437.496 360.948 437.193C360.251 436.89 359.41 436.739 358.425 436.739H356.368V433.489H358.425C359.235 433.489 359.944 433.348 360.55 433.068C361.164 432.788 361.645 432.394 361.993 431.886C362.342 431.371 362.512 430.777 362.504 430.102C362.512 429.443 362.364 428.871 362.061 428.386C361.766 427.894 361.345 427.511 360.8 427.239C360.262 426.966 359.629 426.83 358.902 426.83C358.19 426.83 357.531 426.958 356.925 427.216C356.319 427.473 355.83 427.841 355.459 428.318C355.088 428.788 354.891 429.348 354.868 430H350.811C350.842 428.697 351.217 427.553 351.936 426.568C352.664 425.576 353.633 424.803 354.845 424.25C356.057 423.689 357.417 423.409 358.925 423.409C360.478 423.409 361.826 423.701 362.97 424.284C364.122 424.86 365.012 425.636 365.641 426.614C366.27 427.591 366.584 428.67 366.584 429.852C366.592 431.163 366.205 432.261 365.425 433.148C364.652 434.034 363.637 434.614 362.379 434.886V435.068C364.016 435.295 365.27 435.902 366.141 436.886C367.02 437.864 367.455 439.08 367.448 440.534C367.448 441.837 367.076 443.004 366.334 444.034C365.599 445.057 364.584 445.86 363.289 446.443C362.001 447.027 360.523 447.318 358.857 447.318ZM371.248 442.682V439.33L381.123 423.727H383.918V428.5H382.214L375.566 439.034V439.216H389.35V442.682H371.248ZM382.35 447V441.659L382.395 440.159V423.727H386.373V447H382.35Z" fill="white"/>
<path d="M295.913 307.91H290.894C290.728 307.91 290.567 307.969 290.441 308.076C290.314 308.183 290.231 308.331 290.205 308.493L288.175 321.248C288.166 321.307 288.169 321.367 288.186 321.425C288.202 321.483 288.231 321.536 288.271 321.581C288.31 321.627 288.359 321.663 288.414 321.688C288.469 321.713 288.528 321.726 288.589 321.726H290.985C291.151 321.726 291.312 321.667 291.438 321.56C291.565 321.453 291.648 321.305 291.674 321.142L292.222 317.702C292.247 317.539 292.331 317.391 292.457 317.284C292.583 317.177 292.744 317.118 292.91 317.118H294.499C297.805 317.118 299.713 315.533 300.211 312.391C300.436 311.016 300.221 309.936 299.571 309.18C298.858 308.349 297.593 307.91 295.913 307.91ZM296.492 312.568C296.217 314.353 294.841 314.353 293.511 314.353H292.754L293.285 311.02C293.3 310.922 293.351 310.834 293.426 310.77C293.502 310.705 293.598 310.67 293.698 310.67H294.045C294.952 310.67 295.806 310.67 296.248 311.182C296.512 311.488 296.592 311.941 296.492 312.568ZM310.915 312.511H308.512C308.412 312.511 308.316 312.546 308.24 312.61C308.165 312.674 308.114 312.763 308.099 312.861L307.992 313.527L307.824 313.285C307.304 312.537 306.144 312.287 304.986 312.287C302.33 312.287 300.061 314.28 299.62 317.077C299.39 318.472 299.717 319.805 300.515 320.736C301.247 321.591 302.295 321.947 303.542 321.947C305.682 321.947 306.869 320.584 306.869 320.584L306.762 321.245C306.752 321.305 306.756 321.365 306.772 321.423C306.788 321.481 306.817 321.534 306.856 321.58C306.895 321.625 306.944 321.662 306.999 321.687C307.054 321.712 307.114 321.725 307.174 321.725H309.339C309.505 321.726 309.666 321.667 309.792 321.56C309.919 321.453 310.002 321.304 310.028 321.141L311.327 312.989C311.337 312.93 311.333 312.87 311.317 312.812C311.301 312.755 311.272 312.701 311.233 312.656C311.194 312.61 311.145 312.574 311.09 312.549C311.035 312.524 310.976 312.511 310.915 312.511ZM307.565 317.147C307.333 318.507 306.244 319.421 304.854 319.421C304.156 319.421 303.598 319.199 303.24 318.779C302.885 318.361 302.75 317.767 302.863 317.105C303.079 315.756 304.187 314.813 305.556 314.813C306.238 314.813 306.793 315.037 307.159 315.461C307.525 315.89 307.67 316.488 307.565 317.147ZM323.716 312.511H321.3C321.187 312.511 321.074 312.539 320.974 312.592C320.873 312.644 320.787 312.721 320.723 312.814L317.392 317.677L315.98 313.004C315.937 312.861 315.848 312.737 315.727 312.648C315.607 312.559 315.461 312.511 315.311 312.511H312.937C312.871 312.511 312.805 312.526 312.746 312.556C312.686 312.586 312.635 312.63 312.596 312.684C312.557 312.737 312.532 312.799 312.522 312.865C312.513 312.93 312.519 312.997 312.54 313.059L315.2 320.796L312.699 324.295C312.655 324.357 312.629 324.43 312.623 324.506C312.618 324.582 312.634 324.658 312.669 324.725C312.704 324.793 312.757 324.849 312.823 324.889C312.889 324.929 312.964 324.949 313.041 324.949H315.453C315.566 324.95 315.677 324.923 315.776 324.871C315.876 324.819 315.962 324.744 316.026 324.653L324.059 313.162C324.103 313.1 324.128 313.027 324.133 312.951C324.138 312.876 324.121 312.8 324.086 312.733C324.051 312.666 323.997 312.61 323.932 312.571C323.867 312.532 323.792 312.511 323.716 312.511Z" fill="white"/>
<path d="M331.712 307.907H326.692C326.526 307.907 326.366 307.966 326.239 308.073C326.113 308.18 326.03 308.328 326.004 308.49L323.974 321.244C323.964 321.304 323.968 321.364 323.984 321.421C324.001 321.479 324.03 321.532 324.069 321.578C324.108 321.623 324.157 321.66 324.212 321.685C324.266 321.71 324.326 321.723 324.386 321.723H326.962C327.078 321.723 327.191 321.682 327.279 321.607C327.367 321.532 327.426 321.428 327.444 321.314L328.02 317.699C328.045 317.536 328.129 317.388 328.255 317.281C328.381 317.174 328.542 317.115 328.708 317.115H330.296C333.603 317.115 335.51 315.53 336.009 312.388C336.235 311.013 336.018 309.933 335.369 309.177C334.656 308.346 333.392 307.907 331.712 307.907ZM332.291 312.565C332.017 314.35 330.641 314.35 329.31 314.35H328.553L329.085 311.017C329.101 310.919 329.151 310.83 329.226 310.766C329.302 310.702 329.398 310.667 329.498 310.667H329.845C330.75 310.667 331.606 310.667 332.048 311.179C332.311 311.484 332.391 311.938 332.291 312.565ZM346.714 312.508H344.312C344.212 312.507 344.116 312.543 344.04 312.607C343.964 312.671 343.914 312.76 343.899 312.858L343.793 313.524L343.624 313.282C343.104 312.534 341.944 312.284 340.786 312.284C338.13 312.284 335.863 314.277 335.421 317.074C335.192 318.468 335.517 319.802 336.315 320.732C337.049 321.588 338.096 321.944 339.343 321.944C341.483 321.944 342.669 320.58 342.669 320.58L342.562 321.242C342.553 321.302 342.556 321.362 342.572 321.42C342.589 321.478 342.618 321.531 342.657 321.577C342.697 321.623 342.745 321.659 342.8 321.684C342.856 321.709 342.915 321.722 342.976 321.722H345.14C345.306 321.722 345.467 321.663 345.593 321.556C345.719 321.449 345.803 321.301 345.829 321.138L347.128 312.986C347.137 312.927 347.134 312.867 347.117 312.809C347.1 312.751 347.071 312.698 347.032 312.652C346.993 312.607 346.944 312.571 346.889 312.546C346.834 312.521 346.774 312.508 346.714 312.508ZM343.364 317.143C343.133 318.504 342.042 319.418 340.652 319.418C339.955 319.418 339.396 319.196 339.038 318.775C338.683 318.358 338.549 317.764 338.661 317.102C338.879 315.753 339.985 314.81 341.354 314.81C342.037 314.81 342.591 315.034 342.957 315.458C343.325 315.887 343.47 316.484 343.364 317.143ZM349.547 308.257L347.487 321.244C347.478 321.304 347.481 321.364 347.498 321.421C347.514 321.479 347.543 321.532 347.582 321.578C347.621 321.623 347.67 321.66 347.725 321.685C347.78 321.71 347.839 321.723 347.9 321.723H349.971C350.315 321.723 350.607 321.476 350.66 321.139L352.691 308.386C352.7 308.326 352.697 308.266 352.68 308.208C352.664 308.151 352.635 308.097 352.596 308.052C352.557 308.006 352.508 307.97 352.453 307.945C352.399 307.919 352.339 307.906 352.279 307.906H349.96C349.86 307.907 349.764 307.942 349.688 308.006C349.613 308.071 349.563 308.159 349.547 308.257Z" fill="white"/>
<path d="M267.332 324.204L267.716 321.788L266.861 321.769H262.779L265.616 303.941C265.624 303.887 265.652 303.837 265.694 303.801C265.737 303.765 265.791 303.746 265.846 303.746H272.73C275.015 303.746 276.592 304.217 277.416 305.148C277.802 305.584 278.047 306.04 278.166 306.542C278.291 307.068 278.293 307.697 278.172 308.465L278.163 308.521V309.012L278.549 309.229C278.843 309.377 279.108 309.577 279.33 309.82C279.661 310.193 279.874 310.667 279.964 311.229C280.058 311.807 280.027 312.495 279.874 313.274C279.698 314.17 279.413 314.95 279.029 315.589C278.689 316.161 278.233 316.656 277.689 317.044C277.179 317.403 276.572 317.676 275.885 317.85C275.221 318.022 274.463 318.108 273.631 318.108H273.095C272.712 318.108 272.34 318.245 272.048 318.49C271.756 318.738 271.563 319.08 271.502 319.456L271.462 319.673L270.784 323.932L270.753 324.088C270.745 324.137 270.731 324.162 270.71 324.179C270.69 324.195 270.666 324.204 270.64 324.204H267.332Z" fill="white"/>
<path d="M278.914 308.574C278.894 308.704 278.87 308.837 278.844 308.974C277.936 313.593 274.83 315.189 270.864 315.189H268.844C268.359 315.189 267.95 315.538 267.875 316.012L266.841 322.511L266.548 324.353C266.536 324.426 266.541 324.501 266.561 324.572C266.581 324.643 266.617 324.709 266.665 324.766C266.714 324.822 266.774 324.867 266.842 324.898C266.909 324.929 266.983 324.945 267.058 324.945H270.64C271.064 324.945 271.424 324.64 271.491 324.225L271.526 324.045L272.201 319.803L272.244 319.571C272.31 319.155 272.671 318.849 273.095 318.849H273.631C277.102 318.849 279.818 317.453 280.612 313.412C280.944 311.724 280.772 310.315 279.895 309.323C279.617 309.017 279.284 308.763 278.914 308.574Z" fill="white"/>
<path d="M277.965 308.202C277.675 308.119 277.38 308.054 277.082 308.008C276.493 307.918 275.897 307.875 275.301 307.879H269.906C269.701 307.879 269.502 307.952 269.346 308.084C269.19 308.216 269.087 308.4 269.055 308.601L267.908 315.805L267.875 316.015C267.91 315.786 268.028 315.577 268.205 315.426C268.383 315.275 268.61 315.192 268.844 315.192H270.864C274.83 315.192 277.936 313.596 278.844 308.977C278.871 308.841 278.894 308.708 278.914 308.577C278.675 308.453 278.425 308.348 278.168 308.265C278.1 308.243 278.033 308.222 277.965 308.202Z" fill="#E7DDFF"/>
<path d="M269.055 308.599C269.087 308.398 269.19 308.215 269.346 308.083C269.502 307.95 269.701 307.878 269.906 307.879H275.301C275.941 307.879 276.537 307.92 277.082 308.007C277.45 308.065 277.814 308.151 278.169 308.264C278.436 308.352 278.685 308.456 278.915 308.576C279.185 306.869 278.913 305.707 277.981 304.655C276.955 303.496 275.102 303 272.731 303H265.847C265.363 303 264.949 303.349 264.875 303.824L262.007 321.835C261.994 321.919 261.999 322.004 262.022 322.086C262.045 322.167 262.086 322.243 262.141 322.307C262.197 322.371 262.266 322.423 262.343 322.459C262.421 322.494 262.505 322.513 262.591 322.513H266.841L267.908 315.804L269.055 308.599Z" fill="white"/>
<defs>
<filter id="filter0_d_1_4465" x="0" y="0" width="566" height="604" filterUnits="userSpaceOnUse" color-interpolation-filters="sRGB">
<feFlood flood-opacity="0" result="BackgroundImageFix"/>
<feColorMatrix in="SourceAlpha" type="matrix" values="0 0 0 0 0 0 0 0 0 0 0 0 0 0 0 0 0 0 127 0" result="hardAlpha"/>
<feOffset dy="-2"/>
<feGaussianBlur stdDeviation="46"/>
<feColorMatrix type="matrix" values="0 0 0 0 0.572549 0 0 0 0 0.572549 0 0 0 0 0.572549 0 0 0 0.16 0"/>
<feBlend mode="normal" in2="BackgroundImageFix" result="effect1_dropShadow_1_4465"/>
<feBlend mode="normal" in="SourceGraphic" in2="effect1_dropShadow_1_4465" result="shape"/>
</filter>
<filter id="filter1_d_1_4465" x="91" y="463" width="207" height="85" filterUnits="userSpaceOnUse" color-interpolation-filters="sRGB">
<feFlood flood-opacity="0" result="BackgroundImageFix"/>
<feColorMatrix in="SourceAlpha" type="matrix" values="0 0 0 0 0 0 0 0 0 0 0 0 0 0 0 0 0 0 127 0" result="hardAlpha"/>
<feMorphology radius="2" operator="dilate" in="SourceAlpha" result="effect1_dropShadow_1_4465"/>
<feOffset dy="8"/>
<feGaussianBlur stdDeviation="12"/>
<feColorMatrix type="matrix" values="0 0 0 0 0.211765 0 0 0 0 0.231373 0 0 0 0 0.392157 0 0 0 0.08 0"/>
<feBlend mode="normal" in2="BackgroundImageFix" result="effect1_dropShadow_1_4465"/>
<feBlend mode="normal" in="SourceGraphic" in2="effect1_dropShadow_1_4465" result="shape"/>
</filter>
<filter id="filter2_d_1_4465" x="262" y="463" width="207" height="85" filterUnits="userSpaceOnUse" color-interpolation-filters="sRGB">
<feFlood flood-opacity="0" result="BackgroundImageFix"/>
<feColorMatrix in="SourceAlpha" type="matrix" values="0 0 0 0 0 0 0 0 0 0 0 0 0 0 0 0 0 0 127 0" result="hardAlpha"/>
<feMorphology radius="2" operator="dilate" in="SourceAlpha" result="effect1_dropShadow_1_4465"/>
<feOffset dy="8"/>
<feGaussianBlur stdDeviation="12"/>
<feColorMatrix type="matrix" values="0 0 0 0 0.211765 0 0 0 0 0.231373 0 0 0 0 0.392157 0 0 0 0.08 0"/>
<feBlend mode="normal" in2="BackgroundImageFix" result="effect1_dropShadow_1_4465"/>
<feBlend mode="normal" in="SourceGraphic" in2="effect1_dropShadow_1_4465" result="shape"/>
</filter>
<filter id="filter3_d_1_4465" x="186" y="209" width="132" height="84" filterUnits="userSpaceOnUse" color-interpolation-filters="sRGB">
<feFlood flood-opacity="0" result="BackgroundImageFix"/>
<feColorMatrix in="SourceAlpha" type="matrix" values="0 0 0 0 0 0 0 0 0 0 0 0 0 0 0 0 0 0 127 0" result="hardAlpha"/>
<feMorphology radius="2" operator="dilate" in="SourceAlpha" result="effect1_dropShadow_1_4465"/>
<feOffset dy="8"/>
<feGaussianBlur stdDeviation="12"/>
<feColorMatrix type="matrix" values="0 0 0 0 0.211765 0 0 0 0 0.231373 0 0 0 0 0.392157 0 0 0 0.08 0"/>
<feBlend mode="normal" in2="BackgroundImageFix" result="effect1_dropShadow_1_4465"/>
<feBlend mode="normal" in="SourceGraphic" in2="effect1_dropShadow_1_4465" result="shape"/>
</filter>
<filter id="filter4_f_1_4465" x="120" y="163" width="72" height="48" filterUnits="userSpaceOnUse" color-interpolation-filters="sRGB">
<feFlood flood-opacity="0" result="BackgroundImageFix"/>
<feBlend mode="normal" in="SourceGraphic" in2="BackgroundImageFix" result="shape"/>
<feGaussianBlur stdDeviation="6" result="effect1_foregroundBlur_1_4465"/>
</filter>
<filter id="filter5_d_1_4465" x="90" y="145" width="132" height="84" filterUnits="userSpaceOnUse" color-interpolation-filters="sRGB">
<feFlood flood-opacity="0" result="BackgroundImageFix"/>
<feColorMatrix in="SourceAlpha" type="matrix" values="0 0 0 0 0 0 0 0 0 0 0 0 0 0 0 0 0 0 127 0" result="hardAlpha"/>
<feMorphology radius="2" operator="dilate" in="SourceAlpha" result="effect1_dropShadow_1_4465"/>
<feOffset dy="8"/>
<feGaussianBlur stdDeviation="12"/>
<feColorMatrix type="matrix" values="0 0 0 0 0.211765 0 0 0 0 0.231373 0 0 0 0 0.392157 0 0 0 0.08 0"/>
<feBlend mode="normal" in2="BackgroundImageFix" result="effect1_dropShadow_1_4465"/>
<feBlend mode="normal" in="SourceGraphic" in2="effect1_dropShadow_1_4465" result="shape"/>
</filter>
<linearGradient id="paint0_linear_1_4465" x1="340" y1="211" x2="406.61" y2="218.35" gradientUnits="userSpaceOnUse">
<stop stop-color="#C69DFF"/>
<stop offset="1" stop-color="#4F76FF"/>
</linearGradient>
<linearGradient id="paint1_linear_1_4465" x1="116" y1="211" x2="182.61" y2="218.35" gradientUnits="userSpaceOnUse">
<stop stop-color="#C69DFF"/>
<stop offset="1" stop-color="#4F76FF"/>
</linearGradient>
<linearGradient id="paint2_linear_1_4465" x1="172" y1="211" x2="238.61" y2="218.35" gradientUnits="userSpaceOnUse">
<stop stop-color="#C69DFF"/>
<stop offset="1" stop-color="#4F76FF"/>
</linearGradient>
<linearGradient id="paint3_linear_1_4465" x1="228" y1="387" x2="228.178" y2="390.462" gradientUnits="userSpaceOnUse">
<stop stop-color="#C69DFF"/>
<stop offset="1" stop-color="#4F76FF"/>
</linearGradient>
<linearGradient id="paint4_linear_1_4465" x1="228" y1="211" x2="294.61" y2="218.35" gradientUnits="userSpaceOnUse">
<stop stop-color="#C69DFF"/>
<stop offset="1" stop-color="#4F76FF"/>
</linearGradient>
<linearGradient id="paint5_linear_1_4465" x1="284" y1="211" x2="350.61" y2="218.35" gradientUnits="userSpaceOnUse">
<stop stop-color="#C69DFF"/>
<stop offset="1" stop-color="#4F76FF"/>
</linearGradient>
<linearGradient id="paint6_linear_1_4465" x1="396" y1="211" x2="462.61" y2="218.35" gradientUnits="userSpaceOnUse">
<stop stop-color="#C69DFF"/>
<stop offset="1" stop-color="#4F76FF"/>
</linearGradient>
<linearGradient id="paint7_linear_1_4465" x1="117" y1="239" x2="252.571" y2="450.758" gradientUnits="userSpaceOnUse">
<stop stop-color="#C69DFF"/>
<stop offset="1" stop-color="#4F76FF"/>
</linearGradient>
<linearGradient id="paint8_linear_1_4465" x1="125" y1="239" x2="260.571" y2="450.758" gradientUnits="userSpaceOnUse">
<stop stop-color="#C69DFF"/>
<stop offset="1" stop-color="#4F76FF"/>
</linearGradient>
<linearGradient id="paint9_linear_1_4465" x1="247" y1="271" x2="259.07" y2="275.884" gradientUnits="userSpaceOnUse">
<stop stop-color="#C69DFF"/>
<stop offset="1" stop-color="#4F76FF"/>
</linearGradient>
<linearGradient id="paint10_linear_1_4465" x1="132" y1="175" x2="172.742" y2="207.969" gradientUnits="userSpaceOnUse">
<stop stop-color="#C69DFF"/>
<stop offset="1" stop-color="#4F76FF"/>
</linearGradient>
<linearGradient id="paint11_linear_1_4465" x1="116" y1="163" x2="171.541" y2="219.181" gradientUnits="userSpaceOnUse">
<stop stop-color="#C69DFF"/>
<stop offset="1" stop-color="#4F76FF"/>
</linearGradient>
<linearGradient id="paint12_linear_1_4465" x1="467" y1="179" x2="392" y2="179" gradientUnits="userSpaceOnUse">
<stop stop-color="white"/>
<stop offset="1" stop-color="white" stop-opacity="0"/>
</linearGradient>
<linearGradient id="paint13_linear_1_4465" x1="230" y1="271" x2="557" y2="479" gradientUnits="userSpaceOnUse">
<stop stop-color="#C69DFF"/>
<stop offset="1" stop-color="#4F76FF"/>
</linearGradient>
<linearGradient id="paint14_linear_1_4465" x1="230" y1="271" x2="557" y2="479" gradientUnits="userSpaceOnUse">
<stop stop-color="#C69DFF"/>
<stop offset="1" stop-color="#4F76FF"/>
</linearGradient>
</defs>
</svg>
