<svg width="24" height="24" viewBox="0 0 24 24" fill="none" xmlns="http://www.w3.org/2000/svg">
<path d="M16.9995 21H6.99951C6.46908 21 5.96037 20.7893 5.5853 20.4142C5.21023 20.0391 4.99951 19.5304 4.99951 19V5C4.99951 4.46957 5.21023 3.96086 5.5853 3.58579C5.96037 3.21071 6.46908 3 6.99951 3H13.9995L18.9995 8V19C18.9995 19.5304 18.7888 20.0391 18.4137 20.4142C18.0387 20.7893 17.5299 21 16.9995 21Z" fill="#9814FF" stroke="#9814FF" stroke-width="1.5" stroke-linecap="round" stroke-linejoin="round"/>
<path d="M10 12H9V17H10" stroke="#F3E4FF" stroke-width="1.5" stroke-linecap="round" stroke-linejoin="round"/>
<path d="M14 12H15V17H14" stroke="#F3E4FF" stroke-width="1.5" stroke-linecap="round" stroke-linejoin="round"/>
<path d="M14 3V7C14 7.26522 14.1054 7.51957 14.2929 7.70711C14.4804 7.89465 14.7348 8 15 8H19" fill="#F3E4FF"/>
<path d="M14 3V7C14 7.26522 14.1054 7.51957 14.2929 7.70711C14.4804 7.89465 14.7348 8 15 8H19" stroke="#9814FF" stroke-width="1.5" stroke-linecap="round" stroke-linejoin="round"/>
</svg>
