<svg width="24" height="24" viewBox="0 0 24 24" fill="none" xmlns="http://www.w3.org/2000/svg">
<path d="M6.5 19.5H8.5H9.5H11.5H16C16 19.5 15.7893 20.0391 15.4142 20.4142C15.0391 20.7893 14.5304 21 14 21H7C6.46957 21 5.96086 20.7893 5.58579 20.4142C5.21071 20.0391 5 19.5304 5 19V9C5 8.46957 5.21071 7.96086 5.58579 7.58579C5.96086 7.21071 5.96957 7 6.5 7V13.2158V16V17V19.5Z" fill="#9814FF" stroke="#9814FF" stroke-width="1.5" stroke-linecap="round" stroke-linejoin="round"/>
<path d="M18 17H11C10.4696 17 9.96086 16.7893 9.58579 16.4142C9.21071 16.0391 9 15.5304 9 15V5C9 4.46957 9.21071 3.96086 9.58579 3.58579C9.96086 3.21071 10.4696 3 11 3H15L20 8V15C20 15.5304 19.7893 16.0391 19.4142 16.4142C19.0391 16.7893 18.5304 17 18 17Z" fill="#9814FF" stroke="#9814FF" stroke-width="1.5" stroke-linecap="round" stroke-linejoin="round"/>
<path d="M15 3V7C15 7.26522 15.1054 7.51957 15.2929 7.70711C15.4804 7.89464 15.7348 8 16 8H20" fill="white"/>
<path d="M15 3V7C15 7.26522 15.1054 7.51957 15.2929 7.70711C15.4804 7.89464 15.7348 8 16 8H20" stroke="#9814FF" stroke-width="1.5" stroke-linecap="round" stroke-linejoin="round"/>
</svg>
