<svg width="20" height="20" viewBox="0 0 20 20" fill="none" xmlns="http://www.w3.org/2000/svg">
<path d="M13.3333 3.33203H6.66659C4.82564 3.33203 3.33325 4.82442 3.33325 6.66536V13.332C3.33325 15.173 4.82564 16.6654 6.66659 16.6654H13.3333C15.1742 16.6654 16.6666 15.173 16.6666 13.332V6.66536C16.6666 4.82442 15.1742 3.33203 13.3333 3.33203Z" fill="#C4C4C4" stroke="#C4C4C4" stroke-linecap="round" stroke-linejoin="round"/>
<path d="M10 12.5C11.3807 12.5 12.5 11.3807 12.5 10C12.5 8.61929 11.3807 7.5 10 7.5C8.61929 7.5 7.5 8.61929 7.5 10C7.5 11.3807 8.61929 12.5 10 12.5Z" fill="white"/>
<path d="M13.75 6.25V6.251" stroke="white" stroke-linecap="round" stroke-linejoin="round"/>
</svg>
