<svg width="60" height="60" viewBox="0 0 60 60" fill="none" xmlns="http://www.w3.org/2000/svg">
<g opacity="0.8">
<circle cx="30" cy="30" r="26.25" fill="#FF3366"/>
<path d="M21.2988 20.3594C23.111 20.3594 24.5801 18.8903 24.5801 17.0781C24.5801 15.2659 23.111 13.7969 21.2988 13.7969C19.4866 13.7969 18.0176 15.2659 18.0176 17.0781C18.0176 18.8903 19.4866 20.3594 21.2988 20.3594Z" fill="white"/>
<path d="M14.4434 23.1719L13.3008 27.3613H17.0508C16.2988 30.418 14.7246 36.8477 14.4434 38.1133C14.0918 39.6953 14.0331 44.207 18.7793 44.207C22.092 44.207 24.2049 42.067 25.3835 40.3196L24.4922 43.8848H29.8242L32.6074 32.6194C33.0029 30.7451 33.9339 27.127 37.2949 27.127C41.2923 27.127 39.8258 31.8605 39.1071 34.1802C39.0778 34.2747 39.0498 34.3652 39.0234 34.4512C38.4844 36.209 37.9102 38.2598 37.9102 39.666C37.9102 41.248 38.6426 44.207 42.7441 44.207C46.8457 44.207 48.5938 40.1445 48.9551 38.1133L46.875 37.2637C46.7285 38.3477 45.4102 40.6914 44.1797 40.6914C42.4952 40.6914 43.3414 37.8515 44.2444 34.8207C44.6449 33.4764 45.0566 32.0945 45.2637 30.9062C45.7871 27.902 45.2637 22.791 40.0488 22.791C36.8099 22.791 34.2667 25.6771 33.0568 27.6807L34.0723 23.1719H25.957L24.8438 27.3613H28.623C28.623 27.3613 26.3803 36.5011 26.2354 36.7876C24.7119 39.7979 22.4078 40.8083 20.6836 40.6914C19.3008 40.5977 19.4629 38.9336 19.7168 38.1133L23.4668 23.1719H14.4434Z" fill="white"/>
</g>
</svg>
