<svg width="60" height="60" viewBox="0 0 60 60" fill="none" xmlns="http://www.w3.org/2000/svg">
<g opacity="0.8">
<path d="M30.0924 15.8262C42.4451 6.23638 36.1054 0 36.1054 0C37.0488 9.91384 25.8985 12.2547 22.9096 19.0672C20.8701 23.7159 24.3062 27.7863 30.0883 32.9163C29.5771 31.7801 28.7887 30.6761 27.9906 29.5584C25.2684 25.7461 22.4326 21.7747 30.0924 15.8262Z" fill="#E76F00"/>
<path d="M32.0644 35.0194C32.0644 35.0194 35.7808 32.021 32.8377 28.6889C22.8612 17.3847 43.7491 12.2547 43.7491 12.2547C30.9962 18.3984 32.9 22.0452 36.1054 26.4753C39.5374 31.2258 32.0644 35.0194 32.0644 35.0194Z" fill="#E76F00"/>
<path d="M43.0069 43.9595C54.4543 38.1099 49.1615 32.4886 45.4672 33.2459C44.5617 33.4312 44.158 33.5918 44.158 33.5918C44.158 33.5918 44.4941 33.074 45.1361 32.8498C52.4447 30.3231 58.0654 40.302 42.7769 44.2543C42.7769 44.2544 42.954 44.0987 43.0069 43.9595Z" fill="#5382A1"/>
<path d="M19.1869 36.5558C12.0246 35.6152 23.114 33.0251 23.114 33.0251C23.114 33.0251 18.8076 32.7395 13.5111 35.2572C7.24832 38.2362 29.0026 39.5911 40.2637 36.6787C41.4344 35.8926 43.0527 35.2111 43.0527 35.2111C43.0527 35.2111 38.4445 36.0205 33.8552 36.4012C28.2397 36.8638 22.2111 36.9539 19.1869 36.5558Z" fill="#5382A1"/>
<path d="M21.9119 42.1412C17.918 41.7349 20.5331 39.8313 20.5331 39.8313C10.1981 43.2045 26.2833 47.0296 40.7248 42.877C39.1897 42.3448 38.2135 41.3715 38.2135 41.3715C31.1556 42.708 27.0768 42.6651 21.9119 42.1412Z" fill="#5382A1"/>
<path d="M23.6522 48.1849C19.6612 47.7337 21.9928 46.4004 21.9928 46.4004C12.6111 48.9782 27.6992 54.3037 39.6436 49.2697C37.6873 48.5216 36.2864 47.6579 36.2864 47.6579C30.9583 48.6495 28.4871 48.7273 23.6522 48.1849Z" fill="#5382A1"/>
<path d="M48.635 51.2592C48.635 51.2592 50.3604 52.6573 46.7347 53.7389C39.8402 55.7927 18.0392 56.4129 11.983 53.8207C9.80595 52.8893 13.8886 51.5969 15.1728 51.3257C16.5121 51.0401 17.2775 51.0933 17.2775 51.0933C14.8564 49.4161 1.62842 54.3865 10.5583 55.81C34.9115 59.6937 54.9519 54.0612 48.635 51.2592Z" fill="#5382A1"/>
<path d="M52.5 54.3138C52.1004 59.4266 35.227 60.502 24.2389 59.8103C17.0706 59.3583 15.634 58.2286 15.613 58.2121C22.4735 59.3244 34.0404 59.5268 43.419 57.7913C51.7318 56.252 52.5 54.3138 52.5 54.3138Z" fill="#5382A1"/>
</g>
</svg>
