<svg width="50" height="54" viewBox="0 0 50 54" fill="none" xmlns="http://www.w3.org/2000/svg">
<path d="M27.1984 1.3101C25.8675 0.561618 24.1325 0.564983 22.8005 1.3101C16.1291 4.99175 9.45778 8.67452 2.7853 12.3545C1.48692 13.0375 0.611197 14.4318 0.625165 15.8791V38.124C0.615789 39.5994 1.53667 41.0072 2.86852 41.6809C4.78509 42.7005 6.64713 43.8237 8.59832 44.7754C10.8522 45.8829 13.672 46.1279 15.9535 44.9729C17.8054 44.0155 18.6279 41.8866 18.6256 39.93C18.6405 32.5886 18.6279 25.247 18.6314 17.9056C18.6754 17.5793 18.4305 17.2306 18.0746 17.2384C17.222 17.225 16.3683 17.2306 15.5157 17.2362C15.1935 17.2057 14.8792 17.4733 14.9035 17.7971C14.892 25.0912 14.9058 32.3876 14.8966 39.6828C14.9151 40.692 14.2334 41.6618 13.2609 42.0027C11.0147 42.7899 4.60371 38.6273 4.60371 38.6273C4.36844 38.5183 4.21903 38.2632 4.24209 38.0097C4.24209 30.6705 4.24324 23.3312 4.24209 15.9931C4.20976 15.6973 4.3921 15.4309 4.66379 15.3101C11.3131 11.6501 17.959 7.98101 24.6084 4.31881C24.8392 4.16467 25.1613 4.16513 25.3917 4.31993C32.041 7.98101 38.688 11.6468 45.3385 15.3069C45.6112 15.4275 45.7857 15.6984 45.7579 15.9931C45.7568 23.3312 45.7602 30.6705 45.7556 38.0086C45.7753 38.2683 45.6412 38.52 45.3986 38.634C38.8113 42.2741 32.1491 45.7968 25.6215 49.5427C25.3367 49.7061 25.0141 49.8912 24.695 49.7112C22.9784 48.7617 21.2826 47.7752 19.5717 46.8165C19.3858 46.7004 19.1489 46.6507 18.9549 46.7804C18.1877 47.1847 17.4663 47.5121 16.5854 47.8608C15.3482 48.3505 15.5459 48.5509 16.6616 49.2009C18.6625 50.3332 20.6667 51.4611 22.6675 52.5946C23.9846 53.4165 25.7544 53.4751 27.114 52.7154C33.7865 49.0384 40.4567 45.3569 47.1303 41.68C48.4588 41.0025 49.3842 39.6004 49.3749 38.1238V15.8791C49.3877 14.4612 48.5454 13.0917 47.2863 12.3986C40.5918 8.69901 33.894 5.00745 27.1984 1.3101Z" fill="#8CC84B"/>
<path d="M37.266 18.0117C34.6472 16.6107 31.5317 16.5361 28.6216 16.7191C26.5192 16.9269 24.308 17.507 22.7762 19.0141C21.2052 20.5292 20.8632 22.9756 21.6094 24.9535C22.1442 26.351 23.4902 27.2599 24.8822 27.7406C26.6753 28.3736 28.5585 28.5693 30.4424 28.7651C32.1607 28.9437 33.8795 29.1223 35.531 29.6328C36.2056 29.8565 36.9912 30.1985 37.1979 30.9323C37.3886 31.8016 37.1795 32.812 36.4737 33.416C34.2318 35.1904 27.996 34.9185 25.7811 33.522C24.8856 32.927 24.4997 31.8738 24.3428 30.8703C24.3254 30.5575 24.0736 30.2706 23.734 30.2944C22.8837 30.2843 22.0334 30.2865 21.1831 30.2933C20.8864 30.2684 20.578 30.4795 20.5617 30.7822C20.387 35.3791 24.6088 37.3831 28.5697 37.8244C30.8328 38.04 33.1454 38.0276 35.3739 37.5421C37.049 37.1606 38.7285 36.4583 39.8817 35.168C41.3037 33.6 41.5832 31.2654 40.9455 29.3122C40.458 27.8549 39.0647 26.92 37.6404 26.439C35.7036 25.7749 33.4082 25.418 31.654 25.2509C29.1042 25.008 26.0741 25.1072 25.3525 23.4317C25.0647 22.5544 25.3096 21.465 26.1159 20.9254C28.2491 19.4784 32.5905 19.6706 34.7997 20.7515C35.8141 21.2595 36.4019 22.3027 36.6445 23.3559C36.6895 23.6654 36.8977 23.9881 37.2558 23.9747C38.1002 23.9915 38.9447 23.9792 39.7891 23.9803C40.0791 24.0007 40.3967 23.8369 40.4534 23.5399C40.4176 21.3386 39.2935 19.0853 37.266 18.0117Z" fill="#8CC84B"/>
</svg>
