<svg width="100" height="21" viewBox="0 0 100 21" fill="none" xmlns="http://www.w3.org/2000/svg">
<g clip-path="url(#clip0_1_4832)">
<path d="M38.6032 20.5289H35.1368V18.9178H35.0897C34.951 19.162 34.7877 19.3909 34.6025 19.6009C34.3885 19.8401 34.1408 20.0458 33.8674 20.2113C33.558 20.3994 33.2264 20.5473 32.8805 20.6514C32.4896 20.7675 32.084 20.8248 31.6766 20.8217C30.9124 20.8517 30.1514 20.7054 29.451 20.394C28.9085 20.1337 28.4493 19.7236 28.1263 19.2106C27.7997 18.6698 27.5851 18.0673 27.4957 17.4396C27.3872 16.7043 27.3345 15.9617 27.3381 15.2182V8.66797H30.9498V14.4811C30.9498 14.8237 30.9621 15.1767 30.9846 15.5441C31.0048 15.8912 31.078 16.233 31.2016 16.5573C31.3189 16.8898 31.5429 17.1729 31.8376 17.3611C32.1324 17.5493 32.4808 17.6318 32.8273 17.5954C33.2196 17.6125 33.6095 17.5245 33.9575 17.34C34.2363 17.179 34.4653 16.9425 34.6188 16.6569C34.7773 16.3568 34.8794 16.0295 34.9198 15.6915C34.97 15.3193 34.9946 14.944 34.9935 14.5683V8.66797H38.6032V20.5289Z" fill="#141414"/>
<path d="M40.4258 8.66796H43.8921V10.277H43.9392C44.0707 10.0271 44.2361 9.79713 44.4306 9.59392C44.6507 9.35725 44.9014 9.15192 45.1759 8.98353C45.4854 8.79614 45.817 8.64896 46.1628 8.54547C46.5535 8.4283 46.9592 8.37092 47.3667 8.37523C48.2812 8.37523 49.019 8.51363 49.58 8.79045C50.1175 9.05346 50.572 9.46329 50.8924 9.97385C51.2208 10.5188 51.4373 11.1254 51.5292 11.7573C51.6461 12.491 51.7029 13.2334 51.6991 13.9766V20.5289H48.0792V14.7157C48.0792 14.3732 48.0792 14.0202 48.0444 13.6548C48.0244 13.3077 47.9512 12.9659 47.8273 12.6417C47.7132 12.3065 47.4907 12.0204 47.196 11.8297C46.9012 11.6389 46.5515 11.5549 46.2037 11.5912C45.8104 11.5733 45.4196 11.6622 45.0715 11.8486C44.7923 12.009 44.5632 12.2457 44.4101 12.5316C44.2519 12.8311 44.1499 13.1578 44.1092 13.495C44.0598 13.8673 44.0359 14.2425 44.0375 14.6182V20.5289H40.4258V8.66796Z" fill="#141414"/>
<path d="M93.6809 20.6225H90.3599V19.0612H90.3108C90.1468 19.2972 89.9572 19.5137 89.7457 19.7069C89.4974 19.9389 89.2224 20.1397 88.9267 20.3048C88.5998 20.4912 88.2529 20.6389 87.8928 20.745C87.514 20.8591 87.1208 20.9165 86.7257 20.9152C85.9176 20.9268 85.1155 20.7736 84.367 20.4647C83.6791 20.1766 83.0593 19.7435 82.5489 19.1941C82.0342 18.6347 81.6371 17.9749 81.3818 17.255C81.1019 16.4648 80.9632 15.6302 80.9723 14.7906C80.9694 13.9817 81.0952 13.1776 81.345 12.4093C81.5796 11.6809 81.9386 11 82.4056 10.3975C82.8578 9.81379 83.4282 9.3352 84.0783 8.99405C84.7704 8.63507 85.539 8.45466 86.3162 8.46879C87.0333 8.46299 87.7459 8.58238 88.423 8.82174C89.0637 9.0524 89.621 9.47347 90.0221 10.03H90.0713V2.17188H93.6809V20.6225ZM90.3599 14.693C90.3952 13.8962 90.1236 13.1167 89.6024 12.5193C89.0973 11.9657 88.3869 11.6889 87.471 11.6889C86.5551 11.6889 85.8453 11.9657 85.3416 12.5193C84.8204 13.1167 84.5488 13.8962 84.5841 14.693C84.5489 15.4892 84.8206 16.268 85.3416 16.8647C85.848 17.4183 86.5578 17.6951 87.471 17.6951C88.3841 17.6951 89.0946 17.4183 89.6024 16.8647C90.1234 16.268 90.3951 15.4892 90.3599 14.693Z" fill="#141414"/>
<path d="M65.816 20.6225H62.4951V19.0612H62.448C62.2827 19.2962 62.0933 19.5126 61.8829 19.7069C61.6342 19.9384 61.3593 20.1391 61.0639 20.3048C60.7368 20.4908 60.3899 20.6385 60.0299 20.745C59.6511 20.8588 59.258 20.9162 58.8629 20.9152C58.0569 20.9259 57.257 20.7727 56.5103 20.4647C55.823 20.1765 55.2039 19.7434 54.6942 19.1941C54.1796 18.6347 53.7825 17.9749 53.5272 17.255C53.2464 16.465 53.1077 15.6303 53.1177 14.7906C53.1137 13.9816 53.2396 13.1773 53.4903 12.4093C53.7251 11.6814 54.0833 11.0006 54.5489 10.3975C55.002 9.81469 55.5722 9.33628 56.2216 8.99406C56.9145 8.63531 57.6837 8.45492 58.4616 8.46879C59.178 8.46282 59.89 8.58222 60.5664 8.82174C61.208 9.05169 61.766 9.47287 62.1675 10.03H62.2166V2.17188H65.8263L65.816 20.6225ZM62.4951 14.693C62.5296 13.896 62.2572 13.1165 61.7355 12.5193C61.2304 11.9657 60.5206 11.6889 59.6061 11.6889C58.6916 11.6889 57.9818 11.9657 57.4767 12.5193C56.9543 13.1162 56.6811 13.8957 56.7151 14.693C56.6805 15.4895 56.9529 16.2684 57.4747 16.8647C57.9784 17.4183 58.6881 17.6951 59.604 17.6951C60.5199 17.6951 61.2297 17.4183 61.7334 16.8647C62.2559 16.2687 62.5291 15.4898 62.4951 14.693Z" fill="#141414"/>
<path d="M97.5748 20.8557C98.9137 20.8557 99.999 19.7552 99.999 18.3976C99.999 17.04 98.9137 15.9395 97.5748 15.9395C96.236 15.9395 95.1506 17.04 95.1506 18.3976C95.1506 19.7552 96.236 20.8557 97.5748 20.8557Z" fill="#0061FF"/>
<path d="M12.6656 20.78H7.07807L6.51092 19.7814L4.83815 16.8416V20.7863H0V2.30028e-07H6.33279C7.86556 -0.000415568 9.34645 0.562877 10.5008 1.5854C11.6551 2.60791 12.4046 4.02026 12.6101 5.56045C12.8156 7.10065 12.4633 8.66416 11.6184 9.96097C10.7736 11.2578 9.49356 12.1999 8.01581 12.6125L8.14684 12.8409L9.6763 15.5295L9.88104 15.8741L9.89538 15.9011L12.1476 19.8458L12.6656 20.78Z" fill="#141414"/>
<path d="M19.5752 8.11133C18.3198 8.11133 17.0927 8.48879 16.0489 9.19599C15.0051 9.90319 14.1916 10.9084 13.7112 12.0844C13.2308 13.2604 13.1051 14.5545 13.35 15.803C13.5949 17.0514 14.1994 18.1982 15.0871 19.0983C15.9747 19.9984 17.1057 20.6114 18.3369 20.8597C19.5681 21.108 20.8443 20.9806 22.0041 20.4935C23.1639 20.0063 24.1552 19.1814 24.8526 18.123C25.55 17.0646 25.9223 15.8203 25.9223 14.5473C25.9223 12.8404 25.2536 11.2034 24.0633 9.99639C22.8729 8.78941 21.2585 8.11133 19.5752 8.11133ZM19.5752 17.7155C18.9567 17.7159 18.352 17.5304 17.8376 17.1823C17.3232 16.8342 16.9222 16.3392 16.6852 15.7599C16.4483 15.1807 16.3861 14.5432 16.5065 13.9281C16.6269 13.313 16.9245 12.7479 17.3616 12.3043C17.7988 11.8607 18.3559 11.5586 18.9624 11.4361C19.5689 11.3136 20.1977 11.3762 20.7691 11.6161C21.3405 11.856 21.8289 12.2624 22.1725 12.7838C22.5162 13.3051 22.6996 13.9182 22.6996 14.5453C22.6996 15.3857 22.3705 16.1918 21.7846 16.7863C21.1987 17.3807 20.404 17.715 19.5752 17.7155Z" fill="#141414"/>
<path d="M79.8617 13.6569C79.6655 12.2397 79.0092 10.9293 77.9965 9.93262C76.9837 8.93599 75.6722 8.31005 74.2694 8.15375C72.8665 7.99744 71.4523 8.31969 70.2503 9.06955C69.0483 9.81941 68.127 10.9541 67.6321 12.2943C67.1372 13.6345 67.0969 15.1037 67.5175 16.4697C67.9382 17.8357 68.7958 19.0206 69.9549 19.837C71.114 20.6535 72.5083 21.055 73.9176 20.978C75.3268 20.901 76.6706 20.3499 77.7364 19.412L74.9785 17.3877C74.3034 17.732 73.5282 17.8165 72.7963 17.6257C72.0645 17.4348 71.4257 16.9815 70.9982 16.3496H79.6754C79.6958 16.2811 79.7122 16.2126 79.7306 16.142C79.9322 15.3279 79.9767 14.4819 79.8617 13.6507V13.6569ZM70.5805 13.6569C70.6522 13.4117 70.7525 13.1761 70.8795 12.9552C71.1876 12.4215 71.6428 11.9909 72.1892 11.7163C72.7356 11.4416 73.3493 11.3351 73.9547 11.4097C74.5601 11.4842 75.1307 11.7367 75.5964 12.136C76.0621 12.5353 76.4024 13.064 76.5755 13.6569H70.5805Z" fill="#141414"/>
</g>
<defs>
<clipPath id="clip0_1_4832">
<rect width="100" height="20.9877" fill="white"/>
</clipPath>
</defs>
</svg>
