<svg width="54" height="46" viewBox="0 0 54 46" fill="none" xmlns="http://www.w3.org/2000/svg">
<path fill-rule="evenodd" clip-rule="evenodd" d="M12.2045 1.98158L26.9999 0.5L41.7954 1.98158L53.2499 16.5463L26.9999 45.4998L0.75 16.5463L12.2045 1.98158Z" fill="#FDB300"/>
<path d="M11.3824 16.5469L26.9998 45.5006L0.75 16.5469H11.3824ZM42.6176 16.5469L27.0002 45.5006L53.25 16.5469" fill="#EA6C00"/>
<path fill-rule="evenodd" clip-rule="evenodd" d="M11.3823 16.5469H42.6171L26.9997 45.5006" fill="#FDAD00"/>
<path d="M26.9997 0.5L12.2043 1.98133L11.3823 16.5461L26.9997 0.5ZM27 0.5L41.7954 1.98133L42.6173 16.5461" fill="#FDD231"/>
<path d="M53.25 16.5452L41.7956 1.98047L42.6176 16.5452H53.25ZM0.75 16.5452L12.2044 1.98047L11.3824 16.5452" fill="#FDAD00"/>
<path fill-rule="evenodd" clip-rule="evenodd" d="M26.9997 0.5L11.3823 16.5461H42.6171" fill="#FEEEB7"/>
</svg>
