<svg width="559" height="530" viewBox="0 0 559 530" fill="none" xmlns="http://www.w3.org/2000/svg">
<g filter="url(#filter0_d_1_4548)">
<path d="M92 110C92 101.163 99.1634 94 108 94H451C459.837 94 467 101.163 467 110V440H92V110Z" fill="white"/>
</g>
<path d="M126.986 112.565C126.918 111.878 126.625 111.344 126.108 110.963C125.591 110.582 124.889 110.392 124.003 110.392C123.401 110.392 122.892 110.477 122.477 110.648C122.063 110.812 121.744 111.043 121.523 111.338C121.307 111.634 121.199 111.969 121.199 112.344C121.188 112.656 121.253 112.929 121.395 113.162C121.543 113.395 121.744 113.597 122 113.767C122.256 113.932 122.551 114.077 122.886 114.202C123.222 114.321 123.58 114.423 123.96 114.509L125.528 114.884C126.29 115.054 126.989 115.281 127.625 115.565C128.261 115.849 128.813 116.199 129.278 116.614C129.744 117.028 130.105 117.517 130.361 118.08C130.622 118.642 130.756 119.287 130.761 120.014C130.756 121.082 130.483 122.009 129.943 122.793C129.409 123.571 128.636 124.176 127.625 124.608C126.619 125.034 125.406 125.247 123.986 125.247C122.577 125.247 121.349 125.031 120.304 124.599C119.264 124.168 118.452 123.528 117.866 122.682C117.287 121.83 116.983 120.776 116.955 119.52H120.526C120.565 120.105 120.733 120.594 121.028 120.986C121.33 121.372 121.73 121.665 122.23 121.864C122.736 122.057 123.307 122.153 123.943 122.153C124.568 122.153 125.111 122.062 125.571 121.881C126.037 121.699 126.398 121.446 126.653 121.122C126.909 120.798 127.037 120.426 127.037 120.006C127.037 119.614 126.92 119.284 126.688 119.017C126.46 118.75 126.125 118.523 125.682 118.335C125.244 118.148 124.707 117.977 124.071 117.824L122.17 117.347C120.699 116.989 119.537 116.429 118.685 115.668C117.832 114.906 117.409 113.881 117.415 112.591C117.409 111.534 117.69 110.611 118.259 109.821C118.832 109.031 119.619 108.415 120.619 107.972C121.619 107.528 122.756 107.307 124.028 107.307C125.324 107.307 126.455 107.528 127.42 107.972C128.392 108.415 129.148 109.031 129.688 109.821C130.227 110.611 130.506 111.526 130.523 112.565H126.986ZM133.415 129.909V111.909H136.995V114.108H137.157C137.316 113.756 137.546 113.398 137.847 113.034C138.154 112.665 138.552 112.358 139.04 112.114C139.535 111.864 140.148 111.739 140.881 111.739C141.836 111.739 142.717 111.989 143.523 112.489C144.33 112.983 144.975 113.73 145.458 114.73C145.941 115.724 146.182 116.972 146.182 118.472C146.182 119.932 145.947 121.165 145.475 122.17C145.009 123.17 144.373 123.929 143.566 124.446C142.765 124.957 141.867 125.213 140.873 125.213C140.168 125.213 139.569 125.097 139.075 124.864C138.586 124.631 138.185 124.338 137.873 123.986C137.56 123.628 137.322 123.267 137.157 122.903H137.046V129.909H133.415ZM136.969 118.455C136.969 119.233 137.077 119.912 137.293 120.491C137.509 121.071 137.822 121.523 138.231 121.847C138.64 122.165 139.137 122.324 139.722 122.324C140.313 122.324 140.813 122.162 141.222 121.838C141.631 121.509 141.941 121.054 142.151 120.474C142.367 119.889 142.475 119.216 142.475 118.455C142.475 117.699 142.37 117.034 142.16 116.46C141.95 115.886 141.64 115.437 141.231 115.114C140.822 114.79 140.319 114.628 139.722 114.628C139.131 114.628 138.631 114.784 138.222 115.097C137.819 115.409 137.509 115.852 137.293 116.426C137.077 117 136.969 117.676 136.969 118.455ZM154.809 125.256C153.462 125.256 152.303 124.983 151.332 124.438C150.366 123.886 149.621 123.108 149.099 122.102C148.576 121.091 148.315 119.895 148.315 118.514C148.315 117.168 148.576 115.986 149.099 114.969C149.621 113.952 150.357 113.159 151.306 112.591C152.261 112.023 153.38 111.739 154.664 111.739C155.528 111.739 156.332 111.878 157.076 112.156C157.826 112.429 158.479 112.841 159.036 113.392C159.599 113.943 160.036 114.636 160.349 115.472C160.661 116.301 160.817 117.273 160.817 118.386V119.384H149.763V117.134H157.4C157.4 116.611 157.286 116.148 157.059 115.744C156.832 115.341 156.516 115.026 156.113 114.798C155.715 114.565 155.252 114.449 154.724 114.449C154.172 114.449 153.684 114.577 153.258 114.832C152.837 115.082 152.508 115.42 152.269 115.847C152.03 116.267 151.908 116.736 151.903 117.253V119.392C151.903 120.04 152.022 120.599 152.261 121.071C152.505 121.543 152.849 121.906 153.292 122.162C153.735 122.418 154.261 122.545 154.868 122.545C155.272 122.545 155.641 122.489 155.976 122.375C156.312 122.261 156.599 122.091 156.837 121.864C157.076 121.636 157.258 121.358 157.383 121.028L160.741 121.25C160.57 122.057 160.221 122.761 159.692 123.364C159.17 123.96 158.493 124.426 157.664 124.761C156.84 125.091 155.888 125.256 154.809 125.256ZM167.057 117.432V125H163.427V111.909H166.887V114.219H167.04C167.33 113.457 167.816 112.855 168.498 112.412C169.18 111.963 170.006 111.739 170.978 111.739C171.887 111.739 172.68 111.938 173.356 112.335C174.032 112.733 174.557 113.301 174.932 114.04C175.307 114.773 175.495 115.648 175.495 116.665V125H171.864V117.312C171.87 116.511 171.665 115.886 171.251 115.438C170.836 114.983 170.265 114.756 169.537 114.756C169.049 114.756 168.617 114.861 168.242 115.071C167.873 115.281 167.583 115.588 167.373 115.991C167.168 116.389 167.063 116.869 167.057 117.432ZM183.42 125.213C182.426 125.213 181.525 124.957 180.719 124.446C179.917 123.929 179.281 123.17 178.809 122.17C178.344 121.165 178.111 119.932 178.111 118.472C178.111 116.972 178.352 115.724 178.835 114.73C179.318 113.73 179.96 112.983 180.761 112.489C181.568 111.989 182.451 111.739 183.412 111.739C184.145 111.739 184.755 111.864 185.244 112.114C185.738 112.358 186.136 112.665 186.437 113.034C186.744 113.398 186.977 113.756 187.136 114.108H187.247V107.545H190.869V125H187.29V122.903H187.136C186.966 123.267 186.724 123.628 186.412 123.986C186.105 124.338 185.704 124.631 185.21 124.864C184.721 125.097 184.125 125.213 183.42 125.213ZM184.571 122.324C185.156 122.324 185.65 122.165 186.054 121.847C186.463 121.523 186.775 121.071 186.991 120.491C187.213 119.912 187.324 119.233 187.324 118.455C187.324 117.676 187.216 117 187 116.426C186.784 115.852 186.471 115.409 186.062 115.097C185.653 114.784 185.156 114.628 184.571 114.628C183.974 114.628 183.471 114.79 183.062 115.114C182.653 115.437 182.344 115.886 182.133 116.46C181.923 117.034 181.818 117.699 181.818 118.455C181.818 119.216 181.923 119.889 182.133 120.474C182.349 121.054 182.659 121.509 183.062 121.838C183.471 122.162 183.974 122.324 184.571 122.324Z" fill="#363B64"/>
<g filter="url(#filter1_d_1_4548)">
<path d="M288 419C288 413.477 292.477 409 298 409H433C438.523 409 443 413.477 443 419V432H288V419Z" fill="white"/>
</g>
<g filter="url(#filter2_d_1_4548)">
<path d="M117 419C117 413.477 121.477 409 127 409H262C267.523 409 272 413.477 272 419V432H117V419Z" fill="white"/>
</g>
<g filter="url(#filter3_d_1_4548)">
<rect x="288" y="247" width="155" height="146" rx="10" fill="white"/>
</g>
<path d="M309.244 350.159C308.396 350.159 307.64 350.013 306.977 349.722C306.318 349.426 305.797 349.021 305.415 348.506C305.036 347.987 304.841 347.388 304.83 346.71H307.307C307.322 346.994 307.415 347.244 307.585 347.46C307.759 347.672 307.991 347.837 308.278 347.955C308.566 348.072 308.89 348.131 309.25 348.131C309.625 348.131 309.956 348.064 310.244 347.932C310.532 347.799 310.758 347.616 310.92 347.381C311.083 347.146 311.165 346.875 311.165 346.568C311.165 346.258 311.078 345.983 310.903 345.744C310.733 345.502 310.487 345.312 310.165 345.176C309.847 345.04 309.468 344.972 309.028 344.972H307.943V343.165H309.028C309.4 343.165 309.727 343.1 310.011 342.972C310.299 342.843 310.523 342.665 310.682 342.438C310.841 342.206 310.92 341.938 310.92 341.631C310.92 341.339 310.85 341.083 310.71 340.864C310.574 340.64 310.381 340.466 310.131 340.341C309.884 340.216 309.597 340.153 309.267 340.153C308.934 340.153 308.629 340.214 308.352 340.335C308.076 340.453 307.854 340.621 307.688 340.841C307.521 341.061 307.432 341.318 307.42 341.614H305.062C305.074 340.943 305.265 340.352 305.636 339.841C306.008 339.33 306.508 338.93 307.136 338.642C307.769 338.35 308.483 338.205 309.278 338.205C310.081 338.205 310.784 338.35 311.386 338.642C311.989 338.934 312.456 339.328 312.79 339.824C313.127 340.316 313.294 340.869 313.29 341.483C313.294 342.134 313.091 342.678 312.682 343.114C312.277 343.549 311.748 343.826 311.097 343.943V344.034C311.953 344.144 312.604 344.441 313.051 344.926C313.502 345.407 313.725 346.009 313.722 346.733C313.725 347.396 313.534 347.985 313.148 348.5C312.765 349.015 312.237 349.42 311.562 349.716C310.888 350.011 310.116 350.159 309.244 350.159ZM315.65 350V348.227L319.792 344.392C320.144 344.051 320.44 343.744 320.678 343.472C320.921 343.199 321.105 342.932 321.23 342.67C321.355 342.405 321.417 342.119 321.417 341.812C321.417 341.472 321.339 341.178 321.184 340.932C321.029 340.682 320.817 340.491 320.548 340.358C320.279 340.222 319.974 340.153 319.633 340.153C319.277 340.153 318.966 340.225 318.701 340.369C318.436 340.513 318.231 340.72 318.088 340.989C317.944 341.258 317.872 341.578 317.872 341.949H315.536C315.536 341.187 315.709 340.527 316.053 339.966C316.398 339.405 316.881 338.972 317.502 338.665C318.124 338.358 318.839 338.205 319.65 338.205C320.483 338.205 321.209 338.352 321.826 338.648C322.447 338.939 322.93 339.345 323.275 339.864C323.62 340.383 323.792 340.977 323.792 341.648C323.792 342.087 323.705 342.521 323.531 342.949C323.36 343.377 323.055 343.852 322.616 344.375C322.177 344.894 321.557 345.517 320.758 346.244L319.059 347.909V347.989H323.946V350H315.65ZM332.257 347.818V347.205C332.257 346.739 332.356 346.311 332.553 345.92C332.754 345.527 333.043 345.212 333.422 344.977C333.805 344.739 334.271 344.619 334.82 344.619C335.377 344.619 335.845 344.737 336.223 344.972C336.606 345.206 336.894 345.521 337.087 345.915C337.284 346.305 337.382 346.735 337.382 347.205V347.818C337.382 348.284 337.284 348.714 337.087 349.108C336.89 349.498 336.6 349.811 336.218 350.045C335.835 350.284 335.369 350.403 334.82 350.403C334.263 350.403 333.795 350.284 333.417 350.045C333.038 349.811 332.75 349.498 332.553 349.108C332.356 348.714 332.257 348.284 332.257 347.818ZM333.911 347.205V347.818C333.911 348.087 333.975 348.341 334.104 348.58C334.237 348.818 334.475 348.938 334.82 348.938C335.165 348.938 335.4 348.82 335.525 348.585C335.653 348.35 335.718 348.095 335.718 347.818V347.205C335.718 346.928 335.657 346.67 335.536 346.432C335.415 346.193 335.176 346.074 334.82 346.074C334.479 346.074 334.242 346.193 334.11 346.432C333.977 346.67 333.911 346.928 333.911 347.205ZM326.286 341.159V340.545C326.286 340.076 326.386 339.646 326.587 339.256C326.788 338.862 327.078 338.547 327.456 338.312C327.839 338.078 328.301 337.96 328.843 337.96C329.403 337.96 329.873 338.078 330.252 338.312C330.631 338.547 330.918 338.862 331.115 339.256C331.312 339.646 331.411 340.076 331.411 340.545V341.159C331.411 341.629 331.311 342.059 331.11 342.449C330.913 342.839 330.623 343.152 330.24 343.386C329.862 343.617 329.396 343.733 328.843 343.733C328.29 343.733 327.822 343.616 327.439 343.381C327.061 343.142 326.773 342.83 326.576 342.443C326.382 342.053 326.286 341.625 326.286 341.159ZM327.951 340.545V341.159C327.951 341.436 328.015 341.691 328.144 341.926C328.276 342.161 328.509 342.278 328.843 342.278C329.191 342.278 329.428 342.161 329.553 341.926C329.682 341.691 329.746 341.436 329.746 341.159V340.545C329.746 340.269 329.686 340.011 329.564 339.773C329.443 339.534 329.203 339.415 328.843 339.415C328.506 339.415 328.273 339.536 328.144 339.778C328.015 340.021 327.951 340.277 327.951 340.545ZM327.036 350L335.036 338.364H336.525L328.525 350H327.036Z" fill="#363B64"/>
<path d="M310.672 366.493C310.619 366.022 310.4 365.658 310.016 365.399C309.631 365.137 309.147 365.006 308.564 365.006C308.146 365.006 307.785 365.073 307.48 365.205C307.175 365.335 306.938 365.513 306.769 365.742C306.603 365.968 306.521 366.224 306.521 366.513C306.521 366.755 306.577 366.964 306.69 367.139C306.806 367.315 306.956 367.462 307.142 367.582C307.331 367.698 307.533 367.795 307.749 367.875C307.964 367.951 308.171 368.014 308.37 368.064L309.364 368.322C309.689 368.402 310.022 368.51 310.364 368.646C310.705 368.781 311.022 368.96 311.313 369.183C311.605 369.405 311.84 369.68 312.019 370.008C312.201 370.336 312.293 370.729 312.293 371.186C312.293 371.763 312.143 372.275 311.845 372.722C311.55 373.17 311.121 373.523 310.558 373.781C309.997 374.04 309.32 374.169 308.524 374.169C307.762 374.169 307.102 374.048 306.545 373.806C305.989 373.564 305.553 373.221 305.238 372.777C304.923 372.33 304.749 371.799 304.716 371.186H306.257C306.287 371.554 306.406 371.861 306.615 372.106C306.827 372.348 307.097 372.528 307.425 372.648C307.757 372.764 308.12 372.822 308.514 372.822C308.948 372.822 309.335 372.754 309.673 372.618C310.014 372.479 310.282 372.286 310.478 372.041C310.674 371.793 310.771 371.503 310.771 371.171C310.771 370.87 310.685 370.623 310.513 370.43C310.344 370.238 310.113 370.079 309.822 369.953C309.533 369.827 309.207 369.716 308.842 369.62L307.639 369.292C306.824 369.07 306.178 368.743 305.7 368.312C305.226 367.882 304.989 367.312 304.989 366.602C304.989 366.016 305.148 365.504 305.467 365.066C305.785 364.629 306.216 364.289 306.759 364.047C307.303 363.802 307.916 363.679 308.599 363.679C309.288 363.679 309.896 363.8 310.423 364.042C310.954 364.284 311.371 364.617 311.676 365.041C311.981 365.462 312.14 365.946 312.153 366.493H310.672ZM314.149 376.864V366.364H315.601V367.602H315.725C315.811 367.442 315.936 367.259 316.098 367.05C316.26 366.841 316.486 366.659 316.774 366.503C317.062 366.344 317.444 366.264 317.918 366.264C318.534 366.264 319.084 366.42 319.568 366.732C320.052 367.043 320.431 367.492 320.707 368.079C320.985 368.665 321.124 369.371 321.124 370.197C321.124 371.022 320.987 371.73 320.712 372.32C320.436 372.906 320.059 373.359 319.578 373.677C319.097 373.992 318.549 374.149 317.932 374.149C317.468 374.149 317.089 374.071 316.794 373.915C316.502 373.76 316.274 373.577 316.108 373.369C315.942 373.16 315.815 372.974 315.725 372.812H315.636V376.864H314.149ZM315.606 370.182C315.606 370.719 315.684 371.189 315.839 371.594C315.995 371.998 316.221 372.315 316.516 372.543C316.811 372.769 317.172 372.881 317.599 372.881C318.043 372.881 318.415 372.764 318.713 372.528C319.011 372.29 319.237 371.967 319.389 371.559C319.545 371.151 319.623 370.692 319.623 370.182C319.623 369.678 319.547 369.226 319.394 368.825C319.245 368.424 319.02 368.107 318.718 367.875C318.42 367.643 318.047 367.527 317.599 367.527C317.168 367.527 316.804 367.638 316.506 367.86C316.211 368.082 315.987 368.392 315.834 368.79C315.682 369.187 315.606 369.652 315.606 370.182ZM326.146 374.154C325.43 374.154 324.806 373.99 324.272 373.662C323.738 373.334 323.324 372.875 323.029 372.285C322.734 371.695 322.587 371.005 322.587 370.217C322.587 369.424 322.734 368.732 323.029 368.138C323.324 367.545 323.738 367.085 324.272 366.756C324.806 366.428 325.43 366.264 326.146 366.264C326.862 366.264 327.487 366.428 328.021 366.756C328.554 367.085 328.969 367.545 329.263 368.138C329.558 368.732 329.706 369.424 329.706 370.217C329.706 371.005 329.558 371.695 329.263 372.285C328.969 372.875 328.554 373.334 328.021 373.662C327.487 373.99 326.862 374.154 326.146 374.154ZM326.151 372.906C326.615 372.906 327 372.784 327.305 372.538C327.61 372.293 327.835 371.967 327.981 371.559C328.13 371.151 328.205 370.702 328.205 370.212C328.205 369.724 328.13 369.277 327.981 368.869C327.835 368.458 327.61 368.129 327.305 367.88C327 367.631 326.615 367.507 326.151 367.507C325.684 367.507 325.296 367.631 324.988 367.88C324.683 368.129 324.456 368.458 324.307 368.869C324.161 369.277 324.088 369.724 324.088 370.212C324.088 370.702 324.161 371.151 324.307 371.559C324.456 371.967 324.683 372.293 324.988 372.538C325.296 372.784 325.684 372.906 326.151 372.906ZM335.07 366.364V367.557H330.899V366.364H335.07ZM332.017 364.534H333.504V371.758C333.504 372.046 333.547 372.263 333.633 372.409C333.719 372.552 333.83 372.649 333.966 372.702C334.105 372.752 334.256 372.777 334.419 372.777C334.538 372.777 334.642 372.769 334.732 372.752C334.821 372.736 334.891 372.722 334.941 372.712L335.209 373.94C335.123 373.973 335 374.007 334.841 374.04C334.682 374.076 334.483 374.096 334.245 374.099C333.853 374.106 333.489 374.036 333.151 373.891C332.813 373.745 332.539 373.519 332.331 373.214C332.122 372.91 332.017 372.527 332.017 372.066V364.534ZM336.854 374V366.364H338.341V374H336.854ZM337.605 365.185C337.346 365.185 337.124 365.099 336.939 364.927C336.756 364.751 336.665 364.542 336.665 364.3C336.665 364.055 336.756 363.846 336.939 363.674C337.124 363.498 337.346 363.411 337.605 363.411C337.863 363.411 338.084 363.498 338.266 363.674C338.452 363.846 338.545 364.055 338.545 364.3C338.545 364.542 338.452 364.751 338.266 364.927C338.084 365.099 337.863 365.185 337.605 365.185ZM344.115 366.364V367.557H339.799V366.364H344.115ZM340.983 374V365.479C340.983 365.001 341.087 364.605 341.296 364.29C341.505 363.972 341.781 363.735 342.126 363.58C342.471 363.42 342.845 363.341 343.25 363.341C343.548 363.341 343.803 363.366 344.015 363.415C344.227 363.462 344.385 363.505 344.488 363.545L344.14 364.748C344.07 364.728 343.981 364.705 343.871 364.678C343.762 364.648 343.629 364.634 343.473 364.634C343.112 364.634 342.854 364.723 342.698 364.902C342.545 365.081 342.469 365.339 342.469 365.678V374H340.983ZM346.728 376.864C346.506 376.864 346.304 376.845 346.122 376.809C345.939 376.776 345.803 376.739 345.714 376.7L346.072 375.482C346.344 375.554 346.586 375.586 346.798 375.576C347.01 375.566 347.197 375.487 347.36 375.337C347.525 375.188 347.671 374.945 347.797 374.607L347.981 374.099L345.187 366.364H346.778L348.712 372.29H348.791L350.725 366.364H352.321L349.174 375.019C349.028 375.417 348.843 375.753 348.617 376.028C348.392 376.307 348.123 376.516 347.812 376.655C347.5 376.794 347.139 376.864 346.728 376.864ZM357.823 374V363.818H361.452C362.244 363.818 362.9 363.962 363.421 364.251C363.941 364.539 364.33 364.933 364.589 365.434C364.847 365.931 364.977 366.491 364.977 367.114C364.977 367.741 364.846 368.304 364.584 368.805C364.325 369.302 363.934 369.696 363.411 369.988C362.89 370.276 362.236 370.42 361.447 370.42H358.951V369.118H361.308C361.808 369.118 362.214 369.032 362.526 368.859C362.837 368.684 363.066 368.445 363.212 368.143C363.358 367.842 363.431 367.499 363.431 367.114C363.431 366.73 363.358 366.388 363.212 366.09C363.066 365.792 362.836 365.558 362.521 365.389C362.209 365.22 361.798 365.136 361.288 365.136H359.359V374H357.823ZM366.798 374V366.364H368.235V367.577H368.315C368.454 367.166 368.699 366.843 369.05 366.607C369.405 366.369 369.806 366.249 370.254 366.249C370.346 366.249 370.456 366.253 370.582 366.259C370.711 366.266 370.812 366.274 370.885 366.284V367.706C370.825 367.689 370.719 367.671 370.567 367.651C370.414 367.628 370.262 367.616 370.109 367.616C369.758 367.616 369.445 367.691 369.17 367.84C368.898 367.986 368.683 368.19 368.523 368.452C368.364 368.71 368.285 369.005 368.285 369.337V374H366.798ZM375.329 374.154C374.577 374.154 373.929 373.993 373.385 373.672C372.845 373.347 372.427 372.891 372.132 372.305C371.841 371.715 371.695 371.024 371.695 370.232C371.695 369.449 371.841 368.76 372.132 368.163C372.427 367.567 372.838 367.101 373.365 366.766C373.896 366.432 374.515 366.264 375.225 366.264C375.656 366.264 376.073 366.335 376.478 366.478C376.882 366.621 377.245 366.844 377.566 367.149C377.888 367.454 378.141 367.85 378.327 368.337C378.513 368.821 378.605 369.41 378.605 370.102V370.629H372.535V369.516H377.149C377.149 369.125 377.069 368.778 376.91 368.477C376.751 368.172 376.527 367.931 376.239 367.756C375.954 367.58 375.619 367.492 375.235 367.492C374.817 367.492 374.452 367.595 374.141 367.8C373.833 368.003 373.594 368.268 373.425 368.596C373.259 368.921 373.176 369.274 373.176 369.655V370.525C373.176 371.035 373.266 371.469 373.445 371.827C373.627 372.185 373.881 372.459 374.206 372.648C374.53 372.833 374.91 372.926 375.344 372.926C375.626 372.926 375.883 372.886 376.115 372.807C376.347 372.724 376.547 372.601 376.716 372.439C376.885 372.277 377.015 372.076 377.104 371.837L378.511 372.091C378.398 372.505 378.196 372.868 377.904 373.18C377.616 373.488 377.253 373.728 376.816 373.901C376.381 374.07 375.886 374.154 375.329 374.154ZM380.395 374V366.364H381.822V367.607H381.916C382.075 367.186 382.335 366.857 382.697 366.622C383.058 366.384 383.49 366.264 383.994 366.264C384.505 366.264 384.932 366.384 385.277 366.622C385.625 366.861 385.882 367.189 386.047 367.607H386.127C386.309 367.199 386.599 366.874 386.997 366.632C387.395 366.387 387.869 366.264 388.419 366.264C389.112 366.264 389.677 366.481 390.114 366.915C390.555 367.35 390.775 368.004 390.775 368.879V374H389.289V369.018C389.289 368.501 389.148 368.127 388.866 367.895C388.585 367.663 388.248 367.547 387.857 367.547C387.373 367.547 386.997 367.696 386.729 367.994C386.46 368.289 386.326 368.669 386.326 369.133V374H384.844V368.924C384.844 368.51 384.715 368.177 384.457 367.925C384.198 367.673 383.862 367.547 383.447 367.547C383.166 367.547 382.905 367.621 382.667 367.771C382.431 367.916 382.241 368.12 382.095 368.382C381.953 368.644 381.881 368.947 381.881 369.292V374H380.395ZM392.908 374V366.364H394.394V374H392.908ZM393.659 365.185C393.4 365.185 393.178 365.099 392.992 364.927C392.81 364.751 392.719 364.542 392.719 364.3C392.719 364.055 392.81 363.846 392.992 363.674C393.178 363.498 393.4 363.411 393.659 363.411C393.917 363.411 394.137 363.498 394.32 363.674C394.505 363.846 394.598 364.055 394.598 364.3C394.598 364.542 394.505 364.751 394.32 364.927C394.137 365.099 393.917 365.185 393.659 365.185ZM401.371 370.833V366.364H402.863V374H401.401V372.678H401.322C401.146 373.085 400.864 373.425 400.477 373.697C400.092 373.965 399.613 374.099 399.04 374.099C398.549 374.099 398.115 373.992 397.737 373.776C397.363 373.558 397.068 373.234 396.852 372.807C396.64 372.379 396.534 371.851 396.534 371.221V366.364H398.021V371.042C398.021 371.562 398.165 371.977 398.453 372.285C398.742 372.593 399.116 372.747 399.577 372.747C399.855 372.747 400.132 372.678 400.407 372.538C400.685 372.399 400.916 372.189 401.098 371.907C401.284 371.625 401.375 371.267 401.371 370.833ZM405 374V366.364H406.427V367.607H406.522C406.681 367.186 406.941 366.857 407.302 366.622C407.663 366.384 408.096 366.264 408.6 366.264C409.11 366.264 409.538 366.384 409.882 366.622C410.23 366.861 410.487 367.189 410.653 367.607H410.733C410.915 367.199 411.205 366.874 411.603 366.632C412 366.387 412.474 366.264 413.024 366.264C413.717 366.264 414.282 366.481 414.72 366.915C415.161 367.35 415.381 368.004 415.381 368.879V374H413.894V369.018C413.894 368.501 413.754 368.127 413.472 367.895C413.19 367.663 412.854 367.547 412.463 367.547C411.979 367.547 411.603 367.696 411.334 367.994C411.066 368.289 410.931 368.669 410.931 369.133V374H409.45V368.924C409.45 368.51 409.321 368.177 409.062 367.925C408.804 367.673 408.467 367.547 408.053 367.547C407.771 367.547 407.511 367.621 407.272 367.771C407.037 367.916 406.846 368.12 406.701 368.382C406.558 368.644 406.487 368.947 406.487 369.292V374H405Z" fill="#ADAFBD"/>
<path d="M323.999 271.066C312.987 271.066 304.06 279.993 304.06 291.005C304.06 302.017 312.987 310.943 323.999 310.943C335.012 310.943 343.938 302.017 343.938 291.005C343.938 279.994 335.012 271.067 323.999 271.067L323.999 271.066ZM333.143 299.824C332.786 300.409 332.019 300.595 331.433 300.235C326.752 297.376 320.859 296.728 313.918 298.314C313.249 298.466 312.583 298.047 312.43 297.378C312.277 296.709 312.695 296.043 313.365 295.89C320.96 294.154 327.475 294.902 332.731 298.114C333.317 298.474 333.502 299.238 333.143 299.824ZM335.583 294.394C335.133 295.126 334.176 295.357 333.445 294.907C328.086 291.612 319.916 290.658 313.577 292.582C312.755 292.83 311.886 292.367 311.637 291.546C311.389 290.724 311.853 289.858 312.673 289.608C319.915 287.41 328.917 288.475 335.071 292.257C335.802 292.707 336.033 293.664 335.583 294.394V294.394ZM335.793 288.74C329.367 284.924 318.764 284.573 312.629 286.435C311.644 286.734 310.602 286.177 310.303 285.192C310.005 284.206 310.56 283.165 311.546 282.866C318.589 280.728 330.298 281.141 337.696 285.533C338.584 286.059 338.875 287.203 338.349 288.088C337.825 288.974 336.677 289.267 335.794 288.74H335.793Z" fill="url(#paint0_linear_1_4548)"/>
<g filter="url(#filter4_d_1_4548)">
<rect x="117" y="305" width="155" height="88" rx="10" fill="white"/>
</g>
<path d="M152.886 336.031C153.599 336.442 154.354 336.97 154.929 337.53L154.704 337.757C153.568 337.636 152.373 337.787 151.297 337.804C151.177 337.683 150.935 337.501 151.16 337.349L152.886 336.031ZM172.956 350.132C172.971 350.644 173.019 351.084 172.819 351.609C170.746 352.199 169.384 350.003 167.372 350.334L167.599 351.472C169.46 351.533 170.623 353.319 172.546 353.242C172.273 353.788 172.668 355.226 171.458 354.651C170.201 354.349 169.293 353.242 167.916 353.242C167.75 353.547 167.855 353.969 167.826 354.33C169.278 354.558 170.323 355.786 171.775 356.013C171.638 356.512 171.503 357.07 171.094 357.375C169.913 357.087 168.99 356.026 167.732 356.056L167.509 357.102C168.703 357.132 169.476 358.19 170.55 358.507C170.579 358.948 170.186 359.342 169.958 359.735C169.005 359.449 168.278 358.63 167.188 358.69C167.173 358.28 167.417 357.814 167.325 357.375C166.101 357.739 165.281 356.602 164.374 355.919C164.348 353.687 161.999 352.223 161.874 350.132C161.851 349.715 161.914 349.27 162.104 348.792C162.876 347.006 162.634 344.688 161.787 343.023C161.53 342.585 161.074 342.239 160.649 341.981C161.271 343.299 162.028 344.856 161.65 346.475C161.606 347.726 160.868 348.927 160.86 350.132C160.857 350.562 160.949 350.992 161.196 351.426C162.18 353.199 163.951 354.877 163.285 357.101C163.102 357.784 162.557 358.312 162.421 359.008C163.573 359.961 164.661 361.036 166.19 361.097C166.734 360.749 166.432 359.207 167.552 359.918L169.187 360.736C169.068 361.174 168.701 361.567 168.369 361.868C167.749 361.566 167.144 361.204 166.37 361.233C166.142 361.476 165.946 361.747 165.963 362.095C166.507 362.184 167.007 362.414 167.462 362.733C167.25 363.187 166.839 363.472 166.46 363.821L165.192 363.367C164.98 363.67 164.54 363.989 164.695 364.322C164.981 364.444 165.298 364.61 165.509 364.822C164.949 365.427 164.239 365.817 163.556 366.228C162.968 364.305 161.03 362.957 161.196 360.733L161.106 360.643C160.651 361.155 160.803 361.974 160.832 362.639C161.378 364.032 162.678 365.108 162.875 366.635C162.648 367.028 162.134 367.107 161.74 367.273C161.786 364.519 157.609 362.431 160.288 359.645C161.181 358.281 162.678 356.979 162.148 355.101C161.603 353.288 159.677 352.165 159.694 350.132L159.697 349.974C160.136 347.854 161.468 345.598 160.378 343.344C160.074 342.437 159.396 341.406 158.473 341.027C159.849 342.602 160.395 345.173 159.607 347.293C159.21 348.137 158.664 349.141 158.609 350.132H158.606C158.577 350.65 158.682 351.165 159.016 351.653C160.061 353.349 161.877 355.212 160.832 357.422C159.652 359.192 157.594 360.993 158.743 363.324C159.576 364.717 160.863 366.106 160.516 367.818L159.154 368.272C160.062 365.079 155.612 363.203 157.475 360.009C158.625 358.299 160.682 356.694 159.517 354.424C158.821 353.018 157.383 352.185 157.428 350.428L157.478 350.132C157.946 347.64 159.841 345.28 158.516 342.616C158.168 341.83 157.473 341.028 156.7 340.573L156.654 340.62C158.198 342.118 158.668 344.584 157.835 346.566C157.447 347.729 156.594 348.887 156.421 350.133C156.338 350.72 156.408 351.329 156.747 351.971C157.731 353.528 159.456 355.181 158.379 357.195C157.246 358.858 155.353 360.477 156.109 362.64C156.942 364.533 158.68 366.336 157.742 368.683L156.336 369C157.456 366.713 155.777 364.444 154.794 362.46C153.598 359.614 157.364 358.252 157.424 355.65C157.41 353.971 155.625 353.017 155.248 351.473C154.475 350.821 153.674 351.733 152.751 351.563C152.069 351.7 151.022 350.625 150.615 351.791C150.13 353.5 147.922 354.757 148.892 356.785C149.816 358.587 152.038 359.904 151.296 362.236C150.631 364.414 148.435 366.488 149.797 369C149.238 368.819 148.193 369.166 148.208 368.272C147.346 365.23 151.023 363.457 149.887 360.417C149.359 358.554 146.951 357.526 147.481 355.286C147.873 353.442 149.942 352.153 149.651 350.133C149.626 349.955 149.584 349.78 149.527 349.61C148.755 347.431 147.179 345.25 148.118 342.707C148.376 341.98 148.891 341.36 149.343 340.71C147.845 341.512 147.089 343.208 147.12 344.933C147.055 346.809 148.44 348.416 148.638 350.133C148.715 350.826 148.602 351.535 148.118 352.288C147.135 353.622 145.85 355.028 146.439 356.784C146.999 358.556 149.209 359.629 149.073 361.689C149.058 364.125 146.228 365.641 147.03 368.366L145.621 367.909C145.062 365.488 147.634 364.249 147.664 362.009C148.028 359.434 144.743 358.478 144.94 355.967C144.926 354.059 146.605 352.851 147.346 351.246C147.474 350.856 147.516 350.487 147.499 350.133C147.408 348.359 145.81 346.972 146.075 344.977C146.164 343.509 146.664 342.222 147.617 341.118C146.301 341.646 145.758 343.161 145.394 344.433C144.763 346.472 146.269 348.306 146.42 350.133C146.487 350.94 146.29 351.742 145.531 352.562C144.441 353.847 143.335 355.468 144.122 357.195C144.956 359.101 147.575 360.584 146.439 362.96C145.819 364.459 144.335 365.594 144.396 367.364C144.003 367.198 143.595 367.032 143.261 366.73C143.261 364.475 146.468 363.066 144.94 360.69C144.805 361.159 144.776 361.796 144.67 362.326C144.139 363.704 143.005 364.807 142.58 366.232C141.87 365.958 141.128 365.382 140.537 364.776L141.355 364.276C141.264 363.972 141.023 363.715 140.811 363.458C140.28 363.383 139.931 363.732 139.493 363.869C139.115 363.535 138.75 363.232 138.448 362.823C138.72 362.05 140.841 362.689 139.766 361.418C139.041 360.964 138.312 361.612 137.677 361.915L136.815 360.827C137.557 360.373 138.297 359.736 139.219 359.919C139.446 360.328 139.462 360.93 139.9 361.144C141.459 361.113 142.564 359.934 143.759 359.01C142.926 357.771 142.248 356.059 142.988 354.56C143.581 353.058 145.126 351.793 145.196 350.132C145.211 349.754 145.153 349.356 144.987 348.928C144.17 346.824 143.882 343.98 145.441 342.118C144.594 342.346 144.094 343.402 143.806 344.205C142.868 346.259 144.054 348.163 144.095 350.132C144.1 350.486 144.072 350.841 143.986 351.199C143.183 352.818 141.883 354.239 141.672 356.102C140.749 356.691 139.991 357.722 138.675 357.374C138.629 357.722 138.735 358.252 138.855 358.646C137.812 358.602 137.1 359.371 136.222 359.734C135.754 359.584 135.632 358.979 135.451 358.556C136.479 358.209 137.221 357.177 138.402 357.194C138.538 356.813 138.325 356.465 138.265 356.102C136.796 355.45 134.468 359.325 134.272 355.965C135.74 355.875 136.677 354.512 138.131 354.376L138.174 353.288C136.525 353.121 135.464 354.817 133.815 354.65L133.451 353.198C135.359 353.317 136.495 351.608 138.311 351.516C138.553 351.198 138.582 350.729 138.628 350.291C136.646 350.032 135.285 352.23 133.181 351.562C133.181 351.562 133.108 350.648 133.069 350.132H133.072C133.064 350.018 133.055 349.904 133.044 349.79C134.92 350.518 136.569 349.17 138.174 348.474C138.583 348.352 139.219 348.564 139.402 348.11C139.387 347.762 140.021 347.355 139.493 347.112C137.146 346.793 135.587 349.625 133.181 348.337L133 347.973C133.5 341.132 137.358 334.519 143.759 331.265C146.351 329.783 149.572 329.028 152.82 329.001C156.74 328.968 160.701 329.997 163.647 332.083C166.508 333.838 169.245 336.731 170.73 339.667C172.151 342.24 172.805 345.127 173 348.201C170.517 350.077 168.852 346.434 166.324 347.249C166.46 347.643 166.536 348.051 166.825 348.384C169.065 348.368 170.608 350.715 172.953 349.79L172.956 350.132ZM144.439 341.707C142.865 340.678 140.869 341.647 139.402 342.208C139.266 340.83 138.706 339.575 137.54 338.666C137.427 338.61 137.27 338.492 137.129 338.483C137.045 338.477 136.965 338.512 136.902 338.619C137.431 341.873 135.316 344.143 133.818 346.612C134.317 347.019 135.118 346.959 135.724 346.839C137.312 346.203 138.826 345.097 140.717 345.476C141.277 344.523 142.217 343.599 142.987 342.843C143.458 342.435 144.105 342.176 144.439 341.707ZM149.253 343.751C149.222 343.947 149.268 344.296 149.57 344.161C150.04 343.51 150.872 344.025 151.386 344.071V343.888C151.104 343.445 150.523 343.222 149.934 343.244C149.798 343.249 149.66 343.269 149.526 343.3C149.329 343.344 149.192 343.524 149.253 343.751ZM156.653 341.801C156.23 340.862 155.262 340.482 154.383 340.255C153.952 340.202 153.505 340.166 153.061 340.162C152.978 340.161 152.895 340.16 152.812 340.162C151.572 340.187 150.387 340.506 149.663 341.527C149.559 341.815 149.102 342.22 149.526 342.478C150.479 342.418 151.568 342.298 152.203 343.116C152.203 343.844 152.673 344.811 151.886 345.159C151.234 344.556 150.462 345.416 149.753 344.932C149.42 344.735 149.209 344.965 149.072 345.252C148.875 347.129 149.857 349.2 151.613 350.244C152.324 350.5 153.28 350.744 154.023 350.38C155.808 349.549 156.548 347.643 156.881 345.887C156.836 345.553 156.852 344.901 156.383 344.885C155.854 345.22 155.082 345.022 154.521 344.885C154.189 344.992 154.174 345.478 153.796 345.57L153.566 345.386C153.369 344.555 153.247 343.374 154.02 342.799C154.883 342.451 155.897 342.299 156.79 342.572C156.957 342.284 156.7 342.058 156.653 341.801ZM155.742 343.293C155.682 343.295 155.624 343.298 155.564 343.3C155.248 343.511 154.323 343.359 154.657 344.071C155.232 343.616 156.035 343.935 156.61 344.161C156.822 344.055 156.776 343.843 156.79 343.661C156.605 343.317 156.164 343.285 155.742 343.293ZM162.331 336.894C161.211 336.834 160.273 337.47 159.244 337.758C159.154 336.882 159.819 335.957 159.971 335.077C158.307 335.184 156.989 336.186 155.612 336.987C155.292 336.215 154.974 335.443 154.657 334.67L156.474 332.944L156.52 332.717L154.067 332.58C153.644 331.84 153.478 330.948 152.978 330.267C152.57 331.039 152.295 331.855 151.887 332.627L149.437 332.764V332.944L151.296 334.623C151.069 335.487 150.858 336.424 150.298 337.077C149.209 336.424 148.135 335.714 146.94 335.26C146.653 335.168 146.243 335.017 145.986 335.214C146.363 336.047 146.893 336.942 146.804 337.851C146.304 337.759 145.911 337.439 145.441 337.304C144.88 337.151 144.214 336.852 143.669 337.034C144.577 338.304 145.319 339.634 145.575 341.163C148.588 339.709 152.102 338.909 155.749 339.531C157.459 339.803 159.031 340.499 160.56 341.073C160.62 339.47 161.633 338.181 162.331 336.894ZM167.505 345.613C169.048 346.021 170.595 347.702 172.228 346.612C170.806 344.251 168.688 342.071 169.277 338.983C169.339 338.773 169.203 338.559 169.007 338.529C168.084 338.907 167.369 339.816 167.004 340.71C166.854 341.238 166.765 341.8 166.554 342.298C165.448 341.723 164.269 341.166 162.922 341.3C162.436 341.361 161.74 341.393 161.65 341.891C163.178 342.708 164.435 344.071 165.372 345.523C166.024 345.417 166.824 345.508 167.505 345.613ZM151.342 347.747L151.386 348.02C151.977 348.414 152.159 349.082 152.978 349.022C153.704 349.065 154.249 348.384 154.61 347.84C153.628 347.704 152.432 347.914 151.342 347.747ZM152.16 346.522C152.189 346.643 152.085 346.824 152.25 346.886C152.734 346.78 153.612 347.143 153.882 346.568C153.693 346.356 153.385 346.26 153.061 346.26C152.738 346.26 152.403 346.355 152.16 346.522Z" fill="url(#paint1_linear_1_4548)"/>
<path d="M193.006 331.364V343H190.545V333.699H190.477L187.812 335.369V333.188L190.693 331.364H193.006ZM195.931 343V341.227L200.073 337.392C200.426 337.051 200.721 336.744 200.96 336.472C201.202 336.199 201.386 335.932 201.511 335.67C201.636 335.405 201.698 335.119 201.698 334.812C201.698 334.472 201.621 334.178 201.465 333.932C201.31 333.682 201.098 333.491 200.829 333.358C200.56 333.222 200.255 333.153 199.914 333.153C199.558 333.153 199.248 333.225 198.982 333.369C198.717 333.513 198.513 333.72 198.369 333.989C198.225 334.258 198.153 334.578 198.153 334.949H195.818C195.818 334.187 195.99 333.527 196.335 332.966C196.679 332.405 197.162 331.972 197.784 331.665C198.405 331.358 199.121 331.205 199.931 331.205C200.765 331.205 201.49 331.352 202.107 331.648C202.729 331.939 203.212 332.345 203.556 332.864C203.901 333.383 204.073 333.977 204.073 334.648C204.073 335.087 203.986 335.521 203.812 335.949C203.642 336.377 203.337 336.852 202.897 337.375C202.458 337.894 201.839 338.517 201.039 339.244L199.34 340.909V340.989H204.227V343H195.931ZM212.539 340.818V340.205C212.539 339.739 212.637 339.311 212.834 338.92C213.035 338.527 213.325 338.212 213.704 337.977C214.086 337.739 214.552 337.619 215.101 337.619C215.658 337.619 216.126 337.737 216.505 337.972C216.887 338.206 217.175 338.521 217.368 338.915C217.565 339.305 217.664 339.735 217.664 340.205V340.818C217.664 341.284 217.565 341.714 217.368 342.108C217.171 342.498 216.882 342.811 216.499 343.045C216.116 343.284 215.65 343.403 215.101 343.403C214.544 343.403 214.077 343.284 213.698 343.045C213.319 342.811 213.031 342.498 212.834 342.108C212.637 341.714 212.539 341.284 212.539 340.818ZM214.192 340.205V340.818C214.192 341.087 214.257 341.341 214.385 341.58C214.518 341.818 214.757 341.938 215.101 341.938C215.446 341.938 215.681 341.82 215.806 341.585C215.935 341.35 215.999 341.095 215.999 340.818V340.205C215.999 339.928 215.938 339.67 215.817 339.432C215.696 339.193 215.457 339.074 215.101 339.074C214.76 339.074 214.524 339.193 214.391 339.432C214.258 339.67 214.192 339.928 214.192 340.205ZM206.567 334.159V333.545C206.567 333.076 206.668 332.646 206.868 332.256C207.069 331.862 207.359 331.547 207.738 331.312C208.12 331.078 208.582 330.96 209.124 330.96C209.685 330.96 210.154 331.078 210.533 331.312C210.912 331.547 211.2 331.862 211.397 332.256C211.594 332.646 211.692 333.076 211.692 333.545V334.159C211.692 334.629 211.592 335.059 211.391 335.449C211.194 335.839 210.904 336.152 210.522 336.386C210.143 336.617 209.677 336.733 209.124 336.733C208.571 336.733 208.103 336.616 207.721 336.381C207.342 336.142 207.054 335.83 206.857 335.443C206.664 335.053 206.567 334.625 206.567 334.159ZM208.232 333.545V334.159C208.232 334.436 208.296 334.691 208.425 334.926C208.558 335.161 208.791 335.278 209.124 335.278C209.472 335.278 209.709 335.161 209.834 334.926C209.963 334.691 210.027 334.436 210.027 334.159V333.545C210.027 333.269 209.967 333.011 209.846 332.773C209.724 332.534 209.484 332.415 209.124 332.415C208.787 332.415 208.554 332.536 208.425 332.778C208.296 333.021 208.232 333.277 208.232 333.545ZM207.317 343L215.317 331.364H216.806L208.806 343H207.317Z" fill="#363B64"/>
<path d="M196.575 360.129H195.024C194.964 359.798 194.853 359.506 194.691 359.254C194.529 359.002 194.33 358.789 194.094 358.613C193.859 358.437 193.596 358.305 193.304 358.215C193.016 358.126 192.709 358.081 192.384 358.081C191.798 358.081 191.272 358.228 190.808 358.523C190.348 358.818 189.983 359.251 189.714 359.821C189.449 360.391 189.317 361.087 189.317 361.909C189.317 362.738 189.449 363.437 189.714 364.007C189.983 364.577 190.349 365.008 190.813 365.3C191.277 365.591 191.799 365.737 192.379 365.737C192.701 365.737 193.006 365.694 193.294 365.608C193.586 365.518 193.849 365.388 194.085 365.215C194.32 365.043 194.519 364.832 194.681 364.584C194.847 364.332 194.961 364.044 195.024 363.719L196.575 363.724C196.492 364.224 196.332 364.685 196.093 365.106C195.858 365.523 195.554 365.885 195.183 366.19C194.815 366.491 194.394 366.725 193.92 366.891C193.446 367.056 192.929 367.139 192.369 367.139C191.488 367.139 190.702 366.93 190.013 366.513C189.323 366.092 188.78 365.49 188.382 364.708C187.988 363.926 187.79 362.993 187.79 361.909C187.79 360.822 187.989 359.889 188.387 359.11C188.785 358.328 189.328 357.728 190.018 357.31C190.707 356.889 191.491 356.679 192.369 356.679C192.91 356.679 193.413 356.757 193.881 356.913C194.351 357.065 194.774 357.29 195.148 357.589C195.523 357.884 195.833 358.245 196.078 358.673C196.323 359.097 196.489 359.582 196.575 360.129ZM201.651 367.154C200.935 367.154 200.31 366.99 199.777 366.662C199.243 366.334 198.829 365.875 198.534 365.285C198.239 364.695 198.091 364.005 198.091 363.217C198.091 362.424 198.239 361.732 198.534 361.138C198.829 360.545 199.243 360.085 199.777 359.756C200.31 359.428 200.935 359.264 201.651 359.264C202.367 359.264 202.992 359.428 203.525 359.756C204.059 360.085 204.473 360.545 204.768 361.138C205.063 361.732 205.21 362.424 205.21 363.217C205.21 364.005 205.063 364.695 204.768 365.285C204.473 365.875 204.059 366.334 203.525 366.662C202.992 366.99 202.367 367.154 201.651 367.154ZM201.656 365.906C202.12 365.906 202.504 365.784 202.809 365.538C203.114 365.293 203.34 364.967 203.485 364.559C203.634 364.151 203.709 363.702 203.709 363.212C203.709 362.724 203.634 362.277 203.485 361.869C203.34 361.458 203.114 361.129 202.809 360.88C202.504 360.631 202.12 360.507 201.656 360.507C201.188 360.507 200.801 360.631 200.492 360.88C200.188 361.129 199.96 361.458 199.811 361.869C199.666 362.277 199.593 362.724 199.593 363.212C199.593 363.702 199.666 364.151 199.811 364.559C199.96 364.967 200.188 365.293 200.492 365.538C200.801 365.784 201.188 365.906 201.656 365.906ZM210.644 359.364V360.557H206.329V359.364H210.644ZM207.512 367V358.479C207.512 358.001 207.616 357.605 207.825 357.29C208.034 356.972 208.311 356.735 208.655 356.58C209 356.42 209.375 356.341 209.779 356.341C210.077 356.341 210.332 356.366 210.545 356.415C210.757 356.462 210.914 356.505 211.017 356.545L210.669 357.748C210.599 357.728 210.51 357.705 210.4 357.678C210.291 357.648 210.158 357.634 210.003 357.634C209.641 357.634 209.383 357.723 209.227 357.902C209.075 358.081 208.998 358.339 208.998 358.678V367H207.512ZM215.952 359.364V360.557H211.637V359.364H215.952ZM212.82 367V358.479C212.82 358.001 212.924 357.605 213.133 357.29C213.342 356.972 213.619 356.735 213.963 356.58C214.308 356.42 214.683 356.341 215.087 356.341C215.385 356.341 215.64 356.366 215.853 356.415C216.065 356.462 216.222 356.505 216.325 356.545L215.977 357.748C215.907 357.728 215.818 357.705 215.708 357.678C215.599 357.648 215.466 357.634 215.311 357.634C214.949 357.634 214.691 357.723 214.535 357.902C214.383 358.081 214.306 358.339 214.306 358.678V367H212.82ZM220.616 367.154C219.864 367.154 219.216 366.993 218.672 366.672C218.132 366.347 217.714 365.891 217.419 365.305C217.128 364.715 216.982 364.024 216.982 363.232C216.982 362.449 217.128 361.76 217.419 361.163C217.714 360.567 218.125 360.101 218.652 359.766C219.183 359.432 219.802 359.264 220.512 359.264C220.943 359.264 221.36 359.335 221.765 359.478C222.169 359.621 222.532 359.844 222.853 360.149C223.175 360.454 223.428 360.85 223.614 361.337C223.8 361.821 223.892 362.41 223.892 363.102V363.629H217.822V362.516H222.436C222.436 362.125 222.356 361.778 222.197 361.477C222.038 361.172 221.814 360.931 221.526 360.756C221.241 360.58 220.906 360.492 220.522 360.492C220.104 360.492 219.739 360.595 219.428 360.8C219.12 361.003 218.881 361.268 218.712 361.596C218.546 361.921 218.463 362.274 218.463 362.655V363.525C218.463 364.035 218.553 364.469 218.732 364.827C218.914 365.185 219.168 365.459 219.493 365.648C219.817 365.833 220.197 365.926 220.631 365.926C220.913 365.926 221.17 365.886 221.402 365.807C221.634 365.724 221.834 365.601 222.003 365.439C222.172 365.277 222.301 365.076 222.391 364.837L223.798 365.091C223.685 365.505 223.483 365.868 223.191 366.18C222.903 366.488 222.54 366.728 222.103 366.901C221.668 367.07 221.173 367.154 220.616 367.154ZM228.973 367.154C228.221 367.154 227.573 366.993 227.029 366.672C226.489 366.347 226.071 365.891 225.776 365.305C225.485 364.715 225.339 364.024 225.339 363.232C225.339 362.449 225.485 361.76 225.776 361.163C226.071 360.567 226.482 360.101 227.009 359.766C227.539 359.432 228.159 359.264 228.869 359.264C229.299 359.264 229.717 359.335 230.121 359.478C230.526 359.621 230.889 359.844 231.21 360.149C231.532 360.454 231.785 360.85 231.971 361.337C232.156 361.821 232.249 362.41 232.249 363.102V363.629H226.179V362.516H230.793C230.793 362.125 230.713 361.778 230.554 361.477C230.395 361.172 230.171 360.931 229.883 360.756C229.598 360.58 229.263 360.492 228.878 360.492C228.461 360.492 228.096 360.595 227.785 360.8C227.476 361.003 227.238 361.268 227.069 361.596C226.903 361.921 226.82 362.274 226.82 362.655V363.525C226.82 364.035 226.91 364.469 227.089 364.827C227.271 365.185 227.525 365.459 227.849 365.648C228.174 365.833 228.554 365.926 228.988 365.926C229.27 365.926 229.526 365.886 229.758 365.807C229.99 365.724 230.191 365.601 230.36 365.439C230.529 365.277 230.658 365.076 230.748 364.837L232.155 365.091C232.042 365.505 231.84 365.868 231.548 366.18C231.26 366.488 230.897 366.728 230.459 366.901C230.025 367.07 229.53 367.154 228.973 367.154Z" fill="#ADAFBD"/>
<g filter="url(#filter5_d_1_4548)">
<rect x="288" y="143" width="155" height="88" rx="10" fill="white"/>
</g>
<path d="M353.006 168.364V180H350.545V170.699H350.477L347.812 172.369V170.188L350.693 168.364H353.006ZM360.397 180.159C359.799 180.155 359.221 180.055 358.664 179.858C358.111 179.661 357.615 179.341 357.176 178.898C356.736 178.455 356.388 177.867 356.13 177.136C355.876 176.405 355.749 175.508 355.749 174.443C355.753 173.466 355.865 172.593 356.085 171.824C356.308 171.051 356.626 170.396 357.039 169.858C357.456 169.32 357.954 168.911 358.534 168.631C359.113 168.347 359.763 168.205 360.482 168.205C361.259 168.205 361.945 168.356 362.539 168.659C363.134 168.958 363.611 169.366 363.971 169.881C364.335 170.396 364.554 170.973 364.63 171.614H362.204C362.109 171.208 361.91 170.89 361.607 170.659C361.304 170.428 360.929 170.312 360.482 170.312C359.725 170.312 359.149 170.642 358.755 171.301C358.365 171.96 358.166 172.856 358.159 173.989H358.238C358.412 173.644 358.647 173.35 358.943 173.108C359.242 172.862 359.581 172.674 359.96 172.545C360.342 172.413 360.746 172.347 361.17 172.347C361.859 172.347 362.473 172.509 363.011 172.835C363.549 173.157 363.973 173.6 364.284 174.165C364.594 174.729 364.749 175.375 364.749 176.102C364.749 176.89 364.566 177.591 364.198 178.205C363.835 178.818 363.325 179.299 362.67 179.648C362.018 179.992 361.261 180.163 360.397 180.159ZM360.386 178.227C360.765 178.227 361.104 178.136 361.403 177.955C361.702 177.773 361.937 177.527 362.107 177.216C362.278 176.905 362.363 176.557 362.363 176.17C362.363 175.784 362.278 175.437 362.107 175.131C361.941 174.824 361.71 174.58 361.414 174.398C361.119 174.216 360.782 174.125 360.403 174.125C360.119 174.125 359.856 174.178 359.613 174.284C359.374 174.39 359.164 174.538 358.982 174.727C358.804 174.917 358.664 175.136 358.562 175.386C358.46 175.633 358.409 175.896 358.409 176.176C358.409 176.551 358.494 176.894 358.664 177.205C358.839 177.515 359.073 177.763 359.369 177.949C359.668 178.134 360.007 178.227 360.386 178.227ZM373.023 177.818V177.205C373.023 176.739 373.122 176.311 373.319 175.92C373.519 175.527 373.809 175.212 374.188 174.977C374.57 174.739 375.036 174.619 375.586 174.619C376.142 174.619 376.61 174.737 376.989 174.972C377.372 175.206 377.659 175.521 377.853 175.915C378.05 176.305 378.148 176.735 378.148 177.205V177.818C378.148 178.284 378.05 178.714 377.853 179.108C377.656 179.498 377.366 179.811 376.983 180.045C376.601 180.284 376.135 180.403 375.586 180.403C375.029 180.403 374.561 180.284 374.182 180.045C373.803 179.811 373.516 179.498 373.319 179.108C373.122 178.714 373.023 178.284 373.023 177.818ZM374.677 177.205V177.818C374.677 178.087 374.741 178.341 374.87 178.58C375.002 178.818 375.241 178.938 375.586 178.938C375.93 178.938 376.165 178.82 376.29 178.585C376.419 178.35 376.483 178.095 376.483 177.818V177.205C376.483 176.928 376.423 176.67 376.302 176.432C376.18 176.193 375.942 176.074 375.586 176.074C375.245 176.074 375.008 176.193 374.875 176.432C374.743 176.67 374.677 176.928 374.677 177.205ZM367.052 171.159V170.545C367.052 170.076 367.152 169.646 367.353 169.256C367.553 168.862 367.843 168.547 368.222 168.312C368.605 168.078 369.067 167.96 369.608 167.96C370.169 167.96 370.639 168.078 371.017 168.312C371.396 168.547 371.684 168.862 371.881 169.256C372.078 169.646 372.177 170.076 372.177 170.545V171.159C372.177 171.629 372.076 172.059 371.875 172.449C371.678 172.839 371.389 173.152 371.006 173.386C370.627 173.617 370.161 173.733 369.608 173.733C369.055 173.733 368.588 173.616 368.205 173.381C367.826 173.142 367.538 172.83 367.341 172.443C367.148 172.053 367.052 171.625 367.052 171.159ZM368.716 170.545V171.159C368.716 171.436 368.781 171.691 368.909 171.926C369.042 172.161 369.275 172.278 369.608 172.278C369.957 172.278 370.194 172.161 370.319 171.926C370.447 171.691 370.512 171.436 370.512 171.159V170.545C370.512 170.269 370.451 170.011 370.33 169.773C370.209 169.534 369.968 169.415 369.608 169.415C369.271 169.415 369.038 169.536 368.909 169.778C368.781 170.021 368.716 170.277 368.716 170.545ZM367.802 180L375.802 168.364H377.29L369.29 180H367.802Z" fill="#363B64"/>
<path d="M356.337 193.818V204H354.925L349.749 196.533H349.655V204H348.119V193.818H349.54L354.721 201.295H354.815V193.818H356.337ZM361.889 204.154C361.137 204.154 360.489 203.993 359.946 203.672C359.405 203.347 358.988 202.891 358.693 202.305C358.401 201.715 358.255 201.024 358.255 200.232C358.255 199.449 358.401 198.76 358.693 198.163C358.988 197.567 359.399 197.101 359.926 196.766C360.456 196.432 361.076 196.264 361.785 196.264C362.216 196.264 362.634 196.335 363.038 196.478C363.442 196.621 363.805 196.844 364.127 197.149C364.448 197.454 364.702 197.85 364.887 198.337C365.073 198.821 365.166 199.41 365.166 200.102V200.629H359.095V199.516H363.709C363.709 199.125 363.63 198.778 363.47 198.477C363.311 198.172 363.088 197.931 362.799 197.756C362.514 197.58 362.179 197.492 361.795 197.492C361.377 197.492 361.013 197.595 360.701 197.8C360.393 198.003 360.154 198.268 359.985 198.596C359.82 198.921 359.737 199.274 359.737 199.655V200.525C359.737 201.035 359.826 201.469 360.005 201.827C360.188 202.185 360.441 202.459 360.766 202.648C361.091 202.833 361.47 202.926 361.904 202.926C362.186 202.926 362.443 202.886 362.675 202.807C362.907 202.724 363.108 202.601 363.277 202.439C363.446 202.277 363.575 202.076 363.664 201.837L365.071 202.091C364.959 202.505 364.756 202.868 364.465 203.18C364.176 203.488 363.813 203.728 363.376 203.901C362.942 204.07 362.446 204.154 361.889 204.154ZM370.52 196.364V197.557H366.349V196.364H370.52ZM367.467 194.534H368.954V201.758C368.954 202.046 368.997 202.263 369.083 202.409C369.169 202.552 369.28 202.649 369.416 202.702C369.555 202.752 369.706 202.777 369.868 202.777C369.988 202.777 370.092 202.769 370.182 202.752C370.271 202.736 370.341 202.722 370.39 202.712L370.659 203.94C370.573 203.973 370.45 204.007 370.291 204.04C370.132 204.076 369.933 204.096 369.694 204.099C369.303 204.106 368.939 204.036 368.601 203.891C368.263 203.745 367.989 203.519 367.78 203.214C367.572 202.91 367.467 202.527 367.467 202.066V194.534ZM375.938 196.364V197.557H371.623V196.364H375.938ZM372.806 204V195.479C372.806 195.001 372.911 194.605 373.119 194.29C373.328 193.972 373.605 193.735 373.95 193.58C374.294 193.42 374.669 193.341 375.073 193.341C375.372 193.341 375.627 193.366 375.839 193.415C376.051 193.462 376.208 193.505 376.311 193.545L375.963 194.748C375.894 194.728 375.804 194.705 375.695 194.678C375.585 194.648 375.453 194.634 375.297 194.634C374.936 194.634 374.677 194.723 374.521 194.902C374.369 195.081 374.293 195.339 374.293 195.678V204H372.806ZM379.099 193.818V204H377.612V193.818H379.099ZM381.238 204V196.364H382.725V204H381.238ZM381.989 195.185C381.731 195.185 381.508 195.099 381.323 194.927C381.141 194.751 381.049 194.542 381.049 194.3C381.049 194.055 381.141 193.846 381.323 193.674C381.508 193.498 381.731 193.411 381.989 193.411C382.248 193.411 382.468 193.498 382.65 193.674C382.836 193.846 382.929 194.055 382.929 194.3C382.929 194.542 382.836 194.751 382.65 194.927C382.468 195.099 382.248 195.185 381.989 195.185ZM386.038 196.364L387.723 199.337L389.424 196.364H391.049L388.668 200.182L391.069 204H389.444L387.723 201.146L386.008 204H384.377L386.754 200.182L384.407 196.364H386.038Z" fill="#ADAFBD"/>
<path d="M324.77 166.117L324.754 174.918L324.737 183.719L323.986 181.676V181.67L323.011 201.263C323.97 203.861 324.481 205.249 324.487 205.255C324.492 205.26 325.037 205.291 325.696 205.323C327.688 205.417 330.16 205.621 332.039 205.846C332.475 205.899 332.845 205.925 332.872 205.904C332.899 205.883 332.905 196.925 332.899 185.992L332.883 166.117H324.77Z" fill="url(#paint2_linear_1_4548)"/>
<path d="M310.096 166.091V185.987C310.096 196.931 310.107 205.894 310.123 205.909C310.14 205.925 310.842 205.857 311.691 205.768C312.541 205.679 313.711 205.564 314.294 205.516C315.187 205.443 317.866 205.281 318.171 205.276C318.263 205.276 318.269 204.83 318.28 196.847L318.296 188.418L318.944 190.178C319.042 190.45 319.075 190.534 319.173 190.801L320.147 171.214C319.94 170.654 320.049 170.947 319.815 170.308C319.02 168.145 318.345 166.316 318.318 166.233L318.263 166.086H310.096V166.091Z" fill="url(#paint3_linear_1_4548)"/>
<path d="M310.096 166.091L318.291 188.434V188.423L318.939 190.183C322.538 199.985 324.471 205.244 324.482 205.255C324.487 205.26 325.032 205.291 325.69 205.323C327.683 205.417 330.155 205.621 332.034 205.847C332.464 205.899 332.84 205.925 332.861 205.904L324.738 183.714V183.719L323.986 181.676C323.251 179.68 322.761 178.344 319.804 170.308C319.009 168.145 318.334 166.316 318.307 166.233L318.253 166.086H314.174L310.096 166.091Z" fill="url(#paint4_linear_1_4548)"/>
<g filter="url(#filter6_d_1_4548)">
<rect x="117" y="143" width="155" height="146" rx="10" fill="white"/>
</g>
<path fill-rule="evenodd" clip-rule="evenodd" d="M174.42 191.382C173.608 192.391 171.618 193.11 171.618 193.11L156.815 198.344V194.484L167.709 190.664C168.945 190.228 169.135 189.611 168.13 189.288C167.127 188.963 165.311 189.056 164.074 189.494L156.815 192.011V188.005L157.233 187.866C157.233 187.866 159.331 187.135 162.28 186.813C165.23 186.494 168.841 186.857 171.677 187.915C174.872 188.909 175.231 190.374 174.42 191.382ZM158.224 184.81V174.94C158.224 173.781 158.007 172.714 156.902 172.412C156.056 172.145 155.53 172.918 155.53 174.077V198.794L148.758 196.678V167.207C151.637 167.733 155.833 168.977 158.088 169.725C163.824 171.663 165.768 174.076 165.768 179.511C165.768 184.808 162.446 186.816 158.224 184.81ZM136.331 194.081C133.051 193.172 132.505 191.277 134 190.186C135.382 189.178 137.732 188.42 137.732 188.42L147.442 185.021V188.896L140.454 191.357C139.22 191.793 139.03 192.41 140.033 192.734C141.037 193.057 142.854 192.965 144.09 192.528L147.442 191.331V194.797C147.23 194.835 146.993 194.872 146.774 194.908C143.421 195.447 139.85 195.222 136.331 194.081Z" fill="url(#paint5_linear_1_4548)"/>
<path d="M133.943 246V244.227L138.085 240.392C138.438 240.051 138.733 239.744 138.972 239.472C139.214 239.199 139.398 238.932 139.523 238.67C139.648 238.405 139.71 238.119 139.71 237.812C139.71 237.472 139.633 237.178 139.477 236.932C139.322 236.682 139.11 236.491 138.841 236.358C138.572 236.222 138.267 236.153 137.926 236.153C137.57 236.153 137.259 236.225 136.994 236.369C136.729 236.513 136.525 236.72 136.381 236.989C136.237 237.258 136.165 237.578 136.165 237.949H133.83C133.83 237.187 134.002 236.527 134.347 235.966C134.691 235.405 135.174 234.972 135.795 234.665C136.417 234.358 137.133 234.205 137.943 234.205C138.777 234.205 139.502 234.352 140.119 234.648C140.741 234.939 141.223 235.345 141.568 235.864C141.913 236.383 142.085 236.977 142.085 237.648C142.085 238.087 141.998 238.521 141.824 238.949C141.653 239.377 141.348 239.852 140.909 240.375C140.47 240.894 139.85 241.517 139.051 242.244L137.352 243.909V243.989H142.239V246H133.943ZM148.482 246.159C147.634 246.159 146.878 246.013 146.215 245.722C145.556 245.426 145.035 245.021 144.653 244.506C144.274 243.987 144.079 243.388 144.068 242.71H146.545C146.56 242.994 146.653 243.244 146.823 243.46C146.998 243.672 147.229 243.837 147.517 243.955C147.804 244.072 148.128 244.131 148.488 244.131C148.863 244.131 149.195 244.064 149.482 243.932C149.77 243.799 149.996 243.616 150.159 243.381C150.321 243.146 150.403 242.875 150.403 242.568C150.403 242.258 150.316 241.983 150.142 241.744C149.971 241.502 149.725 241.312 149.403 241.176C149.085 241.04 148.706 240.972 148.267 240.972H147.181V239.165H148.267C148.638 239.165 148.965 239.1 149.249 238.972C149.537 238.843 149.761 238.665 149.92 238.438C150.079 238.206 150.159 237.938 150.159 237.631C150.159 237.339 150.089 237.083 149.948 236.864C149.812 236.64 149.619 236.466 149.369 236.341C149.123 236.216 148.835 236.153 148.505 236.153C148.172 236.153 147.867 236.214 147.59 236.335C147.314 236.453 147.092 236.621 146.926 236.841C146.759 237.061 146.67 237.318 146.659 237.614H144.301C144.312 236.943 144.503 236.352 144.874 235.841C145.246 235.33 145.746 234.93 146.374 234.642C147.007 234.35 147.721 234.205 148.517 234.205C149.32 234.205 150.022 234.35 150.624 234.642C151.227 234.934 151.695 235.328 152.028 235.824C152.365 236.316 152.532 236.869 152.528 237.483C152.532 238.134 152.329 238.678 151.92 239.114C151.515 239.549 150.986 239.826 150.335 239.943V240.034C151.191 240.144 151.842 240.441 152.289 240.926C152.74 241.407 152.964 242.009 152.96 242.733C152.964 243.396 152.772 243.985 152.386 244.5C152.003 245.015 151.475 245.42 150.801 245.716C150.126 246.011 149.354 246.159 148.482 246.159ZM161.257 243.818V243.205C161.257 242.739 161.356 242.311 161.553 241.92C161.754 241.527 162.043 241.212 162.422 240.977C162.805 240.739 163.271 240.619 163.82 240.619C164.377 240.619 164.845 240.737 165.223 240.972C165.606 241.206 165.894 241.521 166.087 241.915C166.284 242.305 166.382 242.735 166.382 243.205V243.818C166.382 244.284 166.284 244.714 166.087 245.108C165.89 245.498 165.6 245.811 165.218 246.045C164.835 246.284 164.369 246.403 163.82 246.403C163.263 246.403 162.795 246.284 162.417 246.045C162.038 245.811 161.75 245.498 161.553 245.108C161.356 244.714 161.257 244.284 161.257 243.818ZM162.911 243.205V243.818C162.911 244.087 162.975 244.341 163.104 244.58C163.237 244.818 163.475 244.938 163.82 244.938C164.165 244.938 164.4 244.82 164.525 244.585C164.653 244.35 164.718 244.095 164.718 243.818V243.205C164.718 242.928 164.657 242.67 164.536 242.432C164.415 242.193 164.176 242.074 163.82 242.074C163.479 242.074 163.242 242.193 163.11 242.432C162.977 242.67 162.911 242.928 162.911 243.205ZM155.286 237.159V236.545C155.286 236.076 155.386 235.646 155.587 235.256C155.788 234.862 156.078 234.547 156.456 234.312C156.839 234.078 157.301 233.96 157.843 233.96C158.403 233.96 158.873 234.078 159.252 234.312C159.631 234.547 159.918 234.862 160.115 235.256C160.312 235.646 160.411 236.076 160.411 236.545V237.159C160.411 237.629 160.311 238.059 160.11 238.449C159.913 238.839 159.623 239.152 159.24 239.386C158.862 239.617 158.396 239.733 157.843 239.733C157.29 239.733 156.822 239.616 156.439 239.381C156.061 239.142 155.773 238.83 155.576 238.443C155.382 238.053 155.286 237.625 155.286 237.159ZM156.951 236.545V237.159C156.951 237.436 157.015 237.691 157.144 237.926C157.276 238.161 157.509 238.278 157.843 238.278C158.191 238.278 158.428 238.161 158.553 237.926C158.682 237.691 158.746 237.436 158.746 237.159V236.545C158.746 236.269 158.686 236.011 158.564 235.773C158.443 235.534 158.203 235.415 157.843 235.415C157.506 235.415 157.273 235.536 157.144 235.778C157.015 236.021 156.951 236.277 156.951 236.545ZM156.036 246L164.036 234.364H165.525L157.525 246H156.036Z" fill="#363B64"/>
<path d="M134.119 270V259.818H137.748C138.54 259.818 139.196 259.962 139.717 260.251C140.237 260.539 140.626 260.933 140.885 261.434C141.143 261.931 141.273 262.491 141.273 263.114C141.273 263.741 141.142 264.304 140.88 264.805C140.621 265.302 140.23 265.696 139.707 265.988C139.186 266.276 138.532 266.42 137.743 266.42H135.247V265.118H137.604C138.104 265.118 138.51 265.032 138.822 264.859C139.133 264.684 139.362 264.445 139.508 264.143C139.654 263.842 139.727 263.499 139.727 263.114C139.727 262.73 139.654 262.388 139.508 262.09C139.362 261.792 139.132 261.558 138.817 261.389C138.505 261.22 138.094 261.136 137.584 261.136H135.655V270H134.119ZM144.581 259.818V270H143.094V259.818H144.581ZM148.943 270.169C148.459 270.169 148.022 270.08 147.63 269.901C147.239 269.718 146.93 269.455 146.701 269.11C146.475 268.765 146.363 268.343 146.363 267.842C146.363 267.411 146.446 267.057 146.611 266.778C146.777 266.5 147.001 266.28 147.282 266.117C147.564 265.955 147.879 265.832 148.227 265.749C148.575 265.666 148.93 265.603 149.291 265.56C149.748 265.507 150.12 265.464 150.405 265.431C150.69 265.395 150.897 265.337 151.026 265.257C151.155 265.178 151.22 265.048 151.22 264.869V264.835C151.22 264.4 151.097 264.064 150.852 263.825C150.61 263.587 150.249 263.467 149.768 263.467C149.268 263.467 148.873 263.578 148.585 263.8C148.3 264.019 148.103 264.263 147.993 264.531L146.596 264.213C146.762 263.749 147.004 263.375 147.322 263.089C147.644 262.801 148.013 262.592 148.431 262.463C148.849 262.33 149.288 262.264 149.748 262.264C150.053 262.264 150.376 262.301 150.718 262.374C151.063 262.443 151.384 262.572 151.682 262.761C151.984 262.95 152.231 263.22 152.423 263.572C152.615 263.92 152.711 264.372 152.711 264.929V270H151.26V268.956H151.2C151.104 269.148 150.96 269.337 150.768 269.523C150.575 269.708 150.328 269.862 150.027 269.985C149.725 270.108 149.364 270.169 148.943 270.169ZM149.266 268.976C149.677 268.976 150.028 268.895 150.32 268.732C150.615 268.57 150.839 268.358 150.991 268.096C151.147 267.831 151.225 267.547 151.225 267.246V266.261C151.172 266.314 151.069 266.364 150.917 266.411C150.768 266.454 150.597 266.492 150.405 266.525C150.212 266.555 150.025 266.583 149.843 266.609C149.661 266.633 149.508 266.652 149.385 266.669C149.097 266.705 148.834 266.767 148.595 266.853C148.36 266.939 148.171 267.063 148.028 267.226C147.889 267.385 147.819 267.597 147.819 267.862C147.819 268.23 147.955 268.509 148.227 268.697C148.499 268.883 148.845 268.976 149.266 268.976ZM155.498 272.864C155.276 272.864 155.073 272.845 154.891 272.809C154.709 272.776 154.573 272.739 154.483 272.7L154.841 271.482C155.113 271.554 155.355 271.586 155.567 271.576C155.779 271.566 155.967 271.487 156.129 271.337C156.295 271.188 156.441 270.945 156.566 270.607L156.75 270.099L153.956 262.364H155.547L157.481 268.29H157.561L159.495 262.364H161.091L157.944 271.019C157.798 271.417 157.612 271.753 157.387 272.028C157.161 272.307 156.893 272.516 156.581 272.655C156.27 272.794 155.909 272.864 155.498 272.864ZM168.35 264.228L167.003 264.467C166.946 264.294 166.857 264.13 166.734 263.974C166.615 263.819 166.452 263.691 166.247 263.592C166.041 263.492 165.785 263.442 165.476 263.442C165.055 263.442 164.704 263.537 164.422 263.726C164.141 263.911 164 264.152 164 264.447C164 264.702 164.094 264.907 164.283 265.063C164.472 265.219 164.777 265.347 165.198 265.446L166.411 265.724C167.114 265.887 167.637 266.137 167.982 266.475C168.327 266.813 168.499 267.252 168.499 267.793C168.499 268.25 168.367 268.658 168.101 269.016C167.84 269.37 167.473 269.649 167.003 269.851C166.535 270.053 165.993 270.154 165.377 270.154C164.522 270.154 163.824 269.972 163.284 269.607C162.744 269.239 162.412 268.717 162.29 268.041L163.726 267.822C163.816 268.197 164 268.48 164.278 268.673C164.557 268.862 164.92 268.956 165.367 268.956C165.854 268.956 166.244 268.855 166.535 268.653C166.827 268.447 166.973 268.197 166.973 267.902C166.973 267.663 166.883 267.463 166.704 267.3C166.529 267.138 166.259 267.015 165.894 266.933L164.601 266.649C163.889 266.487 163.362 266.228 163.02 265.874C162.682 265.519 162.513 265.07 162.513 264.526C162.513 264.076 162.639 263.681 162.891 263.343C163.143 263.005 163.491 262.741 163.935 262.553C164.379 262.36 164.888 262.264 165.461 262.264C166.287 262.264 166.936 262.443 167.41 262.801C167.884 263.156 168.197 263.631 168.35 264.228ZM173.838 262.364V263.557H169.667V262.364H173.838ZM170.786 260.534H172.272V267.758C172.272 268.046 172.315 268.263 172.401 268.409C172.488 268.552 172.599 268.649 172.734 268.702C172.874 268.752 173.024 268.777 173.187 268.777C173.306 268.777 173.411 268.769 173.5 268.752C173.59 268.736 173.659 268.722 173.709 268.712L173.977 269.94C173.891 269.973 173.769 270.007 173.609 270.04C173.45 270.076 173.251 270.096 173.013 270.099C172.622 270.106 172.257 270.036 171.919 269.891C171.581 269.745 171.308 269.519 171.099 269.214C170.89 268.91 170.786 268.527 170.786 268.066V260.534ZM177.845 270.169C177.361 270.169 176.923 270.08 176.532 269.901C176.141 269.718 175.831 269.455 175.603 269.11C175.377 268.765 175.265 268.343 175.265 267.842C175.265 267.411 175.347 267.057 175.513 266.778C175.679 266.5 175.903 266.28 176.184 266.117C176.466 265.955 176.781 265.832 177.129 265.749C177.477 265.666 177.832 265.603 178.193 265.56C178.65 265.507 179.021 265.464 179.306 265.431C179.591 265.395 179.799 265.337 179.928 265.257C180.057 265.178 180.122 265.048 180.122 264.869V264.835C180.122 264.4 179.999 264.064 179.754 263.825C179.512 263.587 179.151 263.467 178.67 263.467C178.17 263.467 177.775 263.578 177.487 263.8C177.202 264.019 177.005 264.263 176.895 264.531L175.498 264.213C175.664 263.749 175.906 263.375 176.224 263.089C176.546 262.801 176.915 262.592 177.333 262.463C177.75 262.33 178.189 262.264 178.65 262.264C178.955 262.264 179.278 262.301 179.62 262.374C179.964 262.443 180.286 262.572 180.584 262.761C180.886 262.95 181.133 263.22 181.325 263.572C181.517 263.92 181.613 264.372 181.613 264.929V270H180.162V268.956H180.102C180.006 269.148 179.862 269.337 179.669 269.523C179.477 269.708 179.23 269.862 178.929 269.985C178.627 270.108 178.266 270.169 177.845 270.169ZM178.168 268.976C178.579 268.976 178.93 268.895 179.222 268.732C179.517 268.57 179.741 268.358 179.893 268.096C180.049 267.831 180.127 267.547 180.127 267.246V266.261C180.074 266.314 179.971 266.364 179.819 266.411C179.669 266.454 179.499 266.492 179.306 266.525C179.114 266.555 178.927 266.583 178.745 266.609C178.562 266.633 178.41 266.652 178.287 266.669C177.999 266.705 177.735 266.767 177.497 266.853C177.261 266.939 177.073 267.063 176.93 267.226C176.791 267.385 176.721 267.597 176.721 267.862C176.721 268.23 176.857 268.509 177.129 268.697C177.401 268.883 177.747 268.976 178.168 268.976ZM187.298 262.364V263.557H183.127V262.364H187.298ZM184.245 260.534H185.732V267.758C185.732 268.046 185.775 268.263 185.861 268.409C185.947 268.552 186.058 268.649 186.194 268.702C186.333 268.752 186.484 268.777 186.647 268.777C186.766 268.777 186.87 268.769 186.96 268.752C187.049 268.736 187.119 268.722 187.169 268.712L187.437 269.94C187.351 269.973 187.228 270.007 187.069 270.04C186.91 270.076 186.711 270.096 186.473 270.099C186.081 270.106 185.717 270.036 185.379 269.891C185.041 269.745 184.767 269.519 184.558 269.214C184.35 268.91 184.245 268.527 184.245 268.066V260.534ZM189.082 270V262.364H190.569V270H189.082ZM189.833 261.185C189.574 261.185 189.352 261.099 189.167 260.927C188.984 260.751 188.893 260.542 188.893 260.3C188.893 260.055 188.984 259.846 189.167 259.674C189.352 259.498 189.574 259.411 189.833 259.411C190.091 259.411 190.312 259.498 190.494 259.674C190.68 259.846 190.773 260.055 190.773 260.3C190.773 260.542 190.68 260.751 190.494 260.927C190.312 261.099 190.091 261.185 189.833 261.185ZM195.925 270.154C195.209 270.154 194.584 269.99 194.051 269.662C193.517 269.334 193.103 268.875 192.808 268.285C192.513 267.695 192.365 267.005 192.365 266.217C192.365 265.424 192.513 264.732 192.808 264.138C193.103 263.545 193.517 263.085 194.051 262.756C194.584 262.428 195.209 262.264 195.925 262.264C196.641 262.264 197.266 262.428 197.799 262.756C198.333 263.085 198.747 263.545 199.042 264.138C199.337 264.732 199.485 265.424 199.485 266.217C199.485 267.005 199.337 267.695 199.042 268.285C198.747 268.875 198.333 269.334 197.799 269.662C197.266 269.99 196.641 270.154 195.925 270.154ZM195.93 268.906C196.394 268.906 196.779 268.784 197.084 268.538C197.388 268.293 197.614 267.967 197.76 267.559C197.909 267.151 197.983 266.702 197.983 266.212C197.983 265.724 197.909 265.277 197.76 264.869C197.614 264.458 197.388 264.129 197.084 263.88C196.779 263.631 196.394 263.507 195.93 263.507C195.463 263.507 195.075 263.631 194.767 263.88C194.462 264.129 194.235 264.458 194.086 264.869C193.94 265.277 193.867 265.724 193.867 266.212C193.867 266.702 193.94 267.151 194.086 267.559C194.235 267.967 194.462 268.293 194.767 268.538C195.075 268.784 195.463 268.906 195.93 268.906ZM202.771 265.466V270H201.284V262.364H202.711V263.607H202.805C202.981 263.202 203.256 262.877 203.631 262.632C204.008 262.387 204.484 262.264 205.057 262.264C205.578 262.264 206.034 262.374 206.425 262.592C206.816 262.808 207.119 263.129 207.334 263.557C207.55 263.984 207.658 264.513 207.658 265.143V270H206.171V265.322C206.171 264.768 206.027 264.336 205.739 264.024C205.45 263.709 205.054 263.552 204.55 263.552C204.206 263.552 203.899 263.626 203.631 263.776C203.365 263.925 203.155 264.143 202.999 264.432C202.847 264.717 202.771 265.062 202.771 265.466ZM219.359 264.228L218.011 264.467C217.955 264.294 217.865 264.13 217.743 263.974C217.624 263.819 217.461 263.691 217.256 263.592C217.05 263.492 216.793 263.442 216.485 263.442C216.064 263.442 215.713 263.537 215.431 263.726C215.149 263.911 215.008 264.152 215.008 264.447C215.008 264.702 215.103 264.907 215.292 265.063C215.481 265.219 215.786 265.347 216.207 265.446L217.42 265.724C218.122 265.887 218.646 266.137 218.991 266.475C219.335 266.813 219.508 267.252 219.508 267.793C219.508 268.25 219.375 268.658 219.11 269.016C218.848 269.37 218.482 269.649 218.011 269.851C217.544 270.053 217.002 270.154 216.386 270.154C215.53 270.154 214.833 269.972 214.293 269.607C213.752 269.239 213.421 268.717 213.298 268.041L214.735 267.822C214.825 268.197 215.008 268.48 215.287 268.673C215.565 268.862 215.928 268.956 216.376 268.956C216.863 268.956 217.252 268.855 217.544 268.653C217.836 268.447 217.981 268.197 217.981 267.902C217.981 267.663 217.892 267.463 217.713 267.3C217.537 267.138 217.267 267.015 216.903 266.933L215.61 266.649C214.897 266.487 214.37 266.228 214.029 265.874C213.691 265.519 213.522 265.07 213.522 264.526C213.522 264.076 213.648 263.681 213.9 263.343C214.152 263.005 214.5 262.741 214.944 262.553C215.388 262.36 215.897 262.264 216.47 262.264C217.295 262.264 217.945 262.443 218.419 262.801C218.893 263.156 219.206 263.631 219.359 264.228ZM224.847 262.364V263.557H220.676V262.364H224.847ZM221.794 260.534H223.281V267.758C223.281 268.046 223.324 268.263 223.41 268.409C223.496 268.552 223.607 268.649 223.743 268.702C223.882 268.752 224.033 268.777 224.196 268.777C224.315 268.777 224.419 268.769 224.509 268.752C224.598 268.736 224.668 268.722 224.718 268.712L224.986 269.94C224.9 269.973 224.777 270.007 224.618 270.04C224.459 270.076 224.26 270.096 224.022 270.099C223.63 270.106 223.266 270.036 222.928 269.891C222.59 269.745 222.316 269.519 222.107 269.214C221.899 268.91 221.794 268.527 221.794 268.066V260.534ZM229.766 270.154C229.05 270.154 228.425 269.99 227.891 269.662C227.358 269.334 226.944 268.875 226.649 268.285C226.354 267.695 226.206 267.005 226.206 266.217C226.206 265.424 226.354 264.732 226.649 264.138C226.944 263.545 227.358 263.085 227.891 262.756C228.425 262.428 229.05 262.264 229.766 262.264C230.482 262.264 231.106 262.428 231.64 262.756C232.174 263.085 232.588 263.545 232.883 264.138C233.178 264.732 233.325 265.424 233.325 266.217C233.325 267.005 233.178 267.695 232.883 268.285C232.588 268.875 232.174 269.334 231.64 269.662C231.106 269.99 230.482 270.154 229.766 270.154ZM229.771 268.906C230.235 268.906 230.619 268.784 230.924 268.538C231.229 268.293 231.454 267.967 231.6 267.559C231.749 267.151 231.824 266.702 231.824 266.212C231.824 265.724 231.749 265.277 231.6 264.869C231.454 264.458 231.229 264.129 230.924 263.88C230.619 263.631 230.235 263.507 229.771 263.507C229.303 263.507 228.916 263.631 228.607 263.88C228.302 264.129 228.075 264.458 227.926 264.869C227.78 265.277 227.708 265.724 227.708 266.212C227.708 266.702 227.78 267.151 227.926 267.559C228.075 267.967 228.302 268.293 228.607 268.538C228.916 268.784 229.303 268.906 229.771 268.906ZM235.125 270V262.364H236.561V263.577H236.641C236.78 263.166 237.025 262.843 237.377 262.607C237.731 262.369 238.132 262.249 238.58 262.249C238.673 262.249 238.782 262.253 238.908 262.259C239.037 262.266 239.138 262.274 239.211 262.284V263.706C239.152 263.689 239.046 263.671 238.893 263.651C238.741 263.628 238.588 263.616 238.436 263.616C238.084 263.616 237.771 263.691 237.496 263.84C237.224 263.986 237.009 264.19 236.85 264.452C236.691 264.71 236.611 265.005 236.611 265.337V270H235.125ZM243.655 270.154C242.903 270.154 242.255 269.993 241.712 269.672C241.171 269.347 240.754 268.891 240.459 268.305C240.167 267.715 240.021 267.024 240.021 266.232C240.021 265.449 240.167 264.76 240.459 264.163C240.754 263.567 241.165 263.101 241.692 262.766C242.222 262.432 242.842 262.264 243.551 262.264C243.982 262.264 244.4 262.335 244.804 262.478C245.208 262.621 245.571 262.844 245.893 263.149C246.214 263.454 246.468 263.85 246.653 264.337C246.839 264.821 246.932 265.41 246.932 266.102V266.629H240.861V265.516H245.475C245.475 265.125 245.396 264.778 245.236 264.477C245.077 264.172 244.854 263.931 244.565 263.756C244.28 263.58 243.945 263.492 243.561 263.492C243.143 263.492 242.779 263.595 242.467 263.8C242.159 264.003 241.92 264.268 241.751 264.596C241.586 264.921 241.503 265.274 241.503 265.655V266.525C241.503 267.035 241.592 267.469 241.771 267.827C241.954 268.185 242.207 268.459 242.532 268.648C242.857 268.833 243.236 268.926 243.67 268.926C243.952 268.926 244.209 268.886 244.441 268.807C244.673 268.724 244.874 268.601 245.043 268.439C245.212 268.277 245.341 268.076 245.43 267.837L246.837 268.091C246.725 268.505 246.522 268.868 246.231 269.18C245.942 269.488 245.579 269.728 245.142 269.901C244.708 270.07 244.212 270.154 243.655 270.154Z" fill="#ADAFBD"/>
<defs>
<filter id="filter0_d_1_4548" x="0" y="0" width="559" height="530" filterUnits="userSpaceOnUse" color-interpolation-filters="sRGB">
<feFlood flood-opacity="0" result="BackgroundImageFix"/>
<feColorMatrix in="SourceAlpha" type="matrix" values="0 0 0 0 0 0 0 0 0 0 0 0 0 0 0 0 0 0 127 0" result="hardAlpha"/>
<feOffset dy="-2"/>
<feGaussianBlur stdDeviation="46"/>
<feColorMatrix type="matrix" values="0 0 0 0 0.572549 0 0 0 0 0.572549 0 0 0 0 0.572549 0 0 0 0.16 0"/>
<feBlend mode="normal" in2="BackgroundImageFix" result="effect1_dropShadow_1_4548"/>
<feBlend mode="normal" in="SourceGraphic" in2="effect1_dropShadow_1_4548" result="shape"/>
</filter>
<filter id="filter1_d_1_4548" x="262" y="391" width="207" height="75" filterUnits="userSpaceOnUse" color-interpolation-filters="sRGB">
<feFlood flood-opacity="0" result="BackgroundImageFix"/>
<feColorMatrix in="SourceAlpha" type="matrix" values="0 0 0 0 0 0 0 0 0 0 0 0 0 0 0 0 0 0 127 0" result="hardAlpha"/>
<feMorphology radius="2" operator="dilate" in="SourceAlpha" result="effect1_dropShadow_1_4548"/>
<feOffset dy="8"/>
<feGaussianBlur stdDeviation="12"/>
<feColorMatrix type="matrix" values="0 0 0 0 0.211765 0 0 0 0 0.231373 0 0 0 0 0.392157 0 0 0 0.08 0"/>
<feBlend mode="normal" in2="BackgroundImageFix" result="effect1_dropShadow_1_4548"/>
<feBlend mode="normal" in="SourceGraphic" in2="effect1_dropShadow_1_4548" result="shape"/>
</filter>
<filter id="filter2_d_1_4548" x="91" y="391" width="207" height="75" filterUnits="userSpaceOnUse" color-interpolation-filters="sRGB">
<feFlood flood-opacity="0" result="BackgroundImageFix"/>
<feColorMatrix in="SourceAlpha" type="matrix" values="0 0 0 0 0 0 0 0 0 0 0 0 0 0 0 0 0 0 127 0" result="hardAlpha"/>
<feMorphology radius="2" operator="dilate" in="SourceAlpha" result="effect1_dropShadow_1_4548"/>
<feOffset dy="8"/>
<feGaussianBlur stdDeviation="12"/>
<feColorMatrix type="matrix" values="0 0 0 0 0.211765 0 0 0 0 0.231373 0 0 0 0 0.392157 0 0 0 0.08 0"/>
<feBlend mode="normal" in2="BackgroundImageFix" result="effect1_dropShadow_1_4548"/>
<feBlend mode="normal" in="SourceGraphic" in2="effect1_dropShadow_1_4548" result="shape"/>
</filter>
<filter id="filter3_d_1_4548" x="262" y="229" width="207" height="198" filterUnits="userSpaceOnUse" color-interpolation-filters="sRGB">
<feFlood flood-opacity="0" result="BackgroundImageFix"/>
<feColorMatrix in="SourceAlpha" type="matrix" values="0 0 0 0 0 0 0 0 0 0 0 0 0 0 0 0 0 0 127 0" result="hardAlpha"/>
<feMorphology radius="2" operator="dilate" in="SourceAlpha" result="effect1_dropShadow_1_4548"/>
<feOffset dy="8"/>
<feGaussianBlur stdDeviation="12"/>
<feColorMatrix type="matrix" values="0 0 0 0 0.211765 0 0 0 0 0.231373 0 0 0 0 0.392157 0 0 0 0.08 0"/>
<feBlend mode="normal" in2="BackgroundImageFix" result="effect1_dropShadow_1_4548"/>
<feBlend mode="normal" in="SourceGraphic" in2="effect1_dropShadow_1_4548" result="shape"/>
</filter>
<filter id="filter4_d_1_4548" x="91" y="287" width="207" height="140" filterUnits="userSpaceOnUse" color-interpolation-filters="sRGB">
<feFlood flood-opacity="0" result="BackgroundImageFix"/>
<feColorMatrix in="SourceAlpha" type="matrix" values="0 0 0 0 0 0 0 0 0 0 0 0 0 0 0 0 0 0 127 0" result="hardAlpha"/>
<feMorphology radius="2" operator="dilate" in="SourceAlpha" result="effect1_dropShadow_1_4548"/>
<feOffset dy="8"/>
<feGaussianBlur stdDeviation="12"/>
<feColorMatrix type="matrix" values="0 0 0 0 0.211765 0 0 0 0 0.231373 0 0 0 0 0.392157 0 0 0 0.08 0"/>
<feBlend mode="normal" in2="BackgroundImageFix" result="effect1_dropShadow_1_4548"/>
<feBlend mode="normal" in="SourceGraphic" in2="effect1_dropShadow_1_4548" result="shape"/>
</filter>
<filter id="filter5_d_1_4548" x="262" y="125" width="207" height="140" filterUnits="userSpaceOnUse" color-interpolation-filters="sRGB">
<feFlood flood-opacity="0" result="BackgroundImageFix"/>
<feColorMatrix in="SourceAlpha" type="matrix" values="0 0 0 0 0 0 0 0 0 0 0 0 0 0 0 0 0 0 127 0" result="hardAlpha"/>
<feMorphology radius="2" operator="dilate" in="SourceAlpha" result="effect1_dropShadow_1_4548"/>
<feOffset dy="8"/>
<feGaussianBlur stdDeviation="12"/>
<feColorMatrix type="matrix" values="0 0 0 0 0.211765 0 0 0 0 0.231373 0 0 0 0 0.392157 0 0 0 0.08 0"/>
<feBlend mode="normal" in2="BackgroundImageFix" result="effect1_dropShadow_1_4548"/>
<feBlend mode="normal" in="SourceGraphic" in2="effect1_dropShadow_1_4548" result="shape"/>
</filter>
<filter id="filter6_d_1_4548" x="91" y="125" width="207" height="198" filterUnits="userSpaceOnUse" color-interpolation-filters="sRGB">
<feFlood flood-opacity="0" result="BackgroundImageFix"/>
<feColorMatrix in="SourceAlpha" type="matrix" values="0 0 0 0 0 0 0 0 0 0 0 0 0 0 0 0 0 0 127 0" result="hardAlpha"/>
<feMorphology radius="2" operator="dilate" in="SourceAlpha" result="effect1_dropShadow_1_4548"/>
<feOffset dy="8"/>
<feGaussianBlur stdDeviation="12"/>
<feColorMatrix type="matrix" values="0 0 0 0 0.211765 0 0 0 0 0.231373 0 0 0 0 0.392157 0 0 0 0.08 0"/>
<feBlend mode="normal" in2="BackgroundImageFix" result="effect1_dropShadow_1_4548"/>
<feBlend mode="normal" in="SourceGraphic" in2="effect1_dropShadow_1_4548" result="shape"/>
</filter>
<linearGradient id="paint0_linear_1_4548" x1="304" y1="271" x2="344" y2="311" gradientUnits="userSpaceOnUse">
<stop stop-color="#AEF231"/>
<stop offset="1" stop-color="#30A3C8"/>
</linearGradient>
<linearGradient id="paint1_linear_1_4548" x1="137.88" y1="332.612" x2="173.487" y2="369.294" gradientUnits="userSpaceOnUse">
<stop stop-color="#30DA6F"/>
<stop offset="1" stop-color="#106E33"/>
</linearGradient>
<linearGradient id="paint2_linear_1_4548" x1="320.394" y1="172.249" x2="329.586" y2="168.078" gradientUnits="userSpaceOnUse">
<stop stop-color="#FF2700"/>
<stop offset="1" stop-color="#FF5A6E"/>
</linearGradient>
<linearGradient id="paint3_linear_1_4548" x1="315.197" y1="175.583" x2="326.176" y2="182.155" gradientUnits="userSpaceOnUse">
<stop stop-color="#FF2700"/>
<stop offset="1" stop-color="#FF5A6E"/>
</linearGradient>
<linearGradient id="paint4_linear_1_4548" x1="333.386" y1="205.999" x2="298.532" y2="186.525" gradientUnits="userSpaceOnUse">
<stop stop-color="#F85032"/>
<stop offset="1" stop-color="#FF5A6E"/>
</linearGradient>
<linearGradient id="paint5_linear_1_4548" x1="149.39" y1="170.5" x2="174.305" y2="199.596" gradientUnits="userSpaceOnUse">
<stop stop-color="#12ACE3"/>
<stop offset="1" stop-color="#3547F2"/>
</linearGradient>
</defs>
</svg>
