<svg width="327" height="96" viewBox="0 0 327 96" fill="none" xmlns="http://www.w3.org/2000/svg">
<g opacity="0.48" filter="url(#filter0_b_1_4582)">
<rect width="327" height="96" rx="20" fill="white"/>
</g>
<rect x="281" y="37" width="8" height="8" rx="4" fill="url(#paint0_linear_1_4582)"/>
<rect x="281" y="51" width="8" height="8" rx="4" fill="url(#paint1_linear_1_4582)"/>
<rect x="295" y="37" width="8" height="8" rx="4" fill="url(#paint2_linear_1_4582)"/>
<rect x="295" y="51" width="8" height="8" rx="4" fill="url(#paint3_linear_1_4582)"/>
<path d="M24.6761 22.9119V21.8182H32.3125V22.9119H29.1108V32H27.8778V22.9119H24.6761ZM36.1911 32.1591C35.5017 32.1591 34.8969 31.995 34.3765 31.6669C33.8595 31.3388 33.4551 30.8797 33.1634 30.2898C32.8751 29.6998 32.7309 29.0104 32.7309 28.2216C32.7309 27.4261 32.8751 26.7318 33.1634 26.1385C33.4551 25.5452 33.8595 25.0845 34.3765 24.7564C34.8969 24.4283 35.5017 24.2642 36.1911 24.2642C36.8805 24.2642 37.4838 24.4283 38.0008 24.7564C38.5212 25.0845 38.9255 25.5452 39.2139 26.1385C39.5055 26.7318 39.6514 27.4261 39.6514 28.2216C39.6514 29.0104 39.5055 29.6998 39.2139 30.2898C38.9255 30.8797 38.5212 31.3388 38.0008 31.6669C37.4838 31.995 36.8805 32.1591 36.1911 32.1591ZM36.1911 31.1051C36.7148 31.1051 37.1457 30.9709 37.4838 30.7024C37.8218 30.4339 38.0721 30.081 38.2345 29.6435C38.3969 29.206 38.4781 28.732 38.4781 28.2216C38.4781 27.7112 38.3969 27.2356 38.2345 26.7947C38.0721 26.3539 37.8218 25.9976 37.4838 25.7259C37.1457 25.4541 36.7148 25.3182 36.1911 25.3182C35.6675 25.3182 35.2366 25.4541 34.8985 25.7259C34.5605 25.9976 34.3102 26.3539 34.1478 26.7947C33.9854 27.2356 33.9042 27.7112 33.9042 28.2216C33.9042 28.732 33.9854 29.206 34.1478 29.6435C34.3102 30.081 34.5605 30.4339 34.8985 30.7024C35.2366 30.9709 35.6675 31.1051 36.1911 31.1051ZM44.9034 24.3636V25.358H40.946V24.3636H44.9034ZM42.0994 22.5341H43.2727V29.8125C43.2727 30.1439 43.3208 30.3925 43.4169 30.5582C43.5163 30.7206 43.6423 30.83 43.7947 30.8864C43.9505 30.9394 44.1146 30.9659 44.2869 30.9659C44.4162 30.9659 44.5222 30.9593 44.6051 30.946C44.688 30.9295 44.7543 30.9162 44.804 30.9062L45.0426 31.9602C44.9631 31.9901 44.852 32.0199 44.7095 32.0497C44.567 32.0829 44.3864 32.0994 44.1676 32.0994C43.8362 32.0994 43.5114 32.0282 43.1932 31.8857C42.8783 31.7431 42.6165 31.526 42.4077 31.2344C42.2022 30.9427 42.0994 30.5748 42.0994 30.1307V22.5341ZM49.0555 32.179C48.5716 32.179 48.1324 32.0878 47.738 31.9055C47.3436 31.7199 47.0304 31.4531 46.7984 31.1051C46.5664 30.7538 46.4504 30.3295 46.4504 29.8324C46.4504 29.3949 46.5365 29.0402 46.7089 28.7685C46.8812 28.4934 47.1116 28.2779 47.3999 28.1222C47.6883 27.9664 48.0065 27.8504 48.3545 27.7741C48.7058 27.6946 49.0588 27.6316 49.4134 27.5852C49.8774 27.5256 50.2536 27.4808 50.542 27.451C50.8336 27.4179 51.0458 27.3632 51.1783 27.2869C51.3142 27.2107 51.3822 27.0781 51.3822 26.8892V26.8494C51.3822 26.3589 51.2479 25.9777 50.9795 25.706C50.7143 25.4342 50.3116 25.2983 49.7714 25.2983C49.2113 25.2983 48.7721 25.4209 48.4539 25.6662C48.1357 25.9115 47.912 26.1733 47.7827 26.4517L46.6691 26.054C46.868 25.59 47.1331 25.2287 47.4646 24.9702C47.7993 24.7083 48.1639 24.526 48.5583 24.4233C48.956 24.3172 49.3471 24.2642 49.7316 24.2642C49.9769 24.2642 50.2586 24.294 50.5768 24.3537C50.8983 24.41 51.2082 24.5277 51.5065 24.7067C51.8081 24.8857 52.0583 25.1558 52.2572 25.517C52.456 25.8783 52.5555 26.3622 52.5555 26.9688V32H51.3822V30.9659H51.3225C51.243 31.1316 51.1104 31.3089 50.9248 31.4979C50.7392 31.6868 50.4923 31.8475 50.184 31.9801C49.8758 32.1127 49.4996 32.179 49.0555 32.179ZM49.2345 31.125C49.6985 31.125 50.0896 31.0339 50.4077 30.8516C50.7292 30.6693 50.9712 30.4339 51.1336 30.1456C51.2993 29.8572 51.3822 29.554 51.3822 29.2358V28.1619C51.3325 28.2216 51.2231 28.2763 51.0541 28.326C50.8883 28.3724 50.6961 28.4138 50.4774 28.4503C50.2619 28.4834 50.0515 28.5133 49.846 28.5398C49.6438 28.563 49.4797 28.5829 49.3538 28.5994C49.0488 28.6392 48.7638 28.7038 48.4987 28.7933C48.2368 28.8795 48.0247 29.0104 47.8623 29.1861C47.7032 29.3584 47.6237 29.5937 47.6237 29.892C47.6237 30.2997 47.7745 30.608 48.0761 30.8168C48.381 31.0223 48.7671 31.125 49.2345 31.125ZM56.0103 21.8182V32H54.837V21.8182H56.0103ZM62.5358 32V21.8182H66.0955C66.8048 21.8182 67.3898 21.9408 67.8505 22.1861C68.3112 22.428 68.6542 22.7545 68.8796 23.1655C69.105 23.5732 69.2177 24.0256 69.2177 24.5227C69.2177 24.9602 69.1398 25.3215 68.984 25.6065C68.8315 25.8916 68.6294 26.117 68.3775 26.2827C68.1289 26.4484 67.8588 26.571 67.5671 26.6506V26.75C67.8786 26.7699 68.1919 26.8793 68.5067 27.0781C68.8216 27.277 69.0851 27.562 69.2972 27.9332C69.5093 28.3045 69.6154 28.7585 69.6154 29.2955C69.6154 29.8059 69.4994 30.2649 69.2674 30.6726C69.0354 31.0803 68.6691 31.4034 68.1687 31.642C67.6682 31.8807 67.0169 32 66.2148 32H62.5358ZM63.7688 30.9062H66.2148C67.0202 30.9062 67.592 30.7505 67.93 30.4389C68.2714 30.1241 68.4421 29.7429 68.4421 29.2955C68.4421 28.9508 68.3543 28.6326 68.1786 28.3409C68.0029 28.0459 67.7527 27.8106 67.4279 27.6349C67.1031 27.456 66.7186 27.3665 66.2745 27.3665H63.7688V30.9062ZM63.7688 26.2926H66.0557C66.4269 26.2926 66.7617 26.2197 67.06 26.0739C67.3616 25.928 67.6002 25.7225 67.7759 25.4574C67.9549 25.1922 68.0444 24.8807 68.0444 24.5227C68.0444 24.0753 67.8886 23.6958 67.577 23.3842C67.2655 23.0694 66.7716 22.9119 66.0955 22.9119H63.7688V26.2926ZM73.8694 32.179C73.3855 32.179 72.9463 32.0878 72.5519 31.9055C72.1575 31.7199 71.8443 31.4531 71.6123 31.1051C71.3803 30.7538 71.2643 30.3295 71.2643 29.8324C71.2643 29.3949 71.3504 29.0402 71.5228 28.7685C71.6951 28.4934 71.9255 28.2779 72.2138 28.1222C72.5022 27.9664 72.8204 27.8504 73.1684 27.7741C73.5197 27.6946 73.8727 27.6316 74.2273 27.5852C74.6914 27.5256 75.0675 27.4808 75.3559 27.451C75.6476 27.4179 75.8597 27.3632 75.9923 27.2869C76.1281 27.2107 76.1961 27.0781 76.1961 26.8892V26.8494C76.1961 26.3589 76.0619 25.9777 75.7934 25.706C75.5282 25.4342 75.1255 25.2983 74.5853 25.2983C74.0252 25.2983 73.586 25.4209 73.2678 25.6662C72.9496 25.9115 72.7259 26.1733 72.5967 26.4517L71.483 26.054C71.6819 25.59 71.947 25.2287 72.2785 24.9702C72.6132 24.7083 72.9778 24.526 73.3722 24.4233C73.7699 24.3172 74.161 24.2642 74.5455 24.2642C74.7908 24.2642 75.0725 24.294 75.3907 24.3537C75.7122 24.41 76.0221 24.5277 76.3204 24.7067C76.622 24.8857 76.8722 25.1558 77.0711 25.517C77.27 25.8783 77.3694 26.3622 77.3694 26.9688V32H76.1961V30.9659H76.1364C76.0569 31.1316 75.9243 31.3089 75.7387 31.4979C75.5531 31.6868 75.3062 31.8475 74.9979 31.9801C74.6897 32.1127 74.3135 32.179 73.8694 32.179ZM74.0484 31.125C74.5124 31.125 74.9035 31.0339 75.2217 30.8516C75.5432 30.6693 75.7851 30.4339 75.9475 30.1456C76.1132 29.8572 76.1961 29.554 76.1961 29.2358V28.1619C76.1464 28.2216 76.037 28.2763 75.868 28.326C75.7022 28.3724 75.51 28.4138 75.2913 28.4503C75.0758 28.4834 74.8654 28.5133 74.6599 28.5398C74.4577 28.563 74.2936 28.5829 74.1677 28.5994C73.8628 28.6392 73.5777 28.7038 73.3126 28.7933C73.0507 28.8795 72.8386 29.0104 72.6762 29.1861C72.5171 29.3584 72.4376 29.5937 72.4376 29.892C72.4376 30.2997 72.5884 30.608 72.89 30.8168C73.1949 31.0223 73.581 31.125 74.0484 31.125ZM80.8242 21.8182V32H79.6509V21.8182H80.8242ZM85.3603 32.179C84.8764 32.179 84.4373 32.0878 84.0428 31.9055C83.6484 31.7199 83.3352 31.4531 83.1032 31.1051C82.8712 30.7538 82.7552 30.3295 82.7552 29.8324C82.7552 29.3949 82.8414 29.0402 83.0137 28.7685C83.1861 28.4934 83.4164 28.2779 83.7048 28.1222C83.9931 27.9664 84.3113 27.8504 84.6593 27.7741C85.0106 27.6946 85.3636 27.6316 85.7183 27.5852C86.1823 27.5256 86.5585 27.4808 86.8468 27.451C87.1385 27.4179 87.3506 27.3632 87.4832 27.2869C87.6191 27.2107 87.687 27.0781 87.687 26.8892V26.8494C87.687 26.3589 87.5528 25.9777 87.2843 25.706C87.0192 25.4342 86.6165 25.2983 86.0762 25.2983C85.5161 25.2983 85.0769 25.4209 84.7588 25.6662C84.4406 25.9115 84.2169 26.1733 84.0876 26.4517L82.974 26.054C83.1728 25.59 83.438 25.2287 83.7694 24.9702C84.1042 24.7083 84.4687 24.526 84.8632 24.4233C85.2609 24.3172 85.652 24.2642 86.0365 24.2642C86.2817 24.2642 86.5634 24.294 86.8816 24.3537C87.2031 24.41 87.513 24.5277 87.8113 24.7067C88.1129 24.8857 88.3632 25.1558 88.562 25.517C88.7609 25.8783 88.8603 26.3622 88.8603 26.9688V32H87.687V30.9659H87.6274C87.5478 31.1316 87.4152 31.3089 87.2296 31.4979C87.044 31.6868 86.7971 31.8475 86.4889 31.9801C86.1806 32.1127 85.8044 32.179 85.3603 32.179ZM85.5393 31.125C86.0033 31.125 86.3944 31.0339 86.7126 30.8516C87.0341 30.6693 87.276 30.4339 87.4384 30.1456C87.6042 29.8572 87.687 29.554 87.687 29.2358V28.1619C87.6373 28.2216 87.5279 28.2763 87.3589 28.326C87.1932 28.3724 87.0009 28.4138 86.7822 28.4503C86.5668 28.4834 86.3563 28.5133 86.1508 28.5398C85.9486 28.563 85.7846 28.5829 85.6586 28.5994C85.3537 28.6392 85.0687 28.7038 84.8035 28.7933C84.5417 28.8795 84.3295 29.0104 84.1671 29.1861C84.008 29.3584 83.9285 29.5937 83.9285 29.892C83.9285 30.2997 84.0793 30.608 84.3809 30.8168C84.6858 31.0223 85.072 31.125 85.5393 31.125ZM92.3151 27.4062V32H91.1418V24.3636H92.2754V25.5568H92.3748C92.5538 25.169 92.8255 24.8575 93.1901 24.6222C93.5547 24.3835 94.0254 24.2642 94.6021 24.2642C95.1191 24.2642 95.5715 24.3703 95.9593 24.5824C96.3471 24.7912 96.6487 25.1094 96.8641 25.5369C97.0796 25.9612 97.1873 26.4981 97.1873 27.1477V32H96.014V27.2273C96.014 26.6274 95.8582 26.16 95.5467 25.8253C95.2351 25.4872 94.8076 25.3182 94.264 25.3182C93.8895 25.3182 93.5547 25.3994 93.2597 25.5618C92.9681 25.7242 92.7377 25.9612 92.5687 26.2727C92.3996 26.5843 92.3151 26.9621 92.3151 27.4062ZM102.574 32.1591C101.858 32.1591 101.241 31.9901 100.724 31.652C100.207 31.3139 99.8094 30.8482 99.5309 30.255C99.2525 29.6617 99.1133 28.9839 99.1133 28.2216C99.1133 27.446 99.2559 26.7616 99.5409 26.1683C99.8292 25.5717 100.23 25.1061 100.744 24.7713C101.261 24.4332 101.864 24.2642 102.554 24.2642C103.091 24.2642 103.575 24.3636 104.005 24.5625C104.436 24.7614 104.789 25.0398 105.064 25.3977C105.339 25.7557 105.51 26.1733 105.576 26.6506H104.403C104.314 26.3026 104.115 25.9943 103.807 25.7259C103.502 25.4541 103.091 25.3182 102.574 25.3182C102.116 25.3182 101.715 25.4375 101.37 25.6761C101.029 25.9115 100.762 26.2446 100.57 26.6754C100.381 27.103 100.287 27.6051 100.287 28.1818C100.287 28.7718 100.379 29.2855 100.565 29.723C100.754 30.1605 101.019 30.5002 101.36 30.7422C101.705 30.9841 102.11 31.1051 102.574 31.1051C102.878 31.1051 103.155 31.0521 103.404 30.946C103.652 30.84 103.863 30.6875 104.035 30.4886C104.208 30.2898 104.33 30.0511 104.403 29.7727H105.576C105.51 30.2235 105.346 30.6295 105.084 30.9908C104.826 31.3487 104.483 31.6338 104.055 31.8459C103.631 32.0547 103.137 32.1591 102.574 32.1591ZM110.633 32.1591C109.898 32.1591 109.263 31.9967 108.729 31.6719C108.199 31.3438 107.79 30.8864 107.501 30.2997C107.216 29.7098 107.074 29.0237 107.074 28.2415C107.074 27.4593 107.216 26.7699 107.501 26.1733C107.79 25.5734 108.191 25.1061 108.704 24.7713C109.221 24.4332 109.825 24.2642 110.514 24.2642C110.912 24.2642 111.304 24.3305 111.692 24.4631C112.08 24.5956 112.433 24.8111 112.751 25.1094C113.069 25.4044 113.323 25.7955 113.512 26.2827C113.701 26.7699 113.795 27.3698 113.795 28.0824V28.5795H107.909V27.5653H112.602C112.602 27.1345 112.516 26.75 112.344 26.4119C112.174 26.0739 111.933 25.8071 111.618 25.6115C111.306 25.416 110.938 25.3182 110.514 25.3182C110.047 25.3182 109.642 25.4342 109.301 25.6662C108.963 25.8949 108.703 26.1932 108.52 26.5611C108.338 26.929 108.247 27.3234 108.247 27.7443V28.4205C108.247 28.9972 108.346 29.486 108.545 29.8871C108.747 30.2848 109.027 30.5881 109.385 30.7969C109.743 31.0024 110.159 31.1051 110.633 31.1051C110.942 31.1051 111.22 31.062 111.469 30.9759C111.72 30.8864 111.938 30.7538 112.12 30.5781C112.302 30.3991 112.443 30.1771 112.542 29.9119L113.676 30.2301C113.557 30.6146 113.356 30.9527 113.074 31.2443C112.793 31.5327 112.445 31.758 112.03 31.9205C111.616 32.0795 111.15 32.1591 110.633 32.1591Z" fill="white"/>
<path d="M26.7358 47.9091L29.657 54.7358L28.0014 55.848L24.2557 47.9091H26.7358ZM28.5192 54.6974L31.4212 47.9091H33.9013L30.1491 55.848L28.5192 54.6974ZM30.2259 54.1094V61H27.8736V54.1094H30.2259ZM32.9105 54.3267V55.7649H25.0611V54.3267H32.9105ZM32.9105 56.858V58.2962H25.0611V56.858H32.9105Z" fill="#363B64"/>
<path d="M40.6477 65.6818V62.3295L50.5227 46.7273H53.3182V51.5H51.6136L44.9659 62.0341V62.2159H58.75V65.6818H40.6477ZM51.75 70V64.6591L51.7955 63.1591V46.7273H55.7727V70H51.75ZM70.7916 70.3182C69.2764 70.3182 67.9204 70.0341 66.7234 69.4659C65.5264 68.8902 64.5757 68.1023 63.8711 67.1023C63.1742 66.1023 62.803 64.9583 62.7575 63.6705H66.8484C66.9242 64.625 67.337 65.4053 68.087 66.0114C68.837 66.6098 69.7386 66.9091 70.7916 66.9091C71.6173 66.9091 72.3522 66.7197 72.9961 66.3409C73.6401 65.9621 74.1477 65.4356 74.5189 64.7614C74.8901 64.0871 75.0719 63.3182 75.0643 62.4545C75.0719 61.5758 74.8863 60.7955 74.5075 60.1136C74.1287 59.4318 73.6098 58.8977 72.9507 58.5114C72.2916 58.1174 71.534 57.9205 70.678 57.9205C69.981 57.9129 69.2954 58.0417 68.6211 58.3068C67.9469 58.572 67.4128 58.9205 67.0189 59.3523L63.212 58.7273L64.428 46.7273H77.928V50.25H67.9166L67.2461 56.4205H67.3825C67.8143 55.9129 68.4242 55.4924 69.212 55.1591C69.9999 54.8182 70.8636 54.6477 71.803 54.6477C73.212 54.6477 74.4696 54.9811 75.5757 55.6477C76.6817 56.3068 77.553 57.2159 78.1893 58.375C78.8257 59.5341 79.1439 60.8598 79.1439 62.3523C79.1439 63.8902 78.7878 65.2614 78.0757 66.4659C77.3711 67.6629 76.3901 68.6061 75.1325 69.2955C73.8825 69.9773 72.4355 70.3182 70.7916 70.3182ZM91.3502 46.3409C92.4639 46.3485 93.5472 46.5455 94.6002 46.9318C95.6608 47.3182 96.6154 47.9432 97.4639 48.8068C98.3123 49.6705 98.9866 50.8258 99.4866 52.2727C99.9866 53.7197 100.237 55.5114 100.237 57.6477C100.237 59.6477 100.021 61.4356 99.5889 63.0114C99.1646 64.5795 98.5548 65.9053 97.7593 66.9886C96.9714 68.072 96.0169 68.8977 94.8957 69.4659C93.7745 70.0341 92.5131 70.3182 91.1116 70.3182C89.6419 70.3182 88.3389 70.0303 87.2025 69.4545C86.0737 68.8788 85.1608 68.0909 84.4639 67.0909C83.7669 66.0909 83.3389 64.947 83.1798 63.6591H87.3275C87.5396 64.5833 87.9714 65.3182 88.623 65.8636C89.282 66.4015 90.1116 66.6705 91.1116 66.6705C92.7252 66.6705 93.9677 65.9697 94.8389 64.5682C95.7101 63.1667 96.1457 61.2197 96.1457 58.7273H95.9866C95.6154 59.3939 95.1343 59.9697 94.5434 60.4545C93.9525 60.9318 93.282 61.2992 92.532 61.5568C91.7896 61.8144 91.0017 61.9432 90.1684 61.9432C88.8048 61.9432 87.5775 61.6174 86.4866 60.9659C85.3957 60.3144 84.532 59.4205 83.8957 58.2841C83.2669 57.1402 82.9525 55.8333 82.9525 54.3636C82.9525 52.8333 83.301 51.4621 83.998 50.25C84.7025 49.0379 85.6836 48.0833 86.9411 47.3864C88.1987 46.6818 89.6684 46.3333 91.3502 46.3409ZM91.3616 49.75C90.5434 49.75 89.8048 49.9508 89.1457 50.3523C88.4942 50.7538 87.979 51.2955 87.6002 51.9773C87.229 52.6591 87.0434 53.4242 87.0434 54.2727C87.0434 55.1061 87.2252 55.8636 87.5889 56.5455C87.9601 57.2197 88.4677 57.7538 89.1116 58.1477C89.7555 58.5417 90.4904 58.7386 91.3161 58.7386C91.9298 58.7386 92.5017 58.6212 93.032 58.3864C93.5623 58.1439 94.0245 57.8144 94.4184 57.3977C94.8123 56.9811 95.1192 56.5038 95.3389 55.9659C95.5661 55.4205 95.6798 54.8485 95.6798 54.25C95.6798 53.4394 95.4904 52.6932 95.1116 52.0114C94.7404 51.3295 94.229 50.7841 93.5775 50.375C92.9336 49.9583 92.1949 49.75 91.3616 49.75ZM106.014 70.25C105.325 70.25 104.734 70.0076 104.241 69.5227C103.749 69.0379 103.506 68.447 103.514 67.75C103.506 67.0682 103.749 66.4848 104.241 66C104.734 65.5152 105.325 65.2727 106.014 65.2727C106.681 65.2727 107.26 65.5152 107.753 66C108.253 66.4848 108.506 67.0682 108.514 67.75C108.506 68.2121 108.385 68.6326 108.15 69.0114C107.923 69.3902 107.62 69.6932 107.241 69.9205C106.87 70.1402 106.461 70.25 106.014 70.25ZM113.036 70V66.9545L121.115 59.0341C121.888 58.2538 122.532 57.5606 123.047 56.9545C123.562 56.3485 123.949 55.7614 124.206 55.1932C124.464 54.625 124.592 54.0189 124.592 53.375C124.592 52.6402 124.426 52.0114 124.092 51.4886C123.759 50.9583 123.301 50.5492 122.717 50.2614C122.134 49.9735 121.471 49.8295 120.729 49.8295C119.964 49.8295 119.293 49.9886 118.717 50.3068C118.142 50.6174 117.695 51.0606 117.377 51.6364C117.066 52.2121 116.911 52.8977 116.911 53.6932H112.899C112.899 52.2159 113.236 50.9318 113.911 49.8409C114.585 48.75 115.513 47.9053 116.695 47.3068C117.884 46.7083 119.248 46.4091 120.786 46.4091C122.346 46.4091 123.717 46.7008 124.899 47.2841C126.081 47.8674 126.998 48.6667 127.649 49.6818C128.308 50.697 128.638 51.8561 128.638 53.1591C128.638 54.0303 128.471 54.8864 128.138 55.7273C127.805 56.5682 127.217 57.5 126.377 58.5227C125.543 59.5455 124.373 60.7841 122.865 62.2386L118.854 66.3182V66.4773H128.99V70H113.036ZM133.231 70V66.9545L141.31 59.0341C142.083 58.2538 142.727 57.5606 143.242 56.9545C143.757 56.3485 144.144 55.7614 144.401 55.1932C144.659 54.625 144.787 54.0189 144.787 53.375C144.787 52.6402 144.621 52.0114 144.287 51.4886C143.954 50.9583 143.496 50.5492 142.912 50.2614C142.329 49.9735 141.666 49.8295 140.924 49.8295C140.159 49.8295 139.488 49.9886 138.912 50.3068C138.337 50.6174 137.89 51.0606 137.572 51.6364C137.261 52.2121 137.106 52.8977 137.106 53.6932H133.094C133.094 52.2159 133.431 50.9318 134.106 49.8409C134.78 48.75 135.708 47.9053 136.89 47.3068C138.079 46.7083 139.443 46.4091 140.981 46.4091C142.541 46.4091 143.912 46.7008 145.094 47.2841C146.276 47.8674 147.193 48.6667 147.844 49.6818C148.503 50.697 148.833 51.8561 148.833 53.1591C148.833 54.0303 148.666 54.8864 148.333 55.7273C148 56.5682 147.412 57.5 146.572 58.5227C145.738 59.5455 144.568 60.7841 143.06 62.2386L139.049 66.3182V66.4773H149.185V70H133.231Z" fill="#363B64"/>
<defs>
<filter id="filter0_b_1_4582" x="-160" y="-160" width="647" height="416" filterUnits="userSpaceOnUse" color-interpolation-filters="sRGB">
<feFlood flood-opacity="0" result="BackgroundImageFix"/>
<feGaussianBlur in="BackgroundImage" stdDeviation="80"/>
<feComposite in2="SourceAlpha" operator="in" result="effect1_backgroundBlur_1_4582"/>
<feBlend mode="normal" in="SourceGraphic" in2="effect1_backgroundBlur_1_4582" result="shape"/>
</filter>
<linearGradient id="paint0_linear_1_4582" x1="281" y1="37" x2="290.656" y2="40.9069" gradientUnits="userSpaceOnUse">
<stop stop-color="#E85442"/>
<stop offset="1" stop-color="#FFC500"/>
</linearGradient>
<linearGradient id="paint1_linear_1_4582" x1="281" y1="51" x2="290.656" y2="54.9069" gradientUnits="userSpaceOnUse">
<stop stop-color="#E85442"/>
<stop offset="1" stop-color="#FFC500"/>
</linearGradient>
<linearGradient id="paint2_linear_1_4582" x1="295" y1="37" x2="304.656" y2="40.9069" gradientUnits="userSpaceOnUse">
<stop stop-color="#E85442"/>
<stop offset="1" stop-color="#FFC500"/>
</linearGradient>
<linearGradient id="paint3_linear_1_4582" x1="295" y1="51" x2="304.656" y2="54.9069" gradientUnits="userSpaceOnUse">
<stop stop-color="#E85442"/>
<stop offset="1" stop-color="#FFC500"/>
</linearGradient>
</defs>
</svg>
